<?xml version="1.0" encoding="UTF-8"?>
<svg id="Layer_1" xmlns="http://www.w3.org/2000/svg" version="1.1" viewBox="0 0 1400 2000">
  <!-- Generator: Adobe Illustrator 29.6.0, SVG Export Plug-In . SVG Version: 2.1.1 Build 207)  -->
  <g style="opacity: .8;">
    <g>
      <path d="M373.1,1428.5c-7,0-14,0-21.1-.3-2.7,0-4.8-2.3-4.7-5,0-2.7,2.2-4.8,5-4.7,12.1.3,24,.3,36.1.1h0c2.6,0,4.8,2.1,4.8,4.7,0,2.7-2.1,4.9-4.7,4.9-5.2,0-10.3.1-15.4.1ZM436.8,1426c-2.5,0-4.6-1.9-4.8-4.5-.2-2.7,1.8-5,4.4-5.2,12-1,24.1-2.2,35.9-3.7,2.6-.3,5.1,1.5,5.4,4.2.3,2.7-1.5,5.1-4.2,5.4-12,1.5-24.2,2.8-36.3,3.8-.1,0-.3,0-.4,0ZM303.8,1425.6c-.1,0-.3,0-.4,0-12.1-1-24.3-2.3-36.3-3.8-2.7-.3-4.5-2.7-4.2-5.4.3-2.7,2.8-4.6,5.4-4.2,11.9,1.5,24,2.7,35.9,3.7,2.7.2,4.6,2.6,4.4,5.2-.2,2.5-2.3,4.4-4.8,4.4ZM219.8,1414.6c-.3,0-.6,0-.9,0-11.9-2.1-24-4.6-35.8-7.2-2.6-.6-4.3-3.2-3.7-5.8s3.2-4.3,5.8-3.7c11.7,2.6,23.6,5,35.4,7.1,2.6.5,4.4,3,3.9,5.6-.4,2.3-2.5,4-4.8,4ZM520.7,1414.6c-2.3,0-4.3-1.6-4.7-3.9-.5-2.6,1.2-5.2,3.8-5.7,11.8-2.3,23.6-4.9,35.2-7.7,2.6-.6,5.2,1,5.9,3.5.6,2.6-.9,5.2-3.5,5.9-11.8,2.9-23.8,5.5-35.7,7.8-.3,0-.6,0-.9,0ZM137.3,1395.7c-.4,0-.9,0-1.3-.2-12-3.4-23.8-7-34.9-10.7-2.5-.8-3.9-3.6-3.1-6.1.8-2.5,3.6-3.9,6.1-3.1,11,3.7,22.7,7.2,34.5,10.6,2.6.7,4.1,3.4,3.3,6-.6,2.1-2.5,3.5-4.7,3.5ZM602.7,1393.7c-2.1,0-4-1.3-4.6-3.4-.8-2.5.6-5.3,3.1-6.1,11.4-3.7,22.9-7.6,34-11.8,2.5-.9,5.3.3,6.2,2.8.9,2.5-.3,5.3-2.8,6.2-11.3,4.3-22.9,8.3-34.5,12-.5.2-1,.2-1.5.2ZM681.6,1363.1c-1.8,0-3.6-1-4.4-2.8-1.1-2.4,0-5.3,2.4-6.4,10.8-5,21.7-10.3,32.4-15.9,2.4-1.2,5.3-.3,6.5,2,1.2,2.4.3,5.3-2,6.5-10.8,5.6-21.8,11.1-32.8,16.1-.7.3-1.3.4-2,.4ZM756.3,1323.3c-1.6,0-3.2-.8-4.1-2.3-1.4-2.3-.7-5.3,1.6-6.7,10.2-6.2,20.3-12.8,30.3-19.6,2.2-1.5,5.2-.9,6.7,1.3,1.5,2.2.9,5.2-1.3,6.7-10,6.9-20.4,13.6-30.7,19.9-.8.5-1.7.7-2.5.7ZM825.8,1274.9c-1.4,0-2.9-.6-3.8-1.9-1.6-2.1-1.3-5.1.8-6.8,9.4-7.3,18.7-15,27.9-22.9,2-1.7,5.1-1.5,6.8.5,1.7,2,1.5,5.1-.5,6.8-9.3,8-18.8,15.8-28.2,23.2-.9.7-1.9,1-3,1ZM889.7,1219.3c-1.3,0-2.5-.5-3.5-1.5-1.9-1.9-1.8-5,.1-6.8,8.6-8.3,17.2-16.9,25.4-25.6,1.8-1.9,4.9-2,6.8-.2,1.9,1.8,2,4.9.2,6.8-8.4,8.8-17,17.5-25.7,25.9-.9.9-2.2,1.4-3.4,1.4ZM947.6,1157.5c-1.1,0-2.2-.4-3.1-1.2-2-1.7-2.3-4.8-.6-6.8,7.8-9.1,15.4-18.6,22.8-28,1.6-2.1,4.7-2.5,6.8-.8,2.1,1.6,2.5,4.7.8,6.8-7.4,9.6-15.2,19.1-23,28.3-1,1.1-2.3,1.7-3.7,1.7ZM999.2,1090.3c-.9,0-1.9-.3-2.7-.9-2.2-1.5-2.8-4.5-1.2-6.7,6.8-9.9,13.5-20.1,19.8-30.1,1.4-2.3,4.4-2.9,6.7-1.5,2.3,1.4,3,4.4,1.5,6.7-6.4,10.2-13.1,20.5-20.1,30.5-.9,1.4-2.5,2.1-4,2.1ZM1043.5,1018.2c-.8,0-1.6-.2-2.3-.6-2.3-1.3-3.2-4.2-1.9-6.6,5.8-10.6,11.3-21.4,16.4-32.1,1.2-2.4,4.1-3.4,6.5-2.3,2.4,1.2,3.4,4,2.3,6.5-5.2,10.8-10.8,21.8-16.6,32.5-.9,1.6-2.5,2.5-4.3,2.5ZM1079.5,941.6c-.6,0-1.2-.1-1.8-.3-2.5-1-3.7-3.8-2.7-6.3,4.5-11.2,8.6-22.6,12.3-33.9.8-2.5,3.6-3.9,6.1-3.1,2.5.8,3.9,3.6,3.1,6.1-3.8,11.4-8,23-12.5,34.4-.8,1.9-2.6,3.1-4.5,3.1ZM1105.2,861c-.4,0-.8,0-1.1-.1-2.6-.6-4.2-3.2-3.6-5.8,2.8-11.8,5.3-23.6,7.2-35.2.4-2.6,2.9-4.4,5.6-4,2.6.4,4.4,2.9,4,5.6-2,11.8-4.5,23.9-7.4,35.9-.5,2.2-2.5,3.7-4.7,3.7ZM1118.2,777.4c-.1,0-.2,0-.3,0-2.7-.2-4.7-2.5-4.5-5.2.7-9.8,1-19.7,1-29.3s0-4.3,0-6.5c0-2.7,2.1-4.9,4.8-4.9,2.6,0,4.9,2.1,4.9,4.8,0,2.2,0,4.4,0,6.7,0,9.9-.3,20-1,30-.2,2.6-2.3,4.5-4.8,4.5ZM1115.6,692.9c-2.4,0-4.5-1.8-4.8-4.2-1.3-9.8-3.1-19.7-5.2-29.2-.4-2-.9-4-1.4-6-.6-2.6,1-5.2,3.6-5.8,2.6-.6,5.2,1,5.8,3.6.5,2,.9,4.1,1.4,6.2,2.1,9.8,3.9,19.9,5.3,30,.4,2.6-1.5,5.1-4.1,5.4-.2,0-.4,0-.7,0ZM1094.9,610.9c-2,0-3.8-1.2-4.5-3.2-4-10.8-8.6-22-13.8-33.2-1.1-2.4,0-5.3,2.4-6.4,2.4-1.1,5.3,0,6.4,2.4,5.2,11.4,10,22.8,14.1,33.8.9,2.5-.4,5.3-2.9,6.2-.6.2-1.1.3-1.7.3ZM1059.1,534.3c-1.7,0-3.4-.9-4.2-2.5-5.3-9.5-11.2-19.7-18.1-31.3-1.4-2.3-.6-5.3,1.7-6.6,2.3-1.4,5.3-.6,6.6,1.7,7,11.6,12.9,22,18.2,31.5,1.3,2.3.5,5.3-1.9,6.6-.7.4-1.5.6-2.3.6ZM1015.7,461.6c-1.6,0-3.2-.8-4.1-2.3-6-9.8-12.5-20.4-18.8-31.1-1.4-2.3-.6-5.3,1.7-6.6,2.3-1.4,5.3-.6,6.6,1.7,6.3,10.7,12.7,21.2,18.7,31,1.4,2.3.7,5.3-1.6,6.7-.8.5-1.7.7-2.5.7ZM973.4,388.3c-1.8,0-3.5-1-4.3-2.6-5.9-11.5-11.1-22.4-15.7-33.1-1.1-2.5,0-5.3,2.5-6.4,2.5-1.1,5.3,0,6.4,2.5,4.5,10.5,9.6,21.1,15.4,32.5,1.2,2.4.3,5.3-2.1,6.5-.7.4-1.5.5-2.2.5ZM941.4,310c-2.1,0-4-1.4-4.6-3.5-3.5-11.9-6.3-23.9-8.4-35.8-.5-2.6,1.3-5.1,3.9-5.6,2.6-.5,5.1,1.3,5.6,3.9,2.1,11.5,4.8,23.2,8.2,34.8.7,2.6-.7,5.3-3.3,6-.5.1-.9.2-1.4.2ZM928.2,226.7c-2.6,0-4.8-2.1-4.8-4.7,0-3.3-.1-6.6-.1-9.9,0-8.8.3-17.8,1-26.8.2-2.7,2.5-4.7,5.2-4.5,2.7.2,4.7,2.5,4.5,5.2-.7,8.8-1,17.6-1,26.1,0,3.2,0,6.5.1,9.6,0,2.7-2,4.9-4.7,5,0,0,0,0-.1,0ZM935.8,142.6c-.3,0-.7,0-1-.1-2.6-.5-4.3-3.1-3.8-5.7,2.4-11.9,5.5-23.8,9.1-35.6.8-2.6,3.5-4,6-3.2,2.6.8,4,3.5,3.2,6-3.5,11.5-6.5,23.2-8.9,34.7-.5,2.3-2.5,3.9-4.7,3.9ZM961.6,62c-.6,0-1.3-.1-1.9-.4-2.4-1.1-3.6-3.9-2.5-6.4,4.8-11,10.2-22.1,16.1-33,1.3-2.4,4.2-3.2,6.6-2,2.4,1.3,3.2,4.2,2,6.6-5.7,10.6-11,21.5-15.7,32.3-.8,1.8-2.6,2.9-4.4,2.9Z" style="fill: #ee3a4c;"/>
      <g>
        <path d="M373.1,1428.7c-7.6-.4-15.4,2-23,.8-6-2-5.1-11.2,1.2-11.7,11.8.6,23.7-1.1,35.5-1.1,1.2,0,2.7-.1,3.8.3,6.6,2,5.8,12.1-1.1,12.7-5.5-.2-10.9-1.3-16.3-1.1h0ZM373.1,1428.3c5.2,0,10.7-.8,15.9-1.5,3.5-1,3.1-6.1-.6-6.2-6.8-.2-14.2-.4-21-1-5.3-.4-10.8-.7-16-.3-2.6.5-3.7,4.1-2.1,5.9.7.9,1.7,1.4,2.9,1.4,7,0,13.9,1.7,20.9,1.7h0Z" style="fill: #233062;"/>
        <path d="M436.8,1426.2c-5.3,0-7.5-7.4-2.8-10.3,4.1-1.8,8.7-1.7,13.1-2.2,8.7,0,17.1-.5,25.8-2.1,8.8.2,8.3,12.4-.7,12.6-12.2,2.1-23.3,1.4-35.4,2h0ZM436.8,1425.8c10.6-1.4,21-4.5,31.8-5,1,0,3.8-.3,4.8-.4,1.8-.2,3.2-2,2.8-3.9-.2-1.5-1.5-2.9-3.3-3-11.7-.3-23.4,3.6-35.1,4.1-6.4-.8-7.3,7.6-1,8.2h0Z" style="fill: #233062;"/>
        <path d="M303.8,1425.8c-8.6-.8-17.3.3-25.8-1.3,0,0-6.4-1.2-6.4-1.2-1-.2-3.8-.7-4.8-.9-6.5-1.2-5.9-10.9.8-11.3,12,.3,23.6,1.1,35.3,3.1,1.1.2,2.6.5,3.5,1.1,4.8,3,2.6,10.5-2.8,10.4h0ZM303.8,1425.4c5.3,0,5.7-7.9.5-8.1-12.2-.2-24.7-2.1-36.6-4.2-5.1-.3-5.8,7.4-.6,8,1,0,3.8.1,4.8.2,0,0,6.5.2,6.5.2,8.6.2,17,3.1,25.5,3.9h0Z" style="fill: #233062;"/>
        <path d="M219.8,1414.8c-8.5-1.4-17.2-1.4-25.6-3.7l-6.2-1.8c-1.9-.7-4.4-1-6.3-1.9-4.9-2.6-3.2-10.4,2.5-10.6,8.7.8,17.1,2.4,25.6,4.1,4.3,1.1,8.8,1.7,12.8,3.6,4.8,3,2.6,10.5-2.8,10.4h0ZM219.8,1414.4c4.6,0,5.9-6.4,1.7-7.9-4.1-.6-8.3-1.1-12.4-1.9-6.3-1.2-12.6-2.7-18.9-4.3-1.6-.4-4.6-1.3-6-1.6-1.7-.2-3.6,1-4.1,2.8-.6,1.8.4,4,2.1,4.8.8.4,1.9.4,3,.6,2,.2,7.5.9,9.6,1.2,8.5.9,16.6,4.8,25,6.3h0Z" style="fill: #233062;"/>
        <path d="M520.7,1414.8c-2.2,0-4.4-1.5-5.1-3.8-1.3-3.9,1.8-7.2,5.7-7.8,7.2-2.3,14.8-2.7,22.2-4,3.2-.6,6.3-1.3,9.4-2.3,1-.3,2-.7,3.3-.8,2.6-.2,5.4,1.6,6.1,4.3.8,2.7-.5,5.9-3.1,7.3-2.3,1.1-4.4,1.2-6.6,1.9-10.4,2.8-21.3,3.5-31.9,5.1h0ZM520.7,1414.4c10.4-2.4,20.4-6.9,31-8.4,1.4-.3,4.8-.8,5.9-1.2,3.1-1.4,2.1-6.4-1.4-6.6-.8,0-1.9.2-3,.3-11.7,1.5-22.5,6.7-34.2,8-4.2,1.6-3,7.9,1.7,7.9h0Z" style="fill: #233062;"/>
        <path d="M137.3,1395.9c-8.4-2.1-17.1-2.9-25.1-6.1l-12.1-4.8c-4.9-2.6-3.2-10.4,2.5-10.6,1.1-.1,2.5.3,3.5.6,11.5,2.9,23.1,5.6,34,10.6,4.8,3,2.6,10.5-2.8,10.4h0ZM137.3,1395.5c4.6,0,5.9-6.4,1.7-7.9-11.4-2.3-22.7-6.3-33.7-10.3,0,0-1.5-.6-1.5-.6-4.7-2-7.8,5-3.2,7.3,1.8.7,4.1,1.1,6.2,1.5l6.3,1.4c8.4,1.7,15.9,6.6,24.2,8.6h0Z" style="fill: #233062;"/>
        <path d="M602.7,1393.9c-6.5-.2-7.4-9.1-1.1-11.1,10.2-4.8,21.8-5.9,32-10.6,1-.4,2.3-1.1,3.4-1.1,6.5-.4,8.8,8.5,3,11.6-1.1.6-2.1.8-3.2,1.3-11,4.6-22.6,7.1-34.1,9.9h0ZM602.7,1393.5c4.2-.8,7.9-3.2,11.8-4.9,6.8-3.3,13.9-5.7,21-8,.7-.2,2.3-.7,2.9-.9,3.1-1.4,2.1-6.4-1.5-6.6-.8-.1-2.1.4-2.8.5-11.3,2.8-21.2,9.3-32.6,11.8-4.7,1-3.9,8.1,1.1,8.1h0Z" style="fill: #233062;"/>
        <path d="M681.6,1363.3c-2.2,0-4.4-1.5-5.2-3.8-.8-2.2,0-5.1,2.4-6.6,9.1-6.1,19.7-8.5,29.1-13.7,2.1-.9,3.7-2.6,6.2-2.8,6.5-.4,8.8,8.5,3,11.6-9.4,5.2-19.2,9.7-29.5,13.1-2.1.6-3.9,2.1-6.1,2.1h0ZM681.6,1362.9c2.1-.1,3.9-1.7,5.7-2.6,5.4-3.5,10.9-7,16.7-9.8,3.8-1.9,7.7-3.7,11.6-5.4,1.3-.6,2.1-2.1,1.8-3.6-.4-2.6-3.5-3.9-6-2.4-7.1,2.7-13.4,6.7-19.9,10.6-3.7,2.1-7.7,3.9-11.7,5.3-1.6.5-2.8,2.4-2.5,4.3.2,2,2.2,3.6,4.2,3.6h0Z" style="fill: #233062;"/>
        <path d="M756.3,1323.5c-3.6.1-6.4-3.9-5.1-7.3.4-1.2,1.3-2.3,2.3-3,8.2-7.1,18.5-10.8,27.3-17,2-1.2,3.5-3.1,6-3.3,4.2-.5,7.8,4.5,5.9,8.5-.4,1.2-1.7,2.5-2.7,3.1-3.5,2.4-7.1,4.9-10.7,7.2-5.4,3.5-11.2,6.4-17,9.3-2,.9-3.7,2.6-6,2.5h0ZM756.3,1323.1c2.2,0,3.8-1.8,5.4-3,5-4.1,10-8.2,15.4-11.7,3.6-2.4,7.2-4.6,10.9-6.8,1.5-.8,2.2-2.1,2-3.7-.3-2.5-3.6-4-5.8-2.4-6.7,3.6-12.5,8.3-18.5,12.9-3.5,2.5-7.2,4.8-11,6.7-1.7.6-2.9,2.4-2.6,4.4.3,2,2.2,3.6,4.3,3.6h0Z" style="fill: #233062;"/>
        <path d="M825.8,1275.1c-2.2,0-4.4-1.5-5.2-3.8-.9-2.3.3-5.1,2.1-6.5,5.9-6.4,13.3-10.8,20.2-15.9,2.6-2,5-4,7.4-6.3.9-.8,2.2-1.3,3.5-1.4,2.6-.2,5.4,1.6,6.1,4.3,1,2.5-.7,5.9-2.7,7.2-3.2,2.8-6.5,5.7-9.8,8.4-5,4.1-10.4,7.6-15.9,11.1-1.8,1.1-3.5,3-5.8,2.9h0ZM825.8,1274.8c2.3,0,3.7-1.9,5.2-3.3,4.5-4.6,9-9.3,14-13.4,3.3-2.8,6.7-5.4,10.1-8,1.7-1.2,2.3-2.1,2.1-3.9-.3-2.5-3.6-4-5.8-2.4-2.6,1.8-5.2,3.9-7.6,6-6.4,5.8-12.2,12.2-19.6,16.8-4.3,2-3.2,8,1.6,8.1h0Z" style="fill: #233062;"/>
        <path d="M889.7,1219.5c-3.6.1-6.4-3.9-5.1-7.3,5-8.5,13.4-14.2,20.5-20.8,1.5-1.5,3.1-3,4.5-4.6,1.5-1.7,3.1-3.9,5.7-3.9,4.2-.5,7.8,4.5,5.9,8.5-.4,1.1-1.5,2.2-2.3,3-5.9,6.3-11.8,12.6-18.5,18-2.6,2-5,4-7.5,6.2-.9.7-2,1-3.2,1h0ZM889.7,1219.1c2.3,0,3.6-1.9,4.9-3.5,1.4-1.7,2.7-3.4,4-5.1,5.3-6.8,11.5-12.7,17.8-18.6,1.2-1,2.5-2.4,2.1-4.1-.3-2.5-3.6-4-5.8-2.4-2.4,1.9-4.7,4.4-6.9,6.6-5.7,6.4-10.9,13.4-17.8,18.7,0,0-1.2,1-1.2,1-3,2.3-1,7.5,2.8,7.3h0Z" style="fill: #233062;"/>
        <path d="M947.6,1157.7c-4.4.2-7.1-5.6-4.3-9,0,0,.9-1.4.9-1.4,6.4-10.2,15.8-17.6,22.8-27.3,4.7-4.1,11.9,1.3,9.3,7.1-6.7,10-14.6,18.9-23.3,27.2-1.4,1.6-3.1,3.5-5.5,3.3h0ZM947.6,1157.3c2.3,0,3.6-1.8,4.7-3.6,3.5-5.4,7-10.9,11.1-15.9,3.1-4,7-8.1,10.1-12,.4-.6.4-1.4.3-2.1-.3-2.5-3.6-4-5.8-2.4-5.4,5.1-9.3,11.7-13.6,17.7-3,4.4-6.9,8.1-10.5,11.9-1.7,2.6.5,6.4,3.7,6.3h0Z" style="fill: #233062;"/>
        <path d="M999.2,1090.5c-3.6.1-6.4-3.9-5.1-7.3,2.3-5,5-9.6,8.3-14,3.9-5.1,8.1-10.1,11.4-15.6,1.1-2.2,2.8-4.2,5.5-4.2,5.2-.4,8.2,6,5,10.1,0,0-.8,1.4-.8,1.4-5.5,9.3-11.6,18.1-18.7,26.3-1.2,1.7-3,3.6-5.4,3.5h0ZM999.2,1090.2c4.4-.1,5.4-6.3,7.5-9.4,3.8-7.7,8.8-14.7,13.7-21.8.4-.6,1.4-2,1.7-2.5,2-4-3.8-7.2-6.4-3.6-6.9,9-10.7,19.9-18.2,28.5-1.3,1.6-2.9,2.9-2.5,5.1.2,2,2.1,3.6,4.2,3.6h0Z" style="fill: #233062;"/>
        <path d="M1043.5,1018.4c-3.6.1-6.4-3.9-5.1-7.3,0,0,1.2-3.1,1.2-3.1,1.5-4.1,3.4-7.9,5.5-11.6,3.3-5.5,6.9-10.9,9.6-16.8.7-2.2,2.8-4.3,5.4-4.4,4.2-.5,7.8,4.5,5.9,8.5,0,0-1.4,3-1.4,3-4.4,9.8-9.6,19.3-15.8,28.1-.9,1.9-2.9,3.7-5.3,3.6h0ZM1043.5,1018.1c4.8-.2,4.9-6.3,6.7-9.7,3-8.1,7.1-15.6,11.2-23.1.6-1.2,2.3-3.4,1.9-4.9-.8-4-6.2-4-7.6-.1-5.4,9.3-8,20-14.2,28.9,0,0-1.7,2.7-1.7,2.7-1.8,2.6.5,6.4,3.7,6.3h0Z" style="fill: #233062;"/>
        <path d="M1079.5,941.8c-3.6.1-6.4-3.9-5.2-7.3,0,0,.8-3.1.8-3.1,1.8-8.5,6-16.1,9.3-24,1.9-3.9,2-10.3,7.5-10.5,3.3-.3,6.7,2.9,6.3,6.4,0,1.4-1.1,3.7-1.4,5-3.2,10.3-7.2,20.3-12.2,29.9-.8,2.1-2.9,3.8-5.2,3.7h0ZM1079.5,941.4c5-.2,4.6-6.4,5.8-10,2-8.4,5.1-16.3,8.3-24.3.2-.7,1.5-3.5,1.6-4.2.3-2-1.1-3.9-3.3-4.1-4.1-.5-4.8,5.2-6.4,8.9-1.3,4.1-2.3,8.3-3.5,12.4-1.5,5.1-3.8,10.1-6.2,14.9-1.7,2.7.4,6.4,3.7,6.4h0Z" style="fill: #233062;"/>
        <path d="M1105.2,861.1c-3.7.1-6.2-3.8-5.3-7.2,0,0,.4-3.2.4-3.2.8-8.6,3.8-16.7,5.8-25.1,1-4.2.5-10.6,6.4-10.9,3.3-.3,6.7,2.9,6.4,6.4,0,1.2-.5,3.7-.7,4.9-1.3,8.5-2.7,17-5.7,25.2,0,0-2.2,6.1-2.2,6.1-.7,2.3-2.9,3.8-5.2,3.8h0ZM1105.2,860.8c5.3-.2,4.3-6.4,5-10,.4-4.3,1.2-8.5,2-12.7,1-5.2,2.2-10.5,3.3-15.7.2-1,.4-1.7.3-2.6-.2-1.5-1.5-2.9-3.3-3-1.7-.2-3.6,1-4.1,2.8-1.4,6.2-1.8,12.8-2.7,19.1-.8,5.3-2.3,10.6-4.2,15.6-1.6,2.9.3,6.5,3.7,6.5h0Z" style="fill: #233062;"/>
        <path d="M1118.2,777.6c-2.9,0-5.5-2.5-5.4-5.5,0-1-.3-3.8-.4-4.8-.9-8.5.8-17.2,1.4-25.7.1-2.3-.2-4.2,0-6.6.5-2.4,2.6-4.4,5.3-4.6,2.6-.1,5.3,1.6,6.1,4.3.5,2.4.3,4.5.5,6.8.1,8.6,0,17.3-1.3,25.8-.6,4.1-.6,10.2-6.2,10.2h0ZM1118.2,777.2c2,0,4-1.6,4.2-3.6.1-1.7-.3-4.6-.4-6.4-.4-4.3-.4-8.6-.3-12.8.1-6.1.8-12.8.7-18.9-.2-1.5-1.6-2.9-3.3-3-1.7-.2-3.6,1-4.1,2.9-.3.9-.1,2-.2,3.1,0,5.4.4,10.7.6,16.1.1,5.4-.4,10.8-1.3,16.1,0,0-.2,1.6-.2,1.6-.6,2.6,1.6,5.1,4.2,5.1h0Z" style="fill: #233062;"/>
        <path d="M1115.6,693.1c-2.2,0-4.4-1.5-5.1-3.8l-1.6-6.3c-2.8-9.3-2.7-19.1-4.9-28.5-.3-1-.5-2.3-.3-3.4,1.2-5.8,9.7-6.1,11.4-.2,2.9,10.4,5.5,20.9,5.8,31.8,0,2,.5,4.6-.1,6.7-.7,2.3-2.9,3.8-5.2,3.7h0ZM1115.6,692.7c2.1,0,4-1.7,4.2-3.6.2-1.6-.9-4.4-1.3-6.1-2.6-9.6-4.4-21.6-6.3-31.4-.6-3.8-6.3-4.1-7.4-.2-.3.9-.1,1.8.1,2.9,1.1,5.3,2.9,10.4,4.3,15.6,1,4.2,1.7,8.5,1.8,12.8.4,3.8-1,9.8,4.5,10.1h0Z" style="fill: #233062;"/>
        <path d="M1094.9,611.1c-2.2,0-4.4-1.6-5.2-3.7-5.3-9.4-8.8-19.5-12.4-29.7-.8-2.1-2.3-4.1-1.7-6.5.5-2.4,2.7-4.4,5.3-4.5,5.5-.4,6.9,6,9,9.8,3.7,7.8,7.3,15.7,9.3,24.1,0,0,.8,3.1.8,3.1,1.2,3.4-1.6,7.5-5.2,7.3h0ZM1094.9,610.8c3.2,0,5.4-3.7,3.6-6.4,0,0-1.5-2.9-1.5-2.9-4-7.6-7-15.6-10.2-23.5,0,0-2.4-6-2.4-6-.6-1.9-1.5-3-3.5-3.3-2.8-.4-5.2,3-3.9,5.6,2.2,4.9,5,9.5,7.4,14.4,1.9,3.9,3.4,7.9,4.5,12.1l1.7,6.3c.4,2.1,2.2,3.6,4.3,3.7h0Z" style="fill: #233062;"/>
        <path d="M1059.1,534.5c-2.4.1-4.2-1.7-5.3-3.6-6.8-8.4-11.6-18-16.2-27.8,0,0-1.6-2.9-1.6-2.9-1.7-3.5.9-7.9,4.9-8.1,2.6-.3,4.9,1.6,6.1,3.8,3.5,5.4,6.9,10.9,10.1,16.5,2.7,4.7,5.1,9.5,7.1,14.6,1.3,3.5-1.6,7.5-5.2,7.4h0ZM1059.1,534.2c3.2,0,5.4-3.7,3.6-6.3,0,0-1.9-2.6-1.9-2.6-6.7-9.1-11.8-19.1-17-29.1-1.4-3-6.2-2.4-7,.9-.7,2.1.8,3.8,1.8,5.5,2.3,3.6,4.9,7.1,7.2,10.7,3.6,5.4,6.1,11.4,8.8,17.2.7,2,2.2,3.7,4.5,3.6h0Z" style="fill: #233062;"/>
        <path d="M1015.7,461.8c-2.4.1-4.2-1.7-5.3-3.5-7-8.3-12-17.8-16.7-27.5-1.1-1.9-2.6-4-2-6.4.5-2.4,2.6-4.4,5.3-4.5,2.6-.3,4.9,1.6,6.2,3.8,3.6,5.4,7.1,10.8,10.4,16.3,2.8,4.7,5.2,9.4,7.4,14.4,1.3,3.5-1.6,7.5-5.2,7.4h0ZM1015.7,461.5c3.2,0,5.4-3.7,3.6-6.3-3.3-4.2-6.4-8.6-9.2-13.1-3.9-6.2-7.2-12.9-11-19.1-3-2.9-7.9.8-6.1,4.6,4.9,8.3,11.6,15.5,15.4,24.4,2,3.2,2.6,9.3,7.3,9.5h0Z" style="fill: #233062;"/>
        <path d="M973.4,388.5c-2.3.1-4.3-1.7-5.2-3.6,0,0-3.5-5.4-3.5-5.4-4.9-7.2-7.4-15.5-10.5-23.6-.8-2.1-2.2-4.1-1.6-6.5,1-5.3,8.7-6.2,11-1.2,2.8,5.8,6,12.2,8.8,18,1.8,3.9,3.6,7.8,5,11.8l1.1,3.1c1.3,3.5-1.6,7.5-5.2,7.4h0ZM973.4,388.1c3.2,0,5.4-3.7,3.6-6.3-6.9-10-11.8-21.2-16-32.5-1.1-3.4-6.3-3.2-7.2.4-.3.9-.2,1.9.2,2.8,2.1,5,4.9,9.6,7.5,14.2,3.1,5.6,5.2,11.8,7.6,17.8.6,2.1,2.2,3.7,4.4,3.7h0Z" style="fill: #233062;"/>
        <path d="M941.4,310.2c-2.2,0-4.4-1.5-5.1-3.7l-2.4-6c-3.9-9-4.1-18.9-5.8-28.4-2.4-7.7,8.5-11.5,11.2-3.6,1,4.3,3.3,14.4,4.4,18.8.9,4.2,1.9,8.3,2.5,12.6l.5,3.2c1.1,3.4-1.6,7.4-5.3,7.3h0ZM941.4,309.9c3.2,0,5.4-3.6,3.7-6.4-4.8-10.8-7.1-22.7-8.7-34.3-.6-3.8-6.3-4.1-7.4-.2-.2,6.2,2.7,12.5,4.3,18.4,1.9,6.1,2.7,12.6,3.9,18.9.2,2,2.2,3.7,4.3,3.6h0Z" style="fill: #233062;"/>
        <path d="M928.2,226.9c-5.7,0-5.6-6.1-6.1-10.3-1.7-10.9,1.1-21.5,1.6-32.3,1.2-5.8,9.7-6.1,11.4-.2.4,1.1.2,2.5.2,3.7-.4,8.8-.3,20.1-1.2,28.8-.1,1-.4,3.8-.5,4.8,0,2.9-2.6,5.6-5.5,5.5h0ZM928.2,226.5c2.1,0,4-1.7,4.2-3.6.1-1.6-.5-4.6-.6-6.3-1.4-9.7-.6-19.4.4-29.1,0,0,.2-1.6.2-1.6.3-2-1.1-4-3.3-4.2-1.7-.2-3.6,1-4.1,2.8-1,6.2-.4,12.9-.1,19.2.2,5.3-.1,10.7-.7,16,0,1.1-.3,2.2-.2,3.1.2,2,2.2,3.6,4.2,3.6h0Z" style="fill: #233062;"/>
        <path d="M935.8,142.7c-2.2,0-4.4-1.5-5.2-3.8-.7-2,.1-4.7.2-6.7.7-8.7,4.1-16.7,6.8-24.9,1.5-4,1.4-10.3,7.1-10.7,3.3-.3,6.7,2.9,6.4,6.4-.1,1.4-.9,3.7-1.2,5-1.9,7.3-4.3,17.7-6.9,24.7-1.5,3.7-2,10-7.2,9.9h0ZM935.8,142.4c5.3-.2,4.2-6.4,4.9-10.1.4-4.3,1.3-8.5,2.3-12.7,1.3-5.6,3.3-11.2,5.1-16.7.6-4.5-6.1-5.8-7.4-1.3-3.8,11.2-4.2,23.2-8.6,34.3-1.5,2.9.3,6.5,3.7,6.5h0Z" style="fill: #233062;"/>
        <path d="M961.6,62.2c-3.6.1-6.4-3.9-5.1-7.3,0,0,1-3.1,1-3.1,2.4-8.4,7.4-15.6,11.7-23,1.8-2.9,2.6-6.1,4.9-8.6,3.1-2.8,8.5-1.2,9.6,2.9.9,2.5-.6,5.1-1.7,7.1,0,0-5.6,11.5-5.6,11.5-2.8,5.8-6.2,11.3-9.5,16.8-.8,2.1-3,3.7-5.2,3.6h0ZM961.6,61.8c2.2,0,3.8-1.6,4.3-3.7,0,0,2-6.2,2-6.2,1.3-4.1,3.1-8.1,4.9-12,2.3-4.8,5-9.5,7.6-14.1,1.7-3.2-2.4-6.7-5.4-4.5-7.2,9.1-9.1,21.6-15.5,31.3,0,0-1.6,2.8-1.6,2.8-1.7,2.6.5,6.4,3.7,6.3h0Z" style="fill: #233062;"/>
      </g>
    </g>
  </g>
  <g style="opacity: .8;">
    <g>
      <path d="M216.5,1802.3c-2.3,0-4.4-1.7-4.8-4.1-.4-2.6,1.4-5.1,4-5.6,11.8-1.9,23.8-4,35.6-6.3,2.6-.5,5.2,1.2,5.7,3.8.5,2.6-1.2,5.2-3.8,5.7-11.9,2.3-24,4.5-35.9,6.4-.3,0-.5,0-.8,0ZM299.7,1785.8c-2.2,0-4.2-1.5-4.7-3.7-.6-2.6,1-5.2,3.6-5.8,11.6-2.7,23.5-5.7,35.1-8.8,2.6-.7,5.2.9,5.9,3.4.7,2.6-.9,5.2-3.4,5.9-11.8,3.1-23.7,6.1-35.4,8.8-.4,0-.7.1-1.1.1ZM381.5,1763.7c-2.1,0-4-1.3-4.6-3.4-.8-2.6.7-5.3,3.2-6,11.5-3.5,23.1-7.2,34.5-11.1,2.5-.9,5.3.5,6.1,3,.9,2.5-.5,5.3-3,6.1-11.4,3.9-23.1,7.6-34.7,11.2-.5.1-.9.2-1.4.2ZM461.7,1736.3c-2,0-3.8-1.2-4.5-3.1-.9-2.5.3-5.3,2.8-6.2,11.2-4.3,22.5-8.7,33.6-13.3,2.5-1,5.3.2,6.3,2.6,1,2.5-.2,5.3-2.6,6.3-11.2,4.6-22.6,9.1-33.9,13.4-.6.2-1.1.3-1.7.3ZM539.8,1703.5c-1.8,0-3.6-1-4.4-2.8-1.1-2.4,0-5.3,2.4-6.4,10.9-5,21.9-10.3,32.6-15.6,2.4-1.2,5.3-.2,6.5,2.2,1.2,2.4.2,5.3-2.2,6.5-10.8,5.4-21.9,10.6-32.9,15.7-.7.3-1.3.4-2,.4ZM615.5,1665.5c-1.7,0-3.4-.9-4.2-2.5-1.3-2.3-.4-5.3,1.9-6.6,10.6-5.8,21.1-11.8,31.4-17.9,2.3-1.4,5.3-.6,6.6,1.7,1.4,2.3.6,5.3-1.7,6.6-10.4,6.1-21.1,12.2-31.7,18-.7.4-1.5.6-2.3.6ZM688.3,1622.1c-1.6,0-3.1-.8-4.1-2.2-1.5-2.2-.8-5.2,1.4-6.7,10.1-6.5,20.2-13.3,30-20.1,2.2-1.5,5.2-1,6.7,1.2,1.5,2.2,1,5.2-1.2,6.7-9.9,6.9-20.1,13.7-30.3,20.3-.8.5-1.7.8-2.6.8ZM757.6,1573.5c-1.5,0-2.9-.7-3.9-1.9-1.6-2.1-1.2-5.2.9-6.8,9.6-7.3,19.2-14.8,28.4-22.3,2.1-1.7,5.1-1.4,6.8.7,1.7,2.1,1.4,5.1-.7,6.8-9.3,7.6-19,15.2-28.7,22.5-.9.7-1.9,1-2.9,1ZM823,1519.7c-1.3,0-2.7-.5-3.6-1.6-1.8-2-1.6-5.1.4-6.8,9-8,17.9-16.2,26.6-24.5,1.9-1.8,5-1.8,6.8.2,1.8,1.9,1.8,5-.2,6.8-8.7,8.3-17.7,16.6-26.8,24.7-.9.8-2.1,1.2-3.2,1.2ZM883.9,1460.9c-1.2,0-2.4-.4-3.3-1.3-1.9-1.8-2-4.9-.1-6.8,8.3-8.7,16.6-17.6,24.5-26.5,1.8-2,4.8-2.2,6.8-.4,2,1.8,2.2,4.8.4,6.8-8,9-16.4,18-24.8,26.8-1,1-2.2,1.5-3.5,1.5ZM940,1397.5c-1.1,0-2.2-.4-3.1-1.1-2.1-1.7-2.4-4.7-.7-6.8,6.1-7.5,12.2-15.1,18-22.8l4.3-5.6c1.6-2.1,4.7-2.5,6.8-.9,2.1,1.6,2.5,4.7.9,6.8l-4.4,5.6c-5.9,7.7-12,15.4-18.2,23-1,1.2-2.4,1.8-3.8,1.8ZM991.7,1330.4c-1,0-2-.3-2.9-1-2.1-1.6-2.6-4.6-1-6.8,7.5-10.1,14.5-19.7,21.3-29.3,1.5-2.2,4.6-2.7,6.7-1.2,2.2,1.5,2.7,4.6,1.2,6.7-6.8,9.6-13.8,19.3-21.4,29.5-.9,1.3-2.4,2-3.9,2ZM1040.4,1261c-.9,0-1.8-.3-2.7-.8-2.2-1.5-2.8-4.5-1.4-6.7,6.7-10.2,13.2-20.4,19.5-30.5,1.4-2.3,4.4-3,6.7-1.6,2.3,1.4,3,4.4,1.6,6.7-6.3,10.2-12.9,20.5-19.6,30.7-.9,1.4-2.5,2.2-4,2.2ZM1084.5,1188.7c-.8,0-1.6-.2-2.4-.6-2.3-1.3-3.2-4.3-1.9-6.6,5.9-10.6,11.7-21.3,17.1-31.8,1.2-2.4,4.1-3.3,6.5-2.1,2.4,1.2,3.3,4.1,2.1,6.5-5.5,10.6-11.3,21.4-17.3,32.1-.9,1.6-2.5,2.5-4.2,2.5ZM1122.9,1113.2c-.7,0-1.3-.1-2-.4-2.4-1.1-3.5-4-2.4-6.4,5-11.1,9.8-22.2,14.2-33.2,1-2.5,3.8-3.7,6.3-2.7,2.5,1,3.7,3.8,2.7,6.3-4.5,11.1-9.3,22.4-14.4,33.6-.8,1.8-2.6,2.8-4.4,2.8ZM1154,1034.4c-.5,0-1,0-1.5-.3-2.5-.8-3.9-3.6-3.1-6.1,3.8-11.5,7.4-23.1,10.6-34.5.7-2.6,3.4-4.1,6-3.4,2.6.7,4.1,3.4,3.4,6-3.2,11.5-6.9,23.3-10.8,34.9-.7,2-2.6,3.3-4.6,3.3ZM1176.1,952.7c-.3,0-.6,0-1,0-2.6-.5-4.3-3.1-3.8-5.7,2.4-11.8,4.5-23.8,6.2-35.5.4-2.6,2.9-4.5,5.5-4.1,2.6.4,4.5,2.8,4.1,5.5-1.7,11.9-3.8,24-6.3,36-.5,2.3-2.5,3.9-4.7,3.9ZM1187.2,868.8c0,0-.2,0-.3,0-2.7-.2-4.7-2.5-4.5-5.1.6-10.8,1-21.7,1-32.4v-3.6c0-2.7,2.1-4.9,4.8-4.9h0c2.7,0,4.8,2.1,4.8,4.8v3.6c0,10.9-.3,22-1,32.9-.2,2.6-2.3,4.6-4.8,4.6ZM1185.6,784.2c-2.5,0-4.6-1.9-4.8-4.4-1.2-11.9-2.8-23.9-4.8-35.6-.5-2.6,1.3-5.1,4-5.6,2.6-.5,5.1,1.3,5.6,4,2,12,3.7,24.2,4.9,36.3.3,2.7-1.7,5-4.3,5.3-.2,0-.3,0-.5,0ZM1170.4,701c-2.1,0-4.1-1.4-4.7-3.6-3.1-11.4-6.6-22.7-10.6-34.3-.9-2.5.5-5.3,3-6.2,2.5-.9,5.3.5,6.2,3,4.1,11.9,7.6,23.3,10.8,35,.7,2.6-.8,5.2-3.4,5.9-.4.1-.9.2-1.3.2ZM1142.2,621.3c-1.9,0-3.7-1.1-4.5-3-4.8-11.5-9.9-22.7-14.6-33.1-1.1-2.4,0-5.3,2.4-6.4,2.4-1.1,5.3,0,6.4,2.4,4.7,10.5,9.8,21.8,14.6,33.3,1,2.5-.1,5.3-2.6,6.3-.6.3-1.3.4-1.9.4ZM1107.9,543.9c-1.9,0-3.7-1.1-4.5-2.9-5.3-12.4-9.8-23.4-13.6-33.9-.9-2.5.3-5.3,2.9-6.2,2.5-.9,5.3.3,6.2,2.9,3.8,10.3,8.2,21.2,13.5,33.4,1.1,2.5,0,5.3-2.5,6.4-.6.3-1.3.4-1.9.4ZM1079.7,464.2c-2.2,0-4.1-1.4-4.7-3.6-3.1-11.9-5.7-23.9-7.7-35.9-.4-2.6,1.3-5.1,4-5.6,2.6-.5,5.1,1.3,5.6,4,2,11.7,4.5,23.4,7.5,35,.7,2.6-.9,5.2-3.5,5.9-.4.1-.8.2-1.2.2ZM1066.7,380.7c-2.5,0-4.7-2-4.8-4.6-.5-8.7-.7-17.6-.7-26.6s0-2.6,0-3.9c0-2,0-4.1,0-6.1,0-2.7,2.3-4.8,4.9-4.7,2.7,0,4.8,2.3,4.7,4.9,0,2,0,4,0,6,0,1.3,0,2.6,0,3.9,0,8.8.2,17.6.7,26,.1,2.7-1.9,5-4.6,5.1,0,0-.2,0-.3,0ZM1069.4,296.2c-.2,0-.4,0-.6,0-2.7-.3-4.6-2.7-4.3-5.4,1.4-12,3.2-24.2,5.4-36.2.5-2.6,3-4.4,5.6-3.9,2.6.5,4.4,3,3.9,5.6-2.2,11.8-4,23.8-5.3,35.6-.3,2.5-2.4,4.3-4.8,4.3ZM1085.6,213.2c-.4,0-.9,0-1.3-.2-2.6-.7-4.1-3.4-3.4-6,3.2-11.6,6.9-23.3,10.9-34.9.9-2.5,3.6-3.9,6.2-3,2.5.9,3.9,3.6,3,6.2-3.9,11.4-7.6,23-10.7,34.4-.6,2.1-2.5,3.5-4.7,3.5ZM1114.1,133.4c-.6,0-1.3-.1-1.9-.4-2.4-1.1-3.6-3.9-2.5-6.4,4.8-11,10-22.1,15.6-33.1,1.2-2.4,4.1-3.3,6.5-2.1,2.4,1.2,3.3,4.1,2.1,6.5-5.4,10.8-10.6,21.8-15.3,32.6-.8,1.8-2.6,2.9-4.4,2.9ZM1152.8,58.1c-.8,0-1.7-.2-2.5-.7-2.3-1.4-3.1-4.3-1.7-6.6,6.1-10.3,12.6-20.8,19.3-31,1.5-2.2,4.5-2.9,6.7-1.4,2.2,1.5,2.9,4.5,1.4,6.7-6.6,10.1-13.1,20.4-19.1,30.6-.9,1.5-2.5,2.4-4.2,2.4Z" style="fill: #209fda;"/>
      <g>
        <path d="M216.5,1802.5c-5.3,0-7.5-7.4-2.7-10.3,8.1-3.3,17.2-3,25.7-4.3,4.4-.6,8.4-1.7,12.8-2.6,6.5-.4,8.8,8.5,3,11.6-1.1.6-2.4.8-3.6,1-11.6,2.9-23.5,3.2-35.2,4.5h0ZM216.5,1802.2c10.5-2,20.7-6,31.4-7.2,1.4-.3,4.7-.5,5.9-1,3.1-1.4,2.1-6.4-1.4-6.6-12.7.6-24.8,5.9-37.5,6.9-4.2,1.5-3,7.9,1.7,7.9h0Z" style="fill: #233062;"/>
        <path d="M299.7,1786c-5.3,0-7.5-7.4-2.7-10.3,8-3.6,16.9-4.1,25.3-5.9,4.4-.8,8.2-2.5,12.7-3.4,6.5-.4,8.8,8.5,3,11.6-1.5.7-2.3.8-3.4,1.1-11.3,3.6-23.2,5-34.9,6.9h0ZM299.7,1785.6c10.3-2.6,20.2-7.4,30.8-9.3,1.4-.4,4.8-.9,5.9-1.4,3.1-1.4,2.1-6.4-1.4-6.6-1.8,0-4.2.7-6.1,1-10.4,2.1-20.3,7-30.8,8.4-4.2,1.5-3,7.9,1.7,7.9h0Z" style="fill: #233062;"/>
        <path d="M381.5,1763.9c-2.2,0-4.4-1.5-5.1-3.8-1.3-4.1,1.8-6.9,5.5-8,7-2.9,14.5-4.1,21.7-6.1,3.6-1.1,7.2-2.3,10.6-3.7,3.1-1.3,7,.5,8,3.9,1.1,3.4-1.3,7.2-4.8,8,0,0-1.5.5-1.5.5-11.1,4.4-22.7,6.5-34.3,9.1h0ZM381.5,1763.5c4.2-.8,8-3,12-4.7,6.8-3.1,14-5.4,21.2-7.5.5-.1,1.9-.5,2.3-.7,3.6-1,2.9-6.5-.9-6.8-.8-.1-2.1.3-2.9.5-11.5,2.6-21.9,9-33.4,11.2-4.2,1.5-3,7.9,1.7,7.9h0Z" style="fill: #233062;"/>
        <path d="M461.7,1736.5c-5.3,0-7.6-7.4-2.8-10.3,7.8-4.4,16-6.2,24.2-9.1,4.2-1.3,8-3.9,12.3-4.9,6.5-.4,8.8,8.5,3,11.6-1.1.6-2.1.9-3.1,1.4-10.8,5-22.2,8.1-33.7,11.2h0ZM461.7,1736.1c4.1-.8,7.8-3.5,11.6-5.3,7.4-4,15.6-7,23.6-9.9,3.1-1.4,2.1-6.4-1.4-6.6-.8-.1-1.7.2-2.8.6-11.3,3.3-21.3,10.5-32.7,13.4-4.2,1.6-2.9,7.9,1.7,7.9h0Z" style="fill: #233062;"/>
        <path d="M539.8,1703.7c-2.2,0-4.4-1.5-5.2-3.8-.8-2.2,0-5.1,2.4-6.6,9.1-6.1,19.8-8.3,29.3-13.4,2.1-.9,3.7-2.6,6.2-2.8,6.5-.4,8.8,8.5,3,11.6-11.4,6.1-23.4,11.3-35.8,14.9h0ZM539.8,1703.4c2.1-.1,3.9-1.6,5.7-2.6,5.5-3.4,11-6.9,16.8-9.6,3.8-1.9,7.8-3.6,11.7-5.3,1.3-.6,2.1-2.1,1.8-3.6-.4-2.7-3.5-3.9-6-2.4-7.1,2.7-13.5,6.6-20,10.4-3.8,2-7.8,3.8-11.7,5.2-1.6.5-2.9,2.4-2.5,4.3.2,2,2.2,3.6,4.2,3.6h0Z" style="fill: #233062;"/>
        <path d="M615.5,1665.7c-2.2,0-4.4-1.5-5.2-3.8-.8-2.2,0-5.2,2.4-6.6,8.6-6.6,19.1-9.7,28.2-15.4,2.1-1.1,3.6-2.9,6.1-3,2.6-.2,5.4,1.6,6.1,4.3.9,2.7-.6,6-3,7.3-3.7,2.2-7.3,4.5-11.1,6.6-6.5,3.8-13.6,6.4-20.4,9.7-.9.5-2,1-3.1.9h0ZM615.5,1665.3c2.1,0,3.8-1.8,5.6-2.8,5.2-3.8,10.5-7.6,16.1-10.8,3.7-2.2,7.5-4.1,11.3-6.1,1.4-.7,2.1-2.1,1.9-3.6-.4-2.6-3.6-3.9-5.9-2.4-6.9,3.2-13,7.6-19.3,11.8-3.6,2.3-7.4,4.4-11.4,6-1.6.5-2.9,2.4-2.5,4.3.2,2,2.2,3.6,4.2,3.6h0Z" style="fill: #233062;"/>
        <path d="M688.3,1622.3c-2.2,0-4.4-1.5-5.2-3.8-.9-2.3.3-5.2,2.3-6.5,6.5-5.8,14.3-9.4,21.7-13.9,2.7-1.7,5.4-3.6,7.9-5.5.9-.8,2.2-1.3,3.4-1.4,4.2-.5,7.8,4.5,5.9,8.5-.4,1.2-1.7,2.5-2.6,3.1-3.5,2.5-7,5-10.6,7.4-5.3,3.6-11.1,6.6-16.9,9.6-2,.9-3.7,2.7-5.9,2.6h0ZM688.3,1622c2.1,0,3.7-1.8,5.4-3,4.9-4.2,9.9-8.4,15.2-11.9,3.5-2.4,7.2-4.7,10.8-7,1.5-.8,2.2-2.1,2-3.7-.3-2.5-3.6-4-5.8-2.4-6.6,3.7-12.4,8.5-18.3,13.2-3.5,2.6-7.1,4.9-10.9,6.9-.9.4-1.5.9-2,1.7-1.7,2.6.5,6.4,3.7,6.3h0Z" style="fill: #233062;"/>
        <path d="M757.6,1573.7c-3.6.1-6.4-3.9-5.1-7.3.3-.9.9-1.7,1.6-2.4,3.2-3.2,6.7-6.2,10.5-8.8,5.3-3.6,10.9-7,15.7-11.2,1.8-1.4,3.4-3.5,5.9-3.5,2.6-.2,5.4,1.6,6.1,4.3,1,2.5-.7,5.9-2.7,7.2-3.3,2.8-6.6,5.5-10,8.1-5.1,4-10.6,7.4-16.1,10.8-1.9,1.1-3.5,2.9-5.8,2.8h0ZM757.6,1573.3c2.2,0,3.6-1.8,5.2-3.2,4.6-4.5,9.2-9.1,14.3-13.1,3.3-2.7,6.8-5.2,10.2-7.8,1.7-1.1,2.2-2.1,2.1-3.8-.2-1.5-1.5-2.9-3.3-3-2-.2-3.6,1.5-5.1,2.5-5.3,3.7-9.9,8.3-14.6,12.6-3.6,3.2-7.5,5.9-11.6,8.5-3,2.3-1,7.5,2.8,7.3h0Z" style="fill: #233062;"/>
        <path d="M823,1519.9c-3.6.1-6.4-3.9-5.1-7.3,6.4-10.2,17.8-15.8,26-24.4,0,0,2.3-2.3,2.3-2.3,3.1-2.8,8.5-1.3,9.6,2.9.9,2.6-.5,5.5-2.6,7.2-3.1,3-6.1,6-9.3,8.9-4.7,4.4-10,8.2-15.2,12-1.7,1.3-3.4,3.2-5.7,3h0ZM823,1519.5c2.3,0,3.6-1.9,5-3.4,4.2-4.9,8.5-9.8,13.2-14.1,3.5-3.3,7.2-6.4,10.7-9.6.8-.8,1.1-1.9,1-3-.2-1.5-1.5-2.9-3.3-3-2-.2-3.4,1.4-4.9,2.7-8.3,6.9-14.4,16-23.3,22.2-4.2,2.2-3.2,8,1.6,8.2h0Z" style="fill: #233062;"/>
        <path d="M883.9,1461.1c-3.6.1-6.4-3.9-5.1-7.3,5.9-10.5,16.5-17.1,24.1-26.2.7-.7,1.4-1.8,2.2-2.5,5.8-4.8,13.2,3.2,8.2,8.9-7.3,8.6-15.1,16.8-23.8,24-1.6,1.4-3.2,3.4-5.6,3.2h0ZM883.9,1460.8c2.3,0,3.6-1.8,4.9-3.5,1.3-1.7,2.6-3.5,3.9-5.2,5.1-7,11.1-13.1,17.1-19.2,1.2-1.1,2.5-2.4,2.1-4.2-.3-2.5-3.6-4-5.8-2.4-.7.5-1.5,1.4-2.3,2.1-7.7,7.5-13.1,17.1-21.5,24,0,0-1.2,1.1-1.2,1.1-3,2.4-1,7.4,2.8,7.3h0Z" style="fill: #233062;"/>
        <path d="M940,1397.7c-4.4.1-7.1-5.5-4.3-9,0,0,.9-1.4.9-1.4,6.3-10.2,15.7-17.8,22.4-27.6,4.7-4.1,11.9,1.3,9.3,7.1-6.5,10.1-14.3,19.1-22.9,27.5-1.4,1.6-3.1,3.5-5.5,3.3h0ZM940,1397.3c2.3,0,3.6-1.8,4.7-3.6,1.2-1.8,2.3-3.7,3.4-5.5,4.9-8.1,11.5-15.3,17.3-22.8,1.1-2.1-.4-5-2.9-5.2-2.1-.2-3.3,1.3-4.6,2.9-4.2,4.9-7.6,10.4-11.2,15.7-2.9,4.4-6.8,8.3-10.3,12.1-1.7,2.6.5,6.4,3.7,6.3h0Z" style="fill: #233062;"/>
        <path d="M991.7,1330.6c-3.6.1-6.4-3.9-5.1-7.4,2.5-5,5.4-9.4,8.9-13.6,4.1-4.9,8.5-9.7,12.1-15.1,1.2-2.1,2.8-4.1,5.5-4.1,5.2-.4,8.3,6.1,4.9,10.2,0,0-.9,1.3-.9,1.3-5.9,9-12.5,17.6-19.9,25.4-1.3,1.7-3,3.6-5.4,3.4h0ZM991.7,1330.2c2.3,0,3.6-1.7,4.6-3.6,1.1-1.8,2.1-3.8,3.2-5.6,4.2-7.5,9.4-14.3,14.7-21.1.3-.4,1.2-1.5,1.4-1.9,2.4-3.2-1.9-7.3-5.2-5-8.1,8.5-12.2,20.2-20.5,28.6-1.4,1.6-2.9,2.8-2.6,5,.2,2,2.1,3.7,4.2,3.6h0Z" style="fill: #233062;"/>
        <path d="M1040.4,1261.2c-3.6.1-6.4-3.9-5.1-7.4,2.3-5,4.9-9.6,8.1-14.1,3.8-5.2,7.9-10.2,11.1-15.8,1.1-2.2,2.8-4.2,5.5-4.2,4.2-.5,7.8,4.5,5.9,8.5-2.7,4.8-5.5,9.3-8.4,14-3.4,5.5-7.6,10.5-11.6,15.5-1.1,1.8-3,3.6-5.3,3.5h0ZM1040.4,1260.8c4.5-.1,5.4-6.3,7.4-9.5,3.7-7.8,8.6-14.9,13.4-22,.4-.6,1.4-2,1.7-2.5,2-4-3.8-7.2-6.4-3.6-6.7,9.1-10.4,20.1-17.8,28.8-1.3,1.7-2.9,3-2.5,5.2.2,2,2.1,3.7,4.2,3.6h0Z" style="fill: #233062;"/>
        <path d="M1084.5,1188.9c-3.6.1-6.4-3.9-5.1-7.4,0,0,1.2-3.1,1.2-3.1,1.6-4,3.5-7.8,5.8-11.5,3.4-5.4,7.2-10.7,9.9-16.6.8-2.1,2.8-4.3,5.4-4.3,4.2-.5,7.8,4.5,5.9,8.5-2.4,4.9-4.8,9.7-7.4,14.4-3,5.7-6.8,11-10.4,16.3-1,1.9-2.9,3.7-5.3,3.6h0ZM1084.5,1188.5c4.8-.2,5-6.3,6.9-9.7,3.2-8,7.4-15.4,11.8-22.9,0,0,1.6-2.7,1.6-2.7,2.1-5.1-5.2-7.4-7.2-2.3-5.6,9.2-8.4,19.9-14.8,28.6,0,0-1.8,2.6-1.8,2.6-1.8,2.6.5,6.4,3.7,6.3h0Z" style="fill: #233062;"/>
        <path d="M1122.9,1113.3c-3.6.1-6.4-3.9-5.1-7.4,0,0,1-3.1,1-3.1,2.3-8.4,6.9-15.7,10.6-23.4,2.1-3.7,2.4-10,7.8-10.3,4.2-.5,7.7,4.5,5.9,8.4,0,0-1.2,3-1.2,3-3.8,10.1-8.3,19.9-13.8,29.1-.8,2.1-3,3.7-5.2,3.6h0ZM1122.9,1113c4.9-.2,4.7-6.4,6.2-9.9,2.4-8.3,6-16,9.7-23.8.5-1.3,2.1-3.7,1.7-5.1-.6-3.9-6.3-4.1-7.5-.1-5,10.7-7.3,22.6-13.8,32.6-1.7,2.6.5,6.4,3.7,6.3h0Z" style="fill: #233062;"/>
        <path d="M1154,1034.6c-3.6.1-6.3-3.9-5.2-7.3,0,0,.6-3.2.6-3.2,1.7-10.7,7.3-20.1,10-30.6,1.2-5.8,9.7-6.1,11.4-.2.8,2.2-.5,5-1,7.1-1.1,4.1-2.3,8.3-3.6,12.4-1.9,6.2-4.5,12.1-7.1,18.1-.7,2.2-2.9,3.8-5.2,3.7h0ZM1154,1034.2c5.1-.2,4.5-6.4,5.5-10,1.5-8.5,4.3-16.6,7.1-24.7.2-.5,1.2-3.4,1.3-3.8.7-2.1-.8-4.5-3.2-4.7-1.7-.2-3.6,1-4.1,2.9-2.2,6.1-3.4,12.4-4.8,18.7-1.3,5.2-3.2,10.3-5.4,15.2-1.7,2.8.4,6.5,3.7,6.4h0Z" style="fill: #233062;"/>
        <path d="M1176.1,952.8c-2.2,0-4.4-1.5-5.2-3.8-.6-2,0-4.7,0-6.7.3-8.7,3.1-16.9,5-25.2,1-4.2.5-10.5,6.4-10.9,3.3-.4,6.7,2.9,6.3,6.4,0,1.2-.5,3.7-.7,4.9-1.2,8.5-2.4,17.1-4.9,25.3,0,0-1.8,6.2-1.8,6.2-.7,2.3-2.9,3.8-5.2,3.8h0ZM1176.1,952.5c5.4-.2,4.2-6.3,4.6-10.1.5-9.7,2.6-19.1,4.6-28.5,2.1-5.4-5-8.1-7.1-2.8-2.4,11.5-1.9,23.7-5.9,34.9-1.4,3,.3,6.5,3.8,6.5h0Z" style="fill: #233062;"/>
        <path d="M1187.2,869c-2.9,0-5.5-2.6-5.4-5.5,0,0-.1-1.6-.1-1.6-1.3-9.7.2-19.3,1.1-28.9.2-2.3-.1-4.2.2-6.6.5-2.4,2.7-4.4,5.3-4.5,2.6-.2,5.4,1.6,6.1,4.3.4,1.5.2,2.5.3,3.5.1,5.4,0,10.8-.1,16.1-.2,4.3-.4,8.6-1.1,12.9-.6,4.1-.5,10.2-6.2,10.2h0ZM1187.2,868.6c2,0,4-1.6,4.2-3.6.1-1.7-.3-4.6-.4-6.4-.8-8.6-.3-17.1.3-25.7,0-3.4,1.5-8.5-3.1-9.1-1.7-.2-3.6,1-4.1,2.8-.4,1.9,0,4.3-.2,6.3.2,8.6,1.2,17.2-.2,25.8-.1,1.7-.8,4.6-.7,6.3.3,2,2.2,3.6,4.3,3.6h0Z" style="fill: #233062;"/>
        <path d="M1185.6,784.4c-2.2,0-4.4-1.5-5.1-3.8l-1.4-6.4c-1-4.2-1.6-8.4-1.9-12.7-.4-5.3-.5-10.7-1.5-16-.6-2.1-.3-5,1.6-6.5,3.1-2.8,8.5-1.2,9.6,2.9,2.6,11.7,4.6,23.4,4.2,35.3,0,0,0,1.6,0,1.6,0,3-2.6,5.6-5.5,5.5h0ZM1185.6,784c2.7,0,4.8-2.5,4.2-5,0,0-.3-1.6-.3-1.6-2.3-9.4-3.4-19-4.6-28.5,0,0-.8-6.3-.8-6.3-.2-1.5-1.5-2.9-3.3-3-3.1-.2-5,2.8-4,5.8.8,5.3,2.3,10.5,3.4,15.8.8,4.2,1.2,8.5,1.2,12.9.2,3.9-1.3,9.8,4.3,10h0Z" style="fill: #233062;"/>
        <path d="M1170.4,701.2c-2.2,0-4.4-1.5-5.1-3.7-4.4-9.9-6.9-20.3-9.5-30.7-.6-2.2-1.9-4.2-1.3-6.5.5-2.4,2.7-4.4,5.3-4.5,5.7-.4,6.8,6.2,8.4,10.2,3.4,9.1,6.3,18.4,7.6,28,1,3.4-1.6,7.4-5.3,7.3h0ZM1170.4,700.8c3.3,0,5.3-3.6,3.7-6.4,0,0-1.2-3-1.2-3-4.1-9.9-6.7-20.4-9.8-30.5-.7-4-6.3-4.2-7.4-.3-.6,2,.7,4,1.3,5.9,3.2,8,7,15.8,8.2,24.4,0,0,1.1,6.4,1.1,6.4.2,2,2.2,3.6,4.3,3.6h0Z" style="fill: #233062;"/>
        <path d="M1142.2,621.5c-4.9,0-6-6-8.4-9.3-4.5-7.4-6.8-15.8-9.8-23.8-.8-2.1-2.2-4.1-1.6-6.5.7-3.9,5.8-5.9,9-3.5,1.1.7,1.8,1.9,2.4,3,4.7,9.7,9.5,19.3,12.7,29.6,0,0,1,3.1,1,3.1,1.3,3.4-1.6,7.5-5.2,7.3h0ZM1142.2,621.1c3.2,0,5.4-3.7,3.6-6.3-6.5-10.5-10.8-22-15.3-33.4-1.4-3-6.2-2.4-7,.9-.3.9-.2,1.9.2,2.8,2.1,5,4.9,9.6,7.4,14.3,3,5.7,4.9,12,6.8,18.1.5,2.1,2.2,3.6,4.3,3.7h0Z" style="fill: #233062;"/>
        <path d="M1107.9,544.1c-5,0-5.9-6-8.2-9.4-4.3-7.5-6.3-16-9.1-24.1-.7-2.1-2.1-4.1-1.5-6.5.5-2.4,2.7-4.4,5.3-4.5,5.6-.4,6.8,6.1,8.7,10,3.9,8.8,7.6,17.7,10,27.1,1.3,3.5-1.6,7.5-5.2,7.3h0ZM1107.9,543.7c3.2,0,5.4-3.7,3.6-6.3-6.1-10.7-10.1-22.4-14.3-33.9-1.4-3-6.2-2.4-7,.9-.6,2,.8,3.9,1.4,5.8,1.7,3.9,3.8,7.7,5.7,11.6,1.8,3.9,3.3,7.9,4.5,12.1,1.4,3.5,1.1,9.7,6.1,9.9h0Z" style="fill: #233062;"/>
        <path d="M1079.7,464.3c-2.2,0-4.4-1.5-5.1-3.7l-2.2-6.1c-3.2-8.1-3.7-16.8-4.8-25.3-.2-2-1.1-4.5-.7-6.6,1.2-5.8,9.8-6,11.4-.2,1,4.3,3.1,14.4,4.2,18.9.8,4.2,1.7,8.4,2.2,12.6.1,2,1,4.7.3,6.7-.8,2.3-2.9,3.8-5.2,3.7h0ZM1079.7,464c3.3,0,5.3-3.5,3.7-6.5-3.7-9-5.7-18.6-7.1-28.2-1-3.3.4-8.7-4.2-9.3-3.1-.2-5,2.8-4,5.8.8,5.3,2.5,10.4,4,15.6,1.8,6.2,2.5,12.6,3.4,19,.2,2,2.2,3.6,4.2,3.6h0Z" style="fill: #233062;"/>
        <path d="M1066.7,380.9c-5.6,0-5.6-6.1-6.1-10.2-1.3-8.6-.5-17.2,0-25.8.2-2.3,0-4.2.2-6.6.5-2.4,2.7-4.4,5.3-4.5,3.3-.4,6.6,2.9,6.4,6.3,0,1,0,3.8.1,4.8.3,9.6.9,19.3-.2,28.9,0,0-.1,1.6-.1,1.6,0,3-2.6,5.6-5.5,5.5h0ZM1066.7,380.5c2,0,4-1.6,4.2-3.6.1-1.6-.6-4.5-.7-6.2-1.4-10.1-1.4-20.4-.8-30.6.6-4.7-6-6-7.4-1.4-.8,6.3.3,12.8.9,19.1.3,4.3.4,8.5,0,12.8,0,1.8-.5,4.7-.4,6.4.2,2,2.2,3.6,4.2,3.6h0Z" style="fill: #233062;"/>
        <path d="M1069.4,296.4c-2.9,0-5.5-2.6-5.4-5.5,0-1,0-3.8,0-4.9-.1-8.7,2.5-17,4.3-25.4,1-4.2.5-10.6,6.4-10.9,3.3-.3,6.7,2.9,6.4,6.4,0,1.3-.5,3.7-.7,4.9-1.2,8.5-2.3,17-4.3,25.3,0,0-1.5,6.4-1.5,6.4-.7,2.3-2.9,3.8-5.2,3.8h0ZM1069.4,296c5.5-.3,4.1-6.2,4.3-10,0-8.7,1.6-17.2,3.4-25.6.2-1.4,1.2-4.5,1-5.7-.2-1.5-1.5-2.9-3.3-3-1.7-.2-3.6,1-4.1,2.8-1.5,6.2-1.8,12.7-2.3,19.1-.5,5.3-1.6,10.6-2.8,15.8-1.2,3.1.2,6.5,3.9,6.6h0Z" style="fill: #233062;"/>
        <path d="M1085.6,213.3c-3.6.2-6.3-3.9-5.2-7.2,0,0,.6-3.2.6-3.2,1.4-8.6,5.3-16.4,8.2-24.5,1.7-4,1.5-10.3,7.2-10.6,4.2-.4,7.6,4.4,6,8.4,0,0-.9,3.1-.9,3.1-2.7,10.4-6.2,20.5-10.7,30.3-.8,2.2-2.9,3.8-5.2,3.7h0ZM1085.6,213c5.1-.2,4.4-6.4,5.5-10,1.6-8.5,4.4-16.7,7.2-24.8.2-.7,1.3-3.6,1.4-4.2.3-1.9-1.1-4-3.3-4.1-1.7-.2-3.6.9-4.1,2.9-2.2,6.1-3.4,12.4-4.9,18.7-1.3,5.2-3.3,10.3-5.5,15.1-1.7,2.9.4,6.4,3.7,6.5h0Z" style="fill: #233062;"/>
        <path d="M1114.1,133.6c-3.6.1-6.4-3.9-5.1-7.3,0,0,1.1-3.1,1.1-3.1,1.4-4.1,3.1-8,5.1-11.8,3.2-5.6,6.6-11.1,9-17.1.7-2.2,2.8-4.3,5.3-4.4,4.2-.5,7.8,4.5,5.9,8.5,0,0-1.3,3-1.3,3-4.1,9.9-8.9,19.5-14.8,28.6-.9,2-3,3.7-5.2,3.6h0ZM1114.1,133.3c4.9-.2,4.8-6.3,6.4-9.8,2.7-8.2,6.6-15.9,10.5-23.6.5-1.3,2.2-3.5,1.8-5-.6-3.9-6.2-4.1-7.5-.1-5,9.5-7.3,20.2-13.2,29.3,0,0-1.7,2.8-1.7,2.8-1.7,2.6.5,6.4,3.7,6.3h0Z" style="fill: #233062;"/>
        <path d="M1152.8,58.3c-3.6.1-6.4-3.9-5.1-7.4,2.2-5,4.8-9.7,7.9-14.1,3.8-5.2,7.8-10.3,11-15.9,1-2.2,2.8-4.2,5.4-4.2,4.7-.4,8.1,5.4,5.4,9.4-.2.4-1,1.6-1.2,2.1-5.2,9.4-11.2,18.3-18,26.6-1.1,1.8-3,3.7-5.3,3.5h0ZM1152.8,57.9c4.5-.1,5.3-6.3,7.3-9.5,3.7-7.8,8.4-15,13.2-22.2.3-.4,1.1-1.6,1.3-2,2.7-4-3.2-8-6.1-4.1-6.6,9.2-10.2,20.1-17.5,28.9-1.2,1.7-2.9,3-2.5,5.2.2,2,2.1,3.7,4.2,3.6h0Z" style="fill: #233062;"/>
      </g>
    </g>
  </g>
  <g style="opacity: .8;">
    <g>
      <path d="M782.8,1993c-1.1,0-2.3-.4-3.2-1.2-2-1.8-2.2-4.8-.4-6.8,8.1-9.1,16.2-18.2,24-27.2,1.8-2,4.8-2.2,6.8-.5,2,1.8,2.2,4.8.5,6.8-7.9,9-16,18.2-24.1,27.2-1,1.1-2.3,1.6-3.6,1.6ZM838.3,1929.1c-1.1,0-2.2-.4-3.1-1.1-2-1.7-2.3-4.8-.6-6.8,7.8-9.3,15.6-18.6,23.2-27.9,1.7-2.1,4.8-2.4,6.8-.7,2.1,1.7,2.4,4.7.7,6.8-7.6,9.2-15.4,18.6-23.3,27.9-1,1.1-2.3,1.7-3.7,1.7ZM891.9,1863.5c-1.1,0-2.1-.3-3-1-2.1-1.7-2.5-4.7-.8-6.8,7.5-9.5,15-19.1,22.3-28.6,1.6-2.1,4.7-2.5,6.8-.9,2.1,1.6,2.5,4.7.9,6.8-7.3,9.5-14.8,19.1-22.4,28.7-1,1.2-2.4,1.8-3.8,1.8ZM943.5,1796.3c-1,0-2-.3-2.9-1-2.1-1.6-2.6-4.6-1-6.8,7.1-9.6,14.3-19.5,21.4-29.3,1.6-2.2,4.6-2.7,6.8-1.1,2.2,1.6,2.7,4.6,1.1,6.8-7.1,9.8-14.3,19.7-21.4,29.4-.9,1.3-2.4,2-3.9,2ZM992.7,1727.4c-.9,0-1.9-.3-2.7-.9-2.2-1.5-2.8-4.5-1.2-6.7,6.8-9.9,13.7-19.9,20.4-30,1.5-2.2,4.5-2.8,6.7-1.3,2.2,1.5,2.8,4.5,1.3,6.7-6.7,10.1-13.6,20.2-20.4,30.1-.9,1.4-2.5,2.1-4,2.1ZM1039.7,1656.9c-.9,0-1.8-.2-2.6-.8-2.2-1.4-2.9-4.4-1.5-6.7,6.5-10.1,13-20.4,19.3-30.7,1.4-2.3,4.4-3,6.7-1.6,2.3,1.4,3,4.4,1.6,6.7-6.3,10.3-12.9,20.6-19.4,30.8-.9,1.4-2.5,2.2-4.1,2.2ZM1084.1,1584.8c-.8,0-1.7-.2-2.5-.7-2.3-1.4-3.1-4.3-1.7-6.6,6.1-10.3,12.2-20.8,18.2-31.3,1.3-2.3,4.3-3.1,6.6-1.8,2.3,1.3,3.1,4.3,1.8,6.6-6,10.5-12.1,21.1-18.3,31.5-.9,1.5-2.5,2.4-4.2,2.4ZM1125.8,1511c-.8,0-1.6-.2-2.3-.6-2.4-1.3-3.2-4.2-2-6.6,4.2-7.7,8.3-15.4,12.2-22.9,1.7-3.2,3.3-6.3,4.8-9.1,1.2-2.4,4.2-3.3,6.5-2,2.4,1.2,3.3,4.2,2,6.5-1.5,2.9-3.1,5.9-4.8,9.1-4,7.5-8.1,15.2-12.3,23-.9,1.6-2.5,2.5-4.3,2.5ZM1164.5,1435.7c-.7,0-1.4-.1-2.1-.5-2.4-1.1-3.4-4-2.3-6.4,5.1-10.8,10.2-21.9,15-32.9,1.1-2.5,3.9-3.6,6.4-2.5,2.5,1.1,3.6,3.9,2.5,6.4-4.8,11.1-9.9,22.3-15.1,33.2-.8,1.7-2.6,2.8-4.4,2.8ZM1197.9,1357.9c-.6,0-1.2-.1-1.7-.3-2.5-1-3.7-3.8-2.8-6.3,4.3-11.2,8.5-22.6,12.5-33.9.9-2.5,3.6-3.9,6.2-3,2.5.9,3.9,3.6,3,6.2-4,11.4-8.2,22.9-12.6,34.2-.7,1.9-2.6,3.1-4.5,3.1ZM1225.4,1277.8c-.5,0-.9,0-1.4-.2-2.6-.8-4-3.5-3.2-6,3.5-11.5,6.8-23.2,9.8-34.8.7-2.6,3.3-4.1,5.9-3.4,2.6.7,4.1,3.3,3.4,5.9-3.1,11.6-6.4,23.5-9.9,35.1-.6,2.1-2.6,3.4-4.6,3.4ZM1246.6,1195.8c-.3,0-.7,0-1-.1-2.6-.6-4.3-3.1-3.7-5.8,2.5-11.8,4.9-23.7,7-35.4.5-2.6,3-4.4,5.6-3.9,2.6.5,4.4,3,3.9,5.6-2.1,11.9-4.5,23.9-7.1,35.8-.5,2.3-2.5,3.8-4.7,3.8ZM1261,1112.3c-.2,0-.4,0-.6,0-2.7-.3-4.5-2.8-4.2-5.4,1.5-12,2.9-24.1,3.9-35.9.2-2.7,2.6-4.6,5.3-4.4,2.7.2,4.6,2.6,4.4,5.3-1.1,12-2.4,24.2-4,36.3-.3,2.4-2.4,4.2-4.8,4.2ZM1268.1,1028c0,0-.1,0-.2,0-2.7-.1-4.8-2.3-4.7-5,.4-11.3.6-22.7.6-33.9v-2.2c0-2.7,2.1-4.8,4.8-4.9h0c2.7,0,4.8,2.2,4.8,4.8v2.2c0,11.3-.2,22.8-.6,34.3,0,2.6-2.2,4.7-4.8,4.7ZM1267.2,943.3c-2.5,0-4.7-2-4.8-4.6-.7-12-1.6-24.1-2.8-36-.3-2.7,1.7-5,4.3-5.3,2.7-.3,5,1.7,5.3,4.3,1.2,12,2.2,24.2,2.9,36.4.2,2.7-1.9,5-4.6,5.1,0,0-.2,0-.3,0ZM1258.2,859.1c-2.3,0-4.4-1.7-4.8-4.1-.5-3.2-1-6.5-1.6-9.8-1.5-8.6-3.1-17.2-4.8-25.7-.5-2.6,1.2-5.2,3.8-5.7,2.6-.5,5.2,1.2,5.7,3.8,1.8,8.6,3.4,17.4,4.9,26,.6,3.3,1.1,6.6,1.6,9.9.4,2.6-1.4,5.1-4,5.5-.3,0-.5,0-.8,0ZM1240.6,776.3c-2.1,0-4.1-1.4-4.7-3.6-3.1-11.4-6.4-23.1-10.1-34.6-.8-2.5.6-5.3,3.2-6.1,2.6-.8,5.3.6,6.1,3.2,3.7,11.7,7.1,23.5,10.2,35,.7,2.6-.8,5.2-3.4,5.9-.4.1-.8.2-1.3.2ZM1214.7,695.8c-2,0-3.8-1.2-4.5-3.2-3.8-10.1-7.9-20.9-13-33.8-1-2.5.2-5.3,2.7-6.3,2.5-1,5.3.2,6.3,2.7,5.1,13,9.3,23.8,13.1,34,.9,2.5-.4,5.3-2.9,6.2-.6.2-1.1.3-1.7.3ZM1183.8,617c-1.9,0-3.8-1.2-4.5-3.1-5.2-13.3-9.3-24.1-12.8-34.1-.9-2.5.4-5.3,3-6.2,2.5-.9,5.3.4,6.2,3,3.5,9.9,7.5,20.6,12.7,33.8,1,2.5-.2,5.3-2.7,6.3-.6.2-1.2.3-1.8.3ZM1157.2,536.7c-2.2,0-4.2-1.5-4.7-3.7-3-12.4-5.1-24.3-6.6-36.2-.3-2.7,1.6-5.1,4.2-5.4,2.6-.3,5.1,1.5,5.4,4.2,1.4,11.6,3.5,23.1,6.4,35.1.6,2.6-1,5.2-3.6,5.8-.4,0-.8.1-1.1.1ZM1148.5,452.8c0,0-.1,0-.2,0-2.7,0-4.8-2.3-4.7-5,.4-11.9,1.5-24.2,3.3-36.7.4-2.6,2.8-4.5,5.5-4.1,2.6.4,4.5,2.8,4.1,5.5-1.7,12.1-2.8,24.1-3.2,35.6,0,2.6-2.2,4.7-4.8,4.7ZM1161.6,369.3c-.4,0-.9,0-1.3-.2-2.6-.7-4.1-3.4-3.4-5.9,3.2-11.7,7-23.4,11.3-34.9.9-2.5,3.7-3.8,6.2-2.8,2.5.9,3.8,3.7,2.8,6.2-4.2,11.2-7.9,22.7-11,34.1-.6,2.2-2.5,3.6-4.7,3.6ZM1192.3,290.5c-.7,0-1.5-.2-2.2-.5-2.4-1.2-3.3-4.1-2.1-6.5,5.4-10.7,11.5-21.5,17.9-32,1.4-2.3,4.4-3,6.7-1.6,2.3,1.4,3,4.4,1.6,6.7-6.3,10.3-12.2,20.8-17.5,31.3-.9,1.7-2.6,2.6-4.3,2.6ZM1237.2,218.9c-1,0-2-.3-2.9-1-2.1-1.6-2.6-4.6-1-6.8,7.2-9.6,14.9-19.2,22.9-28.6,1.7-2,4.8-2.3,6.8-.5,2,1.7,2.3,4.8.5,6.8-7.9,9.2-15.4,18.7-22.5,28.1-1,1.3-2.4,1.9-3.9,1.9ZM1292.7,154.9c-1.2,0-2.5-.5-3.4-1.4-1.9-1.9-1.9-4.9,0-6.8,8.4-8.5,17.3-17,26.4-25.3,2-1.8,5-1.7,6.8.3,1.8,2,1.7,5-.3,6.8-9,8.2-17.8,16.6-26,24.9-.9,1-2.2,1.4-3.4,1.4Z" style="fill: #76bf43;"/>
      <g>
        <path d="M782.8,1993.2c-4.4.2-7.1-5.6-4.2-9,6.9-10.5,17.2-17.8,24.8-27.6,5.8-4.8,13.2,3.2,8.2,8.8-7.1,8.8-14.7,17.2-23.3,24.6-1.5,1.5-3.2,3.4-5.5,3.2h0ZM782.8,1992.8c2.3,0,3.6-1.8,4.8-3.5,1.3-1.7,2.5-3.5,3.7-5.3,4.9-7.1,10.8-13.4,16.7-19.6,1.1-1.1,2.5-2.5,2.1-4.2-.3-2.5-3.6-4-5.8-2.4-.7.5-1.5,1.4-2.2,2.1-7.5,7.7-12.7,17.4-20.9,24.5,0,0-1.2,1.1-1.2,1.1-3,2.4-1,7.4,2.8,7.3h0Z" style="fill: #233062;"/>
        <path d="M838.3,1929.3c-3.6.1-6.4-3.9-5.1-7.3,5.6-10.7,15.6-17.9,22.7-27.4,1.3-1.8,3-4,5.6-4,4.2-.4,7.8,4.5,5.9,8.5-.2.6-.7,1.4-1.1,1.7-5.6,7.2-11.2,14.4-17.9,20.7-1.5,1.5-3.1,3-4.7,4.5-1.4,1.5-3.1,3.5-5.5,3.3h0ZM838.3,1928.9c2.3,0,3.6-1.8,4.7-3.6,1.2-1.8,2.4-3.6,3.6-5.4,5.1-8.1,11.8-15,17.8-22.3,1.1-2.1-.4-5-2.9-5.2-2.1-.2-3.3,1.3-4.6,2.8-7.3,7.9-12.2,17.8-20.2,25.1,0,0-1.2,1.1-1.2,1.1-3,2.4-1.1,7.4,2.8,7.4h0Z" style="fill: #233062;"/>
        <path d="M891.9,1863.7c-3.6.1-6.4-3.9-5.1-7.3,2.5-4.9,5.8-9.2,9.3-13.4,5.3-5.5,10.1-11.2,14.7-17.3,4.7-4.1,11.9,1.3,9.3,7.1-6.6,10.1-14.2,19.1-22.7,27.6-1.4,1.6-3.1,3.5-5.5,3.3h0ZM891.9,1863.3c2.3,0,3.6-1.8,4.7-3.6,1.2-1.8,2.3-3.7,3.4-5.5,4.8-8.2,11.4-15.5,17.2-22.8,1.1-2.1-.4-5-2.9-5.2-2.1-.2-3.3,1.3-4.6,2.8-7,8.2-11.6,18.2-19.4,25.7-.7.8-1.6,1.5-2,2.2-1.7,2.6.5,6.4,3.7,6.3h0Z" style="fill: #233062;"/>
        <path d="M943.5,1796.5c-3.6.1-6.4-3.9-5.1-7.3,2.5-5,5.5-9.3,8.9-13.6,4.2-4.9,8.6-9.7,12.1-15.1,1.2-2.1,2.8-4.1,5.5-4.1,4.2-.5,7.7,4.5,5.9,8.5-2.9,4.9-6,9-9.3,13.5-3.8,5.2-8.2,10-12.6,14.8-1.3,1.6-3,3.6-5.4,3.4h0ZM943.5,1796.1c2.3,0,3.6-1.7,4.6-3.6,3.2-5.6,6.4-11.3,10.2-16.4,2.9-4.2,6.5-8.5,9.5-12.6.3-.6.5-1.4.3-2.1-.3-2.5-3.6-4-5.8-2.4-8.1,8.5-12.3,20.1-20.6,28.5-1.4,1.6-2.9,2.8-2.6,5,.2,2,2.1,3.7,4.2,3.6h0Z" style="fill: #233062;"/>
        <path d="M992.7,1727.6c-3.6.1-6.4-3.9-5.1-7.3,2.4-5,5.2-9.5,8.5-13.9,4-5.1,8.2-9.9,11.6-15.5,1.1-2.1,2.9-4.1,5.5-4.2,5.3-.3,8.3,5.9,4.9,10.1,0,0-.9,1.4-.9,1.4-5.6,9.2-11.9,17.9-19.1,25.9-1.2,1.7-3,3.6-5.4,3.4h0ZM992.7,1727.2c2.3,0,3.6-1.7,4.6-3.6,1.1-1.9,2-3.8,3-5.7,4.2-8.1,9.6-15.5,15-22.9,3.7-4-2.3-8.9-5.7-4.7-7,8.9-11,19.8-18.6,28.2-1.3,1.6-2.9,2.9-2.5,5.1.2,2,2.1,3.6,4.2,3.6h0Z" style="fill: #233062;"/>
        <path d="M1039.7,1657.1c-3.6.1-6.4-3.9-5.1-7.3,2.2-5,4.8-9.7,8-14.1,3.8-5.2,7.9-10.2,11-15.9,1-2.2,2.8-4.2,5.5-4.2,4.2-.5,7.8,4.5,5.9,8.5-2.7,4.8-5.4,9.4-8.4,14-3.4,5.5-7.5,10.5-11.5,15.6-1.1,1.8-3,3.6-5.3,3.5h0ZM1039.7,1656.7c4.5-.2,5.3-6.3,7.4-9.5,3.7-7.8,8.5-14.9,13.3-22.1.4-.6,1.4-2,1.7-2.5,2-4-3.8-7.2-6.4-3.6-6.7,9.1-10.3,20.1-17.6,28.8-1.2,1.7-2.8,3-2.5,5.2.2,2,2.1,3.7,4.2,3.6h0Z" style="fill: #233062;"/>
        <path d="M1084.1,1584.9c-3.6.1-6.4-3.9-5.1-7.3,2.1-5.1,4.5-9.8,7.5-14.4,3.6-5.3,7.5-10.5,10.5-16.3.8-2.1,2.8-4.3,5.4-4.3,5.3-.3,8.1,5.8,5.1,10.1,0,0-.8,1.4-.8,1.4-5,9.6-10.6,18.7-17.2,27.2-1.1,1.8-3,3.7-5.3,3.5h0ZM1084.1,1584.6c4.6-.2,5.2-6.3,7.1-9.6,3.4-7.9,7.9-15.2,12.5-22.5,0,0,1.6-2.6,1.6-2.6,2-5.1-5.1-7.4-7.3-2.3-5.8,9-9,19.6-15.7,28.1,0,0-1.9,2.5-1.9,2.5-1.7,2.6.5,6.4,3.7,6.3h0Z" style="fill: #233062;"/>
        <path d="M1125.8,1511.2c-3.6.1-6.4-3.9-5.1-7.3,0,0,1.2-3.1,1.2-3.1,1.6-4,3.5-7.8,5.7-11.5,3.4-5.5,7.1-10.8,9.8-16.6.7-2.1,2.8-4.3,5.4-4.3,4.2-.4,7.8,4.5,5.9,8.5-2.4,4.9-4.6,9.7-7.3,14.5-3,5.7-6.7,11-10.4,16.4-1,1.9-2.9,3.7-5.3,3.6h0ZM1125.8,1510.9c4.8-.2,5-6.3,6.8-9.7,3.1-8,7.4-15.5,11.6-23,0,0,1.5-2.7,1.5-2.7,2.1-5.1-5.2-7.4-7.2-2.3-5.4,9.3-8.3,19.9-14.7,28.7,0,0-1.8,2.6-1.8,2.6-1.8,2.6.5,6.4,3.7,6.3h0Z" style="fill: #233062;"/>
        <path d="M1164.5,1435.9c-3.6.1-6.4-3.9-5.1-7.3,0,0,1-3.1,1-3.1,2.5-8.3,7.2-15.6,11.2-23.2,2.2-3.7,2.6-10,8-10.3,4.2-.4,7.7,4.5,5.9,8.5,0,0-1.2,3-1.2,3-4,10-8.7,19.7-14.4,28.8-.8,2-3,3.7-5.2,3.6h0ZM1164.5,1435.6c4.9-.2,4.8-6.4,6.4-9.8,2.6-8.2,6.4-15.9,10.2-23.6.5-1.3,2.2-3.6,1.8-5-.6-3.9-6.2-4.1-7.5-.1-5.3,10.6-7.8,22.4-14.5,32.3-1.7,2.6.5,6.4,3.7,6.3h0Z" style="fill: #233062;"/>
        <path d="M1197.9,1358.1c-3.6.1-6.4-3.9-5.2-7.3,0,0,.8-3.1.8-3.1,1.9-8.5,6-16.1,9.4-24,1.9-3.8,2-10.2,7.5-10.5,4.2-.5,7.7,4.5,5.9,8.4,0,0-1,3.1-1,3.1-3.2,10.3-7.2,20.3-12.3,29.8-.8,2.1-2.9,3.8-5.2,3.7h0ZM1197.9,1357.7c5-.2,4.6-6.4,5.8-10,2-8.4,5.2-16.3,8.4-24.3,0,0,1.2-3,1.2-3,1.2-2.3-.2-5-2.9-5.3-4.1-.5-4.8,5.2-6.4,8.9-1.4,4.1-2.3,8.3-3.6,12.4-1.5,5.1-3.8,10.1-6.2,14.9-1.8,2.7.5,6.5,3.7,6.4h0Z" style="fill: #233062;"/>
        <path d="M1225.4,1278c-3.6.1-6.3-3.9-5.2-7.3,0,0,.5-3.2.5-3.2,1.5-10.8,6.8-20.3,9.3-30.8,1.2-5.8,9.7-6.1,11.4-.2.4,1.3.3,2.7-.1,3.9-1.3,5.2-2.6,10.5-4.1,15.6-1.7,6.2-4.2,12.2-6.6,18.2-.7,2.2-2.9,3.8-5.2,3.7h0ZM1225.4,1277.6c5.2-.2,4.4-6.4,5.3-10,1.3-8.5,3.9-16.7,6.5-24.9.2-.9,1.2-3.5,1.3-4.4.3-1.9-1.1-4-3.3-4.1-1.7-.2-3.6,1-4.1,2.8-2.1,6.1-3.1,12.5-4.4,18.8-1.1,5.2-3,10.4-5.1,15.3-1.7,2.9.4,6.4,3.7,6.4h0Z" style="fill: #233062;"/>
        <path d="M1246.6,1196c-2.2,0-4.4-1.5-5.2-3.8-.7-2,0-4.7.1-6.7.5-8.7,3.5-16.8,5.5-25.1,1.1-4.2.7-10.5,6.5-10.9,4.3-.3,7.3,4.1,6.1,8.1-1.6,9.5-3,19.2-6,28.4-1.4,3.8-1.9,10.1-7.1,9.9h0ZM1246.6,1195.6c5.3-.2,4.3-6.4,4.8-10.1.3-4.3,1-8.5,1.8-12.8,1-5.2,2.3-10.5,3.4-15.7.3-1.2.5-1.8.3-2.5-.6-3.8-6.3-4.1-7.4-.2-.5,2-.9,4.2-1.3,6.3-1.3,9.6-2,19.3-5.4,28.5-1.5,2.9.3,6.5,3.8,6.5h0Z" style="fill: #233062;"/>
        <path d="M1261,1112.5c-2.9.1-5.5-2.6-5.4-5.5,0-1,0-3.8,0-4.9-.2-8.7,2-17,3.4-25.5.7-4.4,0-10.5,6-11,3.4-.4,6.7,2.9,6.4,6.4,0,1-.3,3.8-.4,4.8-.7,8.6-1.4,17.2-3.3,25.6,0,0-1.4,6.4-1.4,6.4-.7,2.3-2.9,3.8-5.2,3.8h0ZM1261,1112.2c5.5-.3,4.1-6.2,4.3-10.1,0-8.6,1.1-17.1,2.3-25.6.1-1.3.9-4.7.7-5.9-.6-3.8-6.3-4.1-7.4-.2-.4,1.9-.6,4.2-.8,6.3-.4,9.7-.4,19.4-3,28.8-1.2,3.1.2,6.5,3.9,6.6h0Z" style="fill: #233062;"/>
        <path d="M1268.1,1028.1c-2.9.1-5.5-2.6-5.4-5.5,0,0-.1-1.6-.1-1.6-1.7-12.2.9-23.4.9-35.5,1.2-5.8,9.7-6.1,11.4-.2.4,1.5.2,2.5.3,3.6.1,9.7.4,19.4-1,29-.6,4.2-.4,10.2-6.1,10.3h0ZM1268.1,1027.8c2,0,4-1.6,4.2-3.6.1-1.6-.4-4.6-.5-6.3-.5-4.3-.5-8.6-.5-12.9,0-5.3.4-10.7.6-16.1.3-2.8,0-5.5-3.2-5.9-1.7-.2-3.6,1-4.1,2.8-.3.9-.1,2-.2,3.1-.2,9.7,1.6,19.4,0,29-.1,1.7-.8,4.6-.6,6.3.2,2,2.1,3.6,4.2,3.6h0Z" style="fill: #233062;"/>
        <path d="M1267.2,943.5c-5.5,0-5.6-6.2-6.4-10.2-1.9-8.5-1.2-17.1-1.5-25.7,0-2.2-.6-4.5-.3-6.6.5-2.4,2.7-4.4,5.3-4.5,3.3-.4,6.4,2.8,6.4,6.1.1,1,.4,3.8.5,4.8,1.1,9.6,2,19.3,1.4,29,0,0,0,1.6,0,1.6,0,3-2.6,5.6-5.5,5.5h0ZM1267.2,943.1c3.6-.1,5-3.5,3.9-6.7-2.5-11.5-2.9-23.3-3.4-35-.6-3.8-6.3-4.1-7.4-.2-.4,6.3,1.4,12.7,2.2,19,.6,4.3.8,8.6.6,12.9,0,3.9-1.4,9.8,4.1,10h0Z" style="fill: #233062;"/>
        <path d="M1258.2,859.3c-2.2,0-4.4-1.5-5.1-3.8l-1.7-6.3c-1.1-4.2-2.1-8.3-2.6-12.6-.7-5.3-1-10.7-2-16-.2-1-.5-2.3-.2-3.4,1.2-5.8,9.7-6.1,11.4-.2,2.4,10.5,5.1,21,5.6,31.8,0,2,.6,4.7,0,6.7-.8,2.3-2.9,3.8-5.2,3.7h0ZM1258.2,858.9c3.5,0,5.1-3.5,3.8-6.6-2.8-9.3-4.6-18.8-6-28.3-1-3.3.3-8.7-4.2-9.4-3-.3-5,2.8-4,5.8.9,5.3,2.6,10.4,3.9,15.7,1,4.2,1.8,8.4,1.9,12.8.4,3.8-.7,9.8,4.6,10h0Z" style="fill: #233062;"/>
        <path d="M1240.6,776.5c-5.1,0-5.8-6.1-7.6-9.7-3.5-7.9-4.7-16.5-6.7-24.8-.4-2.2-1.7-4.2-1.2-6.6.5-2.4,2.7-4.4,5.3-4.5,5.8-.4,6.7,6.2,8.1,10.4,3,9.2,5.9,18.5,7.3,28.1,1.1,3.4-1.7,7.4-5.3,7.2h0ZM1240.6,776.1c3.3,0,5.4-3.6,3.7-6.5-2.2-4.9-4-10-5.6-15.1-1.8-6.2-3.4-12.4-4.9-18.6-.3-1.7-1.6-2.9-3.3-3.1-2.9-.3-5.2,2.9-3.9,5.7,1.4,5.2,3.6,10.1,5.4,15.2,2.2,6.1,3.3,12.5,4.4,18.8.2,2,2.2,3.6,4.3,3.6h0Z" style="fill: #233062;"/>
        <path d="M1214.7,695.9c-5,0-5.9-6-8.1-9.5-4.2-7.6-6-16.1-8.7-24.2-.7-2.1-2-4.2-1.5-6.5.5-2.4,2.7-4.4,5.3-4.5,5.6-.4,6.8,6.1,8.6,10,3.8,8.9,7.4,17.9,9.6,27.4,1.2,3.4-1.6,7.5-5.2,7.3h0ZM1214.7,695.6c3.2,0,5.4-3.7,3.6-6.4-4.7-8.5-8.1-17.6-11.2-26.7-1.2-2.7-1.5-6-3.2-8.3-1.9-1.9-5.6-1-6.3,1.8-.6,2,.8,3.9,1.4,5.8,1.7,4,3.7,7.8,5.5,11.7,1.7,3.9,3.2,8,4.3,12.2,1.3,3.5,1,9.7,6,9.9h0Z" style="fill: #233062;"/>
        <path d="M1183.8,617.2c-5,0-5.9-6-8.1-9.5-4.1-7.6-5.9-16.1-8.5-24.3-.6-2.1-2-4.1-1.5-6.5.5-2.4,2.7-4.4,5.3-4.5,5.6-.4,6.8,6.1,8.6,10.1,3.7,8.9,7.2,17.9,9.3,27.4,1.2,3.4-1.6,7.5-5.2,7.3h0ZM1183.8,616.8c3.2,0,5.4-3.7,3.6-6.4-5.9-10.8-9.6-22.6-13.5-34.2-1.4-3-6.2-2.4-7,.9-.3.9-.2,1.8.2,2.8,1.8,5.1,4.3,9.8,6.5,14.7,1.7,3.9,3.1,8,4.2,12.2,1.3,3.5.9,9.8,5.9,9.9h0Z" style="fill: #233062;"/>
        <path d="M1157.2,536.9c-2.2,0-4.4-1.5-5.1-3.8l-2.1-6.1c-3.4-9.2-3.2-19.1-4.4-28.7-2.2-7.8,8.5-11.4,11.3-3.6.8,4.3,2.6,14.6,3.5,19.1.7,4.2,1.5,8.4,1.9,12.7,0,2,.9,4.7.2,6.7-.7,2.3-2.9,3.8-5.2,3.7h0ZM1157.2,536.5c3.4,0,5.3-3.6,3.7-6.5-4.3-11.1-5.9-22.9-6.9-34.6-.6-3.8-6.3-4.1-7.4-.2-.3,6.2,2.1,12.6,3.4,18.7,1.6,6.2,2.1,12.7,2.9,19,.2,2,2.1,3.6,4.2,3.6h0Z" style="fill: #233062;"/>
        <path d="M1148.5,453c-2.9.1-5.5-2.6-5.4-5.5-.1-1-.2-3.8-.3-4.9-.7-8.7,1.3-17.2,2.8-25.7.7-4.3.2-10.6,6.2-11,3.3-.3,6.7,2.9,6.3,6.4,0,1-.4,3.8-.5,4.9-.8,7.5-1.5,18.1-2.9,25.5-.7,4.1-.6,10.2-6.3,10.2h0ZM1148.5,452.6c2,0,4-1.6,4.2-3.6.1-1.6-.3-4.6-.3-6.4-.3-4.3-.1-8.7.2-13,.4-5.3,1.3-10.7,2.2-16,0-.7.4-1.9.3-2.6-.6-3.8-6.3-4.1-7.4-.2-2.1,10.5-.6,21.4-2.6,31.9-.2,1.7-.9,4.6-.8,6.3.2,2,2.1,3.6,4.2,3.6h0Z" style="fill: #233062;"/>
        <path d="M1161.6,369.5c-3.6.2-6.3-3.9-5.2-7.2,0,0,.5-3.2.5-3.2.7-4.3,1.9-8.4,3.4-12.5,2.4-6,5.2-11.8,7.2-18,.5-2.2,2.7-4.4,5.3-4.5,4.2-.4,7.7,4.4,5.9,8.4-2.8,8.3-6,19.2-9.5,27.3-1.8,3.6-2.5,9.8-7.6,9.7h0ZM1161.6,369.1c2.1,0,4-1.7,4.2-3.6l1.1-6.4c.7-4.3,1.9-8.4,3.1-12.6,1.3-4.1,2.8-8.1,4.4-12.1.4-1.3,1.9-3.9,1.6-5.2-.2-1.5-1.5-2.9-3.3-3-4.1-.5-4.9,5.2-6.4,8.9-2.5,8.2-3.8,16.7-7.3,24.6,0,0-1.2,3-1.2,3-1.7,2.9.4,6.4,3.7,6.5h0Z" style="fill: #233062;"/>
        <path d="M1192.3,290.7c-3.6.1-6.4-3.9-5.1-7.3,0,0,1.2-3.1,1.2-3.1,1.5-4.1,3.5-7.9,5.8-11.6,3.5-5.4,7.4-10.6,10.5-16.3,1-2.2,2.8-4.2,5.4-4.3,4.2-.5,7.7,4.5,5.9,8.5-2.6,4.8-5.2,9.4-7.9,14.2-3.1,5.6-6.9,10.9-10.4,16.3-1,1.9-2.9,3.7-5.3,3.6h0ZM1192.3,290.3c2.2,0,3.8-1.6,4.4-3.7,0,0,2.4-6,2.4-6,3.5-9,8.7-17.2,13.9-25.3,1.7-3.2-2.4-6.7-5.4-4.5-.4.2-.7.6-1,.9-4,5.7-6.9,12.1-9.8,18.4-1.9,3.8-4,7.6-6.4,11.1l-1.7,2.7c-1.8,2.6.5,6.4,3.7,6.3h0Z" style="fill: #233062;"/>
        <path d="M1237.2,219c-3.6.1-6.4-3.9-5.1-7.3.5-1.3,1.1-2,1.7-3,6-10.4,15.6-17.9,22.7-27.4,5.8-4.7,13.1,3.2,8.3,8.8-6.6,9.1-13.8,17.8-22,25.6-1.4,1.6-3.1,3.5-5.5,3.3h0ZM1237.2,218.7c2.3,0,3.6-1.8,4.7-3.6,3.5-5.5,6.9-11,11-16,3-3.8,6.2-7.5,9.3-11.2.8-.9,1.2-1.9,1-3.1-.3-2.5-3.6-4-5.8-2.4-5.4,5-9.5,11.6-13.7,17.7-2.9,4.3-6.7,8.3-10.2,12.2-1.7,2.6.5,6.4,3.7,6.3h0Z" style="fill: #233062;"/>
        <path d="M1292.7,155.1c-3.6.1-6.4-3.9-5.1-7.3,5.1-8.4,13.8-13.9,21-20.4,1.6-1.4,3.1-2.9,4.6-4.5,1.6-1.6,3.2-3.8,5.7-3.8,2.6-.2,5.4,1.6,6.1,4.3.9,2.7-.5,5.5-2.6,7.2-7.4,7.8-15.3,15-24,21.4-1.7,1.3-3.3,3.2-5.7,3.1h0ZM1292.7,154.8c1,0,2.1-.4,2.8-1.1,2.2-2.3,4.3-4.9,6.3-7.3,5.5-6.7,11.9-12.5,18.3-18.2,1.2-1,2.4-2.3,2.1-4-.2-1.5-1.5-2.9-3.3-3-.9,0-1.8.1-2.5.7-2.5,1.9-4.8,4.3-7.1,6.5-5.9,6.2-11.2,13.1-18.2,18.2,0,0-1.3,1-1.3,1-3,2.3-1,7.4,2.8,7.3h0Z" style="fill: #233062;"/>
      </g>
    </g>
  </g>
  <g style="opacity: .2;">
    <g>
      <path d="M275.5,1324.3c-6.9-.9-13.9-1.9-20.9-3.1-2.6-.4-4.4-2.9-4-5.5.4-2.6,2.8-4.5,5.5-4,11.9,1.9,23.7,3.5,35.8,4.9h0c2.6.4,4.5,2.7,4.2,5.4-.3,2.7-2.7,4.6-5.4,4.3-5.1-.6-10.2-1.2-15.3-1.9ZM338.9,1330.2c-2.5-.3-4.3-2.5-4.2-5.1.1-2.7,2.4-4.7,5.1-4.6,12,.6,24.2,1,36.1,1.1,2.7,0,4.8,2.2,4.8,4.9,0,2.7-2.2,4.8-4.9,4.8-12.1,0-24.3-.4-36.5-1.1-.1,0-.3,0-.4,0ZM207.2,1312.3c-.1,0-.3,0-.4,0-11.8-2.6-23.8-5.4-35.5-8.5-2.6-.7-4.1-3.3-3.5-5.9.7-2.6,3.3-4.1,5.9-3.5,11.6,3,23.4,5.9,35.1,8.4,2.6.6,4.3,3.1,3.7,5.8-.5,2.5-2.9,4.1-5.4,3.8ZM125.4,1290.3c-.3,0-.6,0-.8-.2-11.5-3.7-23.2-7.7-34.5-11.9-2.5-.9-3.8-3.7-2.9-6.2.9-2.5,3.7-3.8,6.2-2.9,11.2,4.1,22.7,8.1,34.2,11.7,2.5.8,3.9,3.5,3.1,6.1-.7,2.3-3,3.6-5.2,3.3ZM423.6,1330c-2.3-.3-4-2.2-4.2-4.5-.2-2.7,1.9-5,4.5-5.1,12-.7,24.1-1.7,35.9-3,2.7-.3,5,1.6,5.3,4.3.3,2.7-1.6,5-4.3,5.3-12,1.3-24.3,2.3-36.4,3-.3,0-.6,0-.9,0ZM46.1,1260.6c-.4,0-.9-.2-1.3-.4-11.4-4.9-22.6-10.1-33.2-15.2-2.4-1.2-3.4-4.1-2.2-6.5,1.2-2.4,4.1-3.4,6.5-2.2,10.5,5.1,21.5,10.2,32.8,15,2.5,1.1,3.6,3.9,2.5,6.4-.9,2-3,3.2-5.1,2.9ZM507.7,1320.1c-2-.3-3.7-1.8-4.1-4-.5-2.6,1.3-5.1,3.9-5.6,11.8-2.1,23.7-4.5,35.3-7.2,2.6-.6,5.2,1,5.8,3.6.6,2.6-1,5.2-3.6,5.8-11.8,2.7-23.8,5.2-35.8,7.3-.5,0-1,0-1.5,0ZM589.9,1300.3c-1.8-.2-3.4-1.5-4-3.4-.8-2.6.7-5.3,3.2-6,11.4-3.5,22.9-7.3,34.2-11.4,2.5-.9,5.3.4,6.2,2.9.9,2.5-.4,5.3-2.9,6.2-11.4,4.2-23.1,8.1-34.7,11.6-.7.2-1.4.3-2.1.2ZM669.2,1270.7c-1.6-.2-3.1-1.2-3.8-2.8-1.1-2.4,0-5.3,2.5-6.4,10.9-4.8,21.9-10,32.6-15.4,2.4-1.2,5.3-.2,6.5,2.1,1.2,2.4.2,5.3-2.1,6.5-10.9,5.5-22,10.7-33,15.6-.8.4-1.7.5-2.6.4ZM744.5,1231.9c-1.4-.2-2.8-1-3.5-2.3-1.4-2.3-.6-5.3,1.7-6.6,10.2-6,20.6-12.4,30.7-19,2.2-1.5,5.2-.8,6.7,1.4,1.5,2.2.8,5.2-1.4,6.7-10.2,6.7-20.7,13.1-31.1,19.2-1,.6-2.1.8-3.1.6ZM815.2,1185.3c-1.3-.2-2.4-.8-3.3-1.9-1.6-2.2-1.1-5.2,1-6.8,9.6-7.1,19.2-14.5,28.6-22,2.1-1.7,5.1-1.3,6.8.7,1.7,2.1,1.3,5.1-.7,6.8-9.5,7.6-19.2,15.1-28.9,22.3-1,.8-2.3,1.1-3.5.9ZM880.8,1131.7c-1.1-.1-2.2-.7-3-1.6-1.8-2-1.6-5,.4-6.8,8.9-8,17.7-16.4,26.3-24.7,1.9-1.9,5-1.8,6.8,0,1.9,1.9,1.8,5,0,6.8-8.6,8.5-17.6,16.9-26.6,25-1.1,1-2.5,1.4-3.9,1.2ZM940.8,1071.9c-.9-.1-1.9-.5-2.6-1.2-2-1.8-2.1-4.9-.3-6.8,8.1-8.9,16-18.1,23.6-27.3,1.7-2.1,4.8-2.3,6.8-.6,2.1,1.7,2.3,4.8.6,6.8-7.7,9.3-15.7,18.5-23.9,27.6-1.1,1.2-2.7,1.7-4.2,1.5ZM994.3,1006.3c-.8-.1-1.5-.4-2.2-.9-2.2-1.6-2.6-4.6-1.1-6.8,7.1-9.8,14-19.8,20.5-29.7,1.5-2.2,4.5-2.9,6.7-1.4,2.2,1.5,2.9,4.5,1.4,6.7-6.6,10-13.6,20.1-20.8,30-1.1,1.5-2.9,2.2-4.6,1.9ZM1040,935.1c-.6,0-1.2-.3-1.7-.6-2.3-1.3-3.2-4.3-1.9-6.6,5.9-10.6,11.5-21.3,16.7-31.9,1.2-2.4,4.1-3.4,6.5-2.2,2.4,1.2,3.4,4.1,2.2,6.5-5.2,10.8-10.9,21.7-16.9,32.4-1,1.8-3,2.7-4.9,2.4ZM1076.2,858.6c-.4,0-.7-.1-1.1-.3-2.5-1-3.7-3.8-2.8-6.3,4.4-11.3,8.4-22.7,11.8-34,.8-2.5,3.5-4,6.1-3.2,2.6.8,4,3.5,3.2,6.1-3.5,11.4-7.6,23.1-12.1,34.6-.8,2.1-3,3.3-5.1,3.1ZM1100.2,777.4c-.1,0-.2,0-.3,0-2.6-.5-4.3-3.1-3.8-5.7,2-9.6,3.6-19.4,4.9-29s.6-4.3.8-6.5c.3-2.7,2.7-4.6,5.4-4.2,2.6.4,4.6,2.7,4.2,5.4-.3,2.2-.5,4.4-.8,6.6-1.3,9.8-3,19.7-5,29.6-.5,2.5-2.9,4.2-5.4,3.8ZM1108.7,693.3c-2.4-.3-4.2-2.3-4.2-4.8,0-9.9-.5-19.9-1.3-29.7-.2-2.1-.4-4.1-.6-6.1-.3-2.7,1.7-5,4.3-5.3,2.7-.3,5,1.7,5.3,4.3.2,2.1.4,4.2.6,6.3.8,10,1.3,20.2,1.3,30.4,0,2.7-2.2,4.8-4.8,4.9-.2,0-.4,0-.7,0ZM1099.1,609.4c-2-.3-3.6-1.7-4.1-3.7-2.5-11.2-5.6-22.9-9.3-34.7-.8-2.6.6-5.3,3.2-6,2.6-.8,5.3.6,6.1,3.2,3.7,12,6.9,23.9,9.5,35.4.6,2.6-1.1,5.2-3.7,5.8-.6.1-1.2.2-1.7,0ZM1073.7,528.7c-1.7-.2-3.2-1.3-3.9-3-4-10.1-8.5-21-13.8-33.4-1.1-2.5,0-5.3,2.5-6.4,2.5-1.1,5.3,0,6.4,2.5,5.4,12.5,9.9,23.5,13.9,33.7,1,2.5-.3,5.3-2.7,6.3-.8.3-1.6.4-2.4.3ZM1040.3,450.9c-1.6-.2-3.1-1.2-3.8-2.8-4.7-10.5-9.7-21.8-14.5-33.3-1-2.5.1-5.3,2.6-6.3,2.5-1,5.3.1,6.3,2.6,4.8,11.4,9.8,22.7,14.5,33.2,1.1,2.4,0,5.3-2.5,6.4-.8.4-1.7.5-2.6.4ZM1008.1,372.6c-1.7-.2-3.3-1.4-3.9-3.2-4.4-12.2-8-23.6-11.2-34.9-.7-2.6.8-5.2,3.4-6,2.6-.7,5.2.8,6,3.4,3.1,11,6.7,22.2,11,34.2.9,2.5-.4,5.3-2.9,6.2-.8.3-1.5.3-2.3.2ZM986.7,290.8c-2.1-.3-3.8-1.9-4.1-4.1-1.9-12.2-3.1-24.5-3.6-36.6-.1-2.7,2-4.9,4.6-5,2.7-.1,4.9,2,5,4.6.5,11.7,1.7,23.7,3.5,35.6.4,2.6-1.4,5.1-4.1,5.5-.5,0-.9,0-1.4,0ZM984.6,206.5c-2.6-.3-4.4-2.7-4.2-5.3.3-3.3.7-6.6,1.2-9.9,1.2-8.7,2.7-17.6,4.6-26.5.6-2.6,3.1-4.3,5.7-3.7,2.6.6,4.3,3.1,3.7,5.7-1.8,8.6-3.3,17.3-4.4,25.7-.4,3.2-.8,6.4-1.1,9.6-.3,2.7-2.7,4.6-5.3,4.3,0,0,0,0-.1,0ZM1003.3,124.1c-.3,0-.6-.1-1-.2-2.5-.9-3.9-3.6-3-6.2,4-11.4,8.6-22.9,13.7-34.1,1.1-2.4,4-3.5,6.4-2.4,2.4,1.1,3.5,4,2.4,6.4-5,10.9-9.5,22.1-13.4,33.3-.8,2.2-3,3.5-5.2,3.2ZM1039.5,47.6c-.6,0-1.3-.3-1.9-.7-2.3-1.4-3-4.4-1.6-6.6,6.2-10.3,13.1-20.6,20.3-30.6,1.6-2.2,4.6-2.6,6.8-1.1,2.2,1.6,2.6,4.6,1.1,6.8-7.1,9.8-13.8,19.8-19.9,29.9-1,1.7-2.9,2.5-4.8,2.3Z" style="fill: #ee3a4c;"/>
      <g>
        <path d="M275.5,1324.5c-7.5-1.4-15.6,0-22.9-2.2-5.7-2.8-3.6-11.7,2.7-11.4,11.6,2.2,23.6,2,35.3,3.6,1.2.1,2.7.2,3.7.8,6.2,2.9,4.1,12.7-2.8,12.5-5.4-.9-10.6-2.7-16-3.3h0ZM275.5,1324.1c5.2.6,10.7.6,15.9.6,3.6-.5,3.9-5.6.2-6.2-11.1-1.5-22.2-4.5-33.4-5.9-1,0-2.2-.3-3.1-.2-2.7.1-4.2,3.5-2.9,5.5.6,1,1.5,1.6,2.7,1.7,6.9,1,13.6,3.5,20.5,4.5h0Z" style="fill: #233062;"/>
        <path d="M338.9,1330.4c-5.3-.6-6.5-8.3-1.4-10.6,4.3-1.3,8.9-.5,13.3-.4,8.6,1.1,17.1,1.8,25.8,1.3,8.7,1.3,6.6,13.4-2.3,12.4-12.4.5-23.3-1.7-35.4-2.7h0ZM339,1330c8.5.2,17.2-1.4,25.7-1,3.1,0,6.5.2,9.6.4,0,0,1.6,0,1.6,0,1.8,0,3.4-1.5,3.3-3.4,0-1.5-1.1-3.1-2.9-3.4-11.6-1.9-23.6.5-35.3-.6-6.2-1.7-8.3,6.6-2.1,8h0Z" style="fill: #233062;"/>
        <path d="M207.2,1312.4c-8.4-2-17.2-2-25.4-4.7,0,0-6.1-2-6.1-2-1-.3-3.7-1.2-4.6-1.5-6.3-2.1-4.4-11.5,2.3-11.1,11.8,1.9,23.2,4.2,34.6,7.7,1,.4,2.6.8,3.4,1.6,4.4,3.6,1.2,10.7-4.1,9.9h0ZM207.2,1312.1c5.3.6,6.7-7,1.6-7.9-12.1-1.8-24.2-5.3-35.8-9-5.1-1-6.7,6.6-1.7,7.8.9.2,3.8.6,4.8.8,0,0,6.4,1,6.4,1,8.5,1.3,16.4,5.3,24.7,7.3h0Z" style="fill: #233062;"/>
        <path d="M125.4,1290.4c-8.2-2.5-16.9-3.7-24.9-7,0,0-5.9-2.6-5.9-2.6-1.8-.9-4.3-1.6-6-2.7-4.5-3.2-1.8-10.8,3.9-10.2,8.5,1.9,16.6,4.7,24.9,7.4,4.1,1.6,8.5,2.8,12.2,5.2,4.4,3.6,1.2,10.7-4.1,9.9h0ZM125.4,1290.1c4.6.6,6.7-5.5,2.7-7.6-4-1.1-8.1-2.1-12-3.5-6.1-2.1-12.1-4.4-18.2-6.7-1.5-.6-4.4-1.9-5.8-2.4-1.7-.4-3.7.5-4.4,2.3-.8,1.7-.1,4,1.5,5,.7.5,1.9.7,2.9,1,2,.5,7.4,1.9,9.4,2.4,8.3,2.1,15.8,7,23.9,9.5h0Z" style="fill: #233062;"/>
        <path d="M423.6,1330.2c-2.2-.3-4.2-2.1-4.6-4.4-.8-4.1,2.8-6.9,6.7-7,7.4-1.3,15-.7,22.5-1,3.2-.2,6.4-.5,9.6-1,1.1-.1,2-.4,3.4-.4,2.6.1,5.1,2.3,5.5,5.1.5,2.8-1.3,5.8-4,6.8-2.4.7-4.5.6-6.8,1-10.7,1.4-21.5.7-32.3.9h0ZM423.6,1329.8c10.6-1,21.1-4.1,31.9-4.3,1.4-.1,4.8-.1,6-.4,3.2-1,2.9-6.1-.6-6.7-.8-.2-1.9,0-3,0-11.8,0-23.2,3.7-34.9,3.4-4.3,1-4,7.5.6,8.1h0Z" style="fill: #233062;"/>
        <path d="M46,1260.8c-8-3.2-16.5-5.2-24.1-9.3l-11.4-6.3c-4.5-3.2-1.8-10.7,3.9-10.2,1.1,0,2.4.7,3.4,1,11.1,4.4,22.2,8.6,32.3,15,4.4,3.6,1.2,10.8-4.1,9.9h0ZM46.1,1260.4c4.6.6,6.7-5.5,2.7-7.6-11-3.8-21.7-9.2-32-14.7,0,0-1.4-.8-1.4-.8-4.4-2.6-8.4,3.9-4.1,6.8,1.7.9,3.9,1.6,5.9,2.3l6.1,2.2c8.1,2.8,14.9,8.6,22.9,11.7h0Z" style="fill: #233062;"/>
        <path d="M507.6,1320.3c-6.4-1.1-6.2-10,.3-11.2,10.8-3.4,22.3-2.9,33.2-6.3,1-.3,2.4-.8,3.5-.6,6.5.5,7.6,9.6,1.5,11.9-1.2.4-2.2.6-3.3.8-11.5,3.1-23.3,4-35.1,5.3h0ZM507.7,1320c4.3-.3,8.3-2.1,12.4-3.3,7.1-2.4,14.5-3.8,21.9-5.1.7-.1,2.4-.4,3-.5,3.2-1,2.9-6.1-.6-6.7-.7-.2-2.1,0-2.9.2-11.5,1.3-22.2,6.5-33.8,7.4-4.8.4-4.9,7.5,0,8.2h0Z" style="fill: #233062;"/>
        <path d="M589.9,1300.5c-2.2-.3-4.2-2.1-4.6-4.4-.5-2.3.7-5.1,3.2-6.2,9.8-4.9,20.6-5.8,30.7-9.7,2.2-.7,4-2.1,6.5-2,6.5.5,7.6,9.6,1.5,11.9-10,3.9-20.4,7.1-31,9.1-2.2.3-4.1,1.5-6.4,1.3h0ZM590,1300.1c2.1.2,4.1-1.1,6-1.8,5.9-2.7,11.7-5.5,17.8-7.5,4-1.4,8.2-2.6,12.3-3.9,1.3-.4,2.3-1.8,2.3-3.3,0-2.7-3-4.3-5.6-3.2-7.4,1.8-14.2,4.9-21.2,7.9-4,1.6-8.2,2.9-12.3,3.7-1.6.3-3.1,2-3.1,3.9,0,2,1.7,3.9,3.7,4.1h0Z" style="fill: #233062;"/>
        <path d="M669.2,1270.8c-2.2-.3-4.2-2.1-4.6-4.4-.5-2.4.9-5.1,3.1-6.2,9.1-6,19.8-8.2,29.3-13.3,2.1-1,3.9-2.7,6.4-2.4,4.2.1,7.1,5.5,4.7,9.2-.6,1.1-2,2.2-3,2.7-3.8,2-7.7,3.9-11.6,5.7-5.8,2.8-12,4.9-18.1,7-2.1.6-4,2.1-6.2,1.7h0ZM669.3,1270.5c2.2.3,4-1.3,5.8-2.3,5.5-3.4,11-6.8,16.8-9.6,3.8-1.9,7.8-3.6,11.7-5.3,1.6-.6,2.5-1.8,2.5-3.4,0-2.5-3.1-4.4-5.5-3.1-7.1,2.7-13.5,6.6-20.1,10.3-3.8,2-7.7,3.8-11.8,5.2-1.7.4-3.2,2-3.1,4,0,2.1,1.7,3.9,3.7,4.1h0Z" style="fill: #233062;"/>
        <path d="M744.5,1232.1c-2.2-.2-4.2-2.1-4.6-4.4-.6-2.4,1-5,3-6.2,6.7-5.5,14.6-8.9,22.2-13.1,2.8-1.6,5.5-3.4,8.1-5.3,1-.7,2.3-1,3.6-.9,2.6.1,5.1,2.3,5.5,5.1.6,2.6-1.5,5.8-3.6,6.7-3.6,2.4-7.2,4.8-10.9,7-5.5,3.4-11.4,6.2-17.2,9-2,.9-3.8,2.5-6.1,2.1h0ZM744.5,1231.8c2.2.3,3.9-1.4,5.6-2.6,5.1-4,10.2-8,15.7-11.4,3.6-2.3,7.3-4.4,11-6.6,1.8-.9,2.5-1.7,2.6-3.6,0-2.5-3.1-4.4-5.4-3.1-2.8,1.5-5.6,3.2-8.3,4.9-7.1,4.9-13.7,10.5-21.6,14-4.5,1.4-4.2,7.5.5,8.3h0Z" style="fill: #233062;"/>
        <path d="M815.1,1185.4c-3.6-.3-5.9-4.7-4.1-8,6.1-7.7,15.2-12.3,23.1-17.9,1.7-1.3,3.4-2.6,5.1-3.9,1.7-1.4,3.6-3.4,6.2-3.1,4.2.1,7.1,5.5,4.7,9.2-.5,1-1.7,1.9-2.6,2.7-6.7,5.5-13.3,10.9-20.8,15.3-2.8,1.7-5.5,3.3-8.3,5.1-1,.5-2.2.8-3.3.6h0ZM815.2,1185.1c2.3.3,3.8-1.4,5.4-2.8,1.6-1.5,3.1-3,4.7-4.5,6.2-6,13.1-11.1,20.1-16.1,1.3-.8,2.8-2,2.7-3.8,0-2.5-3.1-4.4-5.4-3.1-2.6,1.6-5.3,3.7-7.7,5.7-6.5,5.6-12.6,11.9-20.1,16.2,0,0-1.3.8-1.3.8-3.3,1.9-2,7.2,1.8,7.6h0Z" style="fill: #233062;"/>
        <path d="M880.8,1131.9c-4.4-.4-6.3-6.5-3-9.5,0,0,1.1-1.2,1.1-1.2,7.7-9.2,18-15.3,26.2-24,5.2-3.5,11.6,2.8,8.3,8.3-8,9-17,16.8-26.7,23.9-1.6,1.4-3.5,3-5.9,2.6h0ZM880.8,1131.5c2.3.3,3.8-1.3,5.2-2.9,4.2-4.9,8.4-9.9,13.1-14.3,3.6-3.6,8-7.1,11.6-10.6.4-.6.6-1.3.6-2.1,0-2.5-3.1-4.4-5.4-3.1-6,4.3-10.8,10.4-15.9,15.8-3.6,3.9-7.9,7.1-12,10.5-2.1,2.4-.4,6.4,2.8,6.8h0Z" style="fill: #233062;"/>
        <path d="M940.7,1072.1c-3.6-.3-5.9-4.7-4.1-8,3-4.7,6.2-8.8,10-12.8,4.5-4.5,9.3-8.9,13.3-14,1.4-2,3.4-3.8,6-3.5,5.2.3,7.4,7,3.6,10.7,0,0-1,1.2-1,1.2-6.7,8.5-13.9,16.4-22,23.6-1.4,1.6-3.5,3.2-5.8,2.7h0ZM940.8,1071.7c4.4.5,6.2-5.5,8.7-8.3,4.8-7.1,10.6-13.4,16.5-19.8.5-.5,1.7-1.8,2-2.2,2.5-3.7-2.8-7.7-5.9-4.4-8,8-13.3,18.3-21.8,25.9-1.5,1.5-3.2,2.5-3.1,4.7,0,2,1.6,3.9,3.7,4.1h0Z" style="fill: #233062;"/>
        <path d="M994.2,1006.5c-3.6-.3-5.9-4.7-4.1-8,0,0,1.6-2.9,1.6-2.9,2-3.8,4.4-7.4,7-10.8,4-5,8.3-9.9,11.7-15.4,1-2,3.4-3.9,5.9-3.6,4.2,0,7.1,5.5,4.7,9.2,0,0-1.8,2.7-1.8,2.7-5.7,9.1-12.1,17.8-19.3,25.8-1.2,1.8-3.4,3.3-5.7,2.9h0ZM994.3,1006.1c4.8.4,5.7-5.6,7.9-8.8,4-7.6,9.1-14.5,14.2-21.4.7-1.2,2.7-3.1,2.5-4.6-.2-4.1-5.6-4.8-7.5-1.1-6.5,8.6-10.6,18.8-17.9,26.8,0,0-2.1,2.4-2.1,2.4-2.1,2.4-.4,6.4,2.8,6.8h0Z" style="fill: #233062;"/>
        <path d="M1040,935.2c-3.6-.3-5.8-4.7-4.1-7.9,0,0,1.2-3,1.2-3,2.9-8.2,8.1-15.1,12.4-22.5,2.3-3.6,3.3-9.9,8.8-9.4,3.4.1,6.3,3.7,5.4,7.2-.2,1.4-1.5,3.5-2.1,4.8-4.5,9.8-9.8,19.2-16,28-1,2-3.4,3.3-5.6,3h0ZM1040.1,934.9c5,.5,5.4-5.8,7.1-9.1,3.1-8.1,7.2-15.5,11.4-23,.3-.7,1.9-3.3,2.1-3.9.6-1.9-.6-4.1-2.7-4.5-4-1.1-5.5,4.5-7.5,8-1.9,3.9-3.4,7.9-5.2,11.9-2.2,4.9-5.1,9.5-8.1,13.9-2.1,2.4-.4,6.4,2.8,6.8h0Z" style="fill: #233062;"/>
        <path d="M1076.2,858.7c-2.2-.3-4.2-2.1-4.6-4.4-.4-2.1.8-4.6,1.2-6.6,1.9-8.4,6-16,9-24.1,1.5-4,1.9-10.4,7.8-10,3.4,0,6.3,3.7,5.4,7.2-.2,1.2-1,3.6-1.3,4.8-2.4,8.3-5,16.5-8.9,24.2,0,0-2.9,5.8-2.9,5.8-1,2.2-3.4,3.4-5.6,3h0ZM1076.2,858.4c5.2.5,5.1-5.7,6.3-9.3,1-4.2,2.3-8.3,3.7-12.3,1.7-5,3.6-10.1,5.3-15.1.3-.9.7-1.6.6-2.5,0-1.5-1.1-3.1-2.9-3.4-1.6-.4-3.7.5-4.4,2.3-2.2,6-3.5,12.4-5.2,18.6-1.5,5.2-3.7,10.2-6.2,14.9-1.9,2.6-.5,6.5,2.8,6.9h0Z" style="fill: #233062;"/>
        <path d="M1100.2,777.6c-2.8-.3-5.1-3.3-4.7-6.2,0-1,.2-3.8.3-4.9.2-8.5,3.1-17,4.8-25.2.4-2.2.4-4.2,1-6.5.8-2.3,3.2-4.1,5.8-3.8,2.6.2,5.1,2.2,5.5,5.1.2,2.4-.3,4.5-.4,6.8-1,8.5-2.3,17.1-4.7,25.4-1.2,4-1.9,10.1-7.5,9.3h0ZM1100.2,777.2c3.9.3,5.1-2.8,4.9-6.2.2-5.3.7-10.8,1.6-16,.8-5.2,2-10.5,2.8-15.8.7-2.8.7-5.3-2.5-6.3-1.6-.4-3.7.5-4.4,2.3-1.4,6.1-1.4,12.8-2.1,19.1-.6,5.3-1.9,10.6-3.4,15.8,0,0-.4,1.6-.4,1.6-.9,2.5.9,5.3,3.5,5.6h0Z" style="fill: #233062;"/>
        <path d="M1108.7,693.5c-2.2-.3-4.2-2.1-4.6-4.4l-.8-6.5c-1.3-8.5-.5-17.1-.8-25.7,0-2.3-.8-4.4,0-6.7,2-5.6,10.5-4.7,11.3,1.3,1.5,10.7,2.7,21.5,1.6,32.3-.3,2-.2,4.7-1,6.6-1,2.1-3.4,3.4-5.6,3h0ZM1108.7,693.1c2.1.3,4.2-1.1,4.7-3,.4-1.5-.3-4.5-.4-6.2-1.3-9.9-1.5-22-2.1-32,0-3.9-5.7-4.9-7.3-1.2-.4.9-.4,1.8-.3,2.9.4,5.4,1.5,10.7,2.2,16,.4,4.3.5,8.6,0,12.9-.2,3.8-2.2,9.6,3.1,10.6h0Z" style="fill: #233062;"/>
        <path d="M1099.1,609.6c-2.2-.2-4.2-2.1-4.6-4.3-4-10-6.1-20.5-8.3-31-.5-2.2-1.7-4.4-.8-6.6.8-2.3,3.2-4,5.8-3.8,5.5.4,6,6.9,7.6,10.9,2.7,8.2,5.1,16.5,6.1,25.1,0,0,.4,3.2.4,3.2.8,3.5-2.6,7.2-6.1,6.6h0ZM1099.1,609.2c3.1.5,5.8-2.9,4.5-5.8,0,0-1.1-3-1.1-3-2.9-8.1-4.9-16.4-7-24.7,0,0-1.6-6.2-1.6-6.2-.4-2-1.1-3.2-3-3.7-2.7-.7-5.6,2.2-4.6,5,1.5,5.2,3.7,10.1,5.4,15.2,1.3,4.1,2.3,8.3,2.9,12.6l.8,6.4c0,2.1,1.7,3.9,3.8,4.2h0Z" style="fill: #233062;"/>
        <path d="M1073.6,528.9c-2.4-.2-4-2.2-4.8-4.2-5.7-9.3-9.1-19.4-12.4-29.7,0,0-1.2-3.1-1.2-3.1-1.2-3.6,1.9-7.7,5.9-7.3,2.6,0,4.7,2.2,5.6,4.6,2.7,5.8,5.4,11.7,7.8,17.7,2,5,3.8,10.1,5.1,15.4.8,3.6-2.5,7.2-6.1,6.6h0ZM1073.7,528.5c3.2.5,5.8-3,4.4-5.8,0,0-1.5-2.8-1.5-2.8-5.5-9.9-9.2-20.5-13-31.1-1-3.1-5.8-3.2-7.1,0-.9,2,.3,3.8,1,5.7,1.8,3.9,3.9,7.7,5.8,11.5,2.9,5.8,4.6,12.1,6.4,18.3.4,2.1,1.7,3.9,4,4.2h0Z" style="fill: #233062;"/>
        <path d="M1040.3,451.1c-2.4-.2-3.9-2.3-4.8-4.2-5.8-9.2-9.5-19.3-13-29.5-.9-2-2.1-4.3-1.2-6.6.8-2.3,3.2-4.1,5.8-3.8,2.7,0,4.7,2.3,5.6,4.6,2.8,5.8,5.6,11.6,8.1,17.5,2.1,5,4,10,5.4,15.3.8,3.6-2.5,7.3-6.1,6.6h0ZM1040.3,450.7c3.2.5,5.8-3,4.4-5.8-2.7-4.5-5.2-9.4-7.4-14.2-3.1-6.7-5.4-13.7-8.4-20.4-2.6-3.3-8-.3-6.7,3.8,3.8,8.9,9.5,16.9,12,26.3,1.6,3.5,1.4,9.6,5.9,10.4h0Z" style="fill: #233062;"/>
        <path d="M1008.1,372.8c-2.3-.2-4-2.2-4.7-4.3,0,0-2.8-5.9-2.8-5.9-3.9-7.8-5.3-16.4-7.2-24.8-.5-2.2-1.6-4.4-.8-6.6.8-2.3,3.2-4,5.8-3.8,2.7.1,4.9,2.3,5.5,4.8,0,0,2,6.1,2,6.1,1.3,4.1,2.8,8.1,4,12.2,1.2,4.1,2.5,8.2,3.4,12.4l.7,3.2c.8,3.6-2.5,7.3-6.1,6.6h0ZM1008.1,372.4c3.2.5,5.8-3,4.4-5.8-5.6-10.8-8.9-22.5-11.6-34.3-.6-3.5-5.9-4-7.2-.6-.4.9-.4,1.8-.2,2.8,1.4,5.2,3.6,10.1,5.5,15.1,2.4,6,3.6,12.3,5.1,18.6.3,2.1,1.7,3.9,3.9,4.2h0Z" style="fill: #233062;"/>
        <path d="M986.7,291c-2.2-.2-4.2-2.1-4.6-4.4l-1.6-6.3c-2.3-8.4-1.8-17.1-1.9-25.7,0-2-.6-4.6.1-6.6,1.9-5.6,10.5-4.8,11.3,1.3.5,4.4,1.4,14.7,1.9,19.2.4,4.3.8,8.5.8,12.8v3.2c.7,3.5-2.5,7.2-6.1,6.5h0ZM986.8,290.6c3.2.4,5.8-2.8,4.5-5.9-3.3-11.4-4-23.4-4.1-35.2,0-3.9-5.7-4.9-7.3-1.2-1,6.1,1.1,12.7,1.8,18.8,1.1,6.3,1,12.8,1.3,19.2,0,2,1.7,3.9,3.7,4.2h0Z" style="fill: #233062;"/>
        <path d="M984.6,206.6c-5.6-.8-4.7-6.8-4.6-11-.2-11,3.9-21.1,5.9-31.8,1.9-5.6,10.5-4.8,11.3,1.3.2,1.1-.1,2.5-.3,3.7-1.5,8.7-3,19.9-5,28.4-.3,1-.9,3.7-1.1,4.7-.4,2.9-3.3,5.2-6.2,4.7h0ZM984.6,206.3c2.1.3,4.2-1.1,4.7-3,.4-1.6.1-4.6.2-6.3,0-10.3,2.2-20.4,4.6-30.3.6-1.9-.6-4.1-2.7-4.6-4.9-.9-5.1,5-5.8,8.4-1.2,8.5-1.3,17.1-3.4,25.5-.3,1.7-1.2,4.5-1.3,6.2,0,2,1.7,3.9,3.7,4.1h0Z" style="fill: #233062;"/>
        <path d="M1003.3,124.2c-2.2-.3-4.2-2.1-4.6-4.4-.4-2.1.7-4.6,1.1-6.6,1.8-8.5,6.2-16.1,10.1-23.8,2.1-3.8,2.8-10.1,8.4-9.7,3.4.1,6.2,3.7,5.5,7.2-.3,1.4-1.4,3.5-1.8,4.8-2.9,7-6.6,16.9-10.1,23.6-2,3.5-3.3,9.7-8.5,8.9h0ZM1003.3,123.9c5.3.5,5-5.7,6.2-9.3,1-4.2,2.4-8.3,4-12.3,2.1-5.4,4.8-10.7,7.2-15.9,1.2-4.4-5.3-6.6-7.2-2.2-5.3,10.6-7.2,22.5-13.1,32.8-1.9,2.7-.5,6.5,2.9,7h0Z" style="fill: #233062;"/>
        <path d="M1039.5,47.8c-3.6-.3-5.8-4.7-4.1-8,0,0,1.4-2.9,1.4-2.9,3.5-8,9.4-14.5,14.6-21.3,2.2-2.6,3.4-5.7,6-7.9,3.4-2.4,8.6-.1,9.1,4.2.6,2.6-1.3,4.9-2.6,6.8,0,0-7.1,10.7-7.1,10.7-3.6,5.3-7.7,10.3-11.6,15.4-1.1,1.9-3.4,3.3-5.7,2.9h0ZM1039.5,47.5c2.2.3,4-1,4.8-3.1,0,0,2.8-5.9,2.8-5.9,1.8-3.9,4.1-7.6,6.4-11.2,2.9-4.4,6.2-8.7,9.4-13,2.1-3-1.5-7-4.8-5.2-8.4,8-11.8,20.2-19.5,29,0,0-2,2.6-2,2.6-2.1,2.4-.4,6.4,2.8,6.8h0Z" style="fill: #233062;"/>
      </g>
    </g>
  </g>
  <g style="opacity: .2;">
    <g>
      <path d="M70.8,1669.3c-2.3-.3-4.1-2.3-4.2-4.7,0-2.7,2-4.9,4.7-5,12-.3,24.1-.9,36.2-1.6,2.7-.2,5,1.9,5.1,4.5.2,2.7-1.9,5-4.5,5.1-12.1.7-24.4,1.2-36.5,1.6-.3,0-.5,0-.8,0ZM155.4,1663.9c-2.2-.3-3.9-2-4.2-4.3-.3-2.7,1.7-5,4.3-5.3,11.9-1.2,24-2.5,36-4.1,2.7-.3,5.1,1.5,5.4,4.2.3,2.7-1.5,5.1-4.2,5.4-12.1,1.5-24.3,2.9-36.2,4.1-.4,0-.8,0-1.1,0ZM239.5,1652.8c-2.1-.3-3.8-1.9-4.1-4-.4-2.6,1.3-5.1,4-5.6,11.9-2,23.8-4.1,35.6-6.4,2.6-.5,5.2,1.2,5.7,3.8.5,2.6-1.2,5.2-3.8,5.7-11.9,2.3-23.9,4.5-35.9,6.5-.5,0-1,0-1.4,0ZM322.6,1636.2c-1.9-.3-3.6-1.7-4.1-3.7-.6-2.6,1-5.2,3.6-5.8,11.7-2.7,23.5-5.7,35.1-8.8,2.6-.7,5.2.9,5.9,3.4.7,2.6-.9,5.2-3.4,5.9-11.7,3.1-23.6,6.1-35.4,8.8-.6.1-1.2.2-1.7,0ZM404.4,1614.1c-1.8-.2-3.4-1.5-4-3.4-.8-2.6.6-5.3,3.2-6,11.5-3.5,23.1-7.3,34.4-11.1,2.5-.9,5.3.5,6.1,3,.9,2.5-.5,5.3-3,6.1-11.4,3.9-23.1,7.7-34.7,11.2-.7.2-1.4.3-2.1.2ZM484.4,1586.4c-1.7-.2-3.2-1.3-3.9-3.1-1-2.5.3-5.3,2.8-6.3,11.2-4.3,22.5-8.9,33.5-13.5,2.5-1,5.3.1,6.3,2.6,1,2.5-.1,5.3-2.6,6.3-11.1,4.7-22.5,9.3-33.8,13.6-.8.3-1.6.4-2.4.3ZM562.3,1553.1c-1.6-.2-3-1.2-3.7-2.7-1.1-2.4-.1-5.3,2.3-6.4,10.9-5.1,21.8-10.5,32.4-16,2.4-1.2,5.3-.3,6.5,2.1,1.2,2.4.3,5.3-2.1,6.5-10.8,5.5-21.8,10.9-32.7,16.1-.9.4-1.8.5-2.7.4ZM637.4,1514c-1.5-.2-2.8-1-3.6-2.4-1.3-2.3-.5-5.3,1.8-6.6,10.5-6,20.9-12.1,31.1-18.4,2.3-1.4,5.3-.7,6.7,1.6,1.4,2.3.7,5.3-1.6,6.7-10.3,6.3-20.8,12.5-31.4,18.5-1,.5-2,.7-3,.6ZM709.4,1469.4c-1.3-.2-2.6-.9-3.4-2.1-1.5-2.2-.9-5.2,1.3-6.7,10-6.7,19.9-13.7,29.6-20.8,2.2-1.6,5.2-1.1,6.8,1.1,1.6,2.2,1.1,5.2-1.1,6.8-9.7,7.1-19.8,14.1-29.8,20.9-1,.7-2.2.9-3.4.8ZM777.5,1419.2c-1.2-.2-2.3-.8-3.1-1.8-1.7-2.1-1.3-5.1.8-6.8,9.4-7.5,18.7-15.3,27.8-23,2-1.7,5.1-1.5,6.8.5,1.7,2,1.5,5.1-.5,6.8-9.2,7.9-18.6,15.7-28.1,23.2-1.1.9-2.4,1.2-3.7,1ZM841.5,1363.7c-1.1-.1-2.1-.6-2.9-1.5-1.8-1.9-1.7-5,.2-6.8,7-6.6,14.1-13.4,20.9-20.2l5.1-5c1.9-1.9,5-1.9,6.8,0,1.9,1.9,1.9,5,0,6.8l-5.1,5c-6.9,6.8-14,13.7-21.1,20.4-1.1,1-2.6,1.5-4,1.3ZM901.6,1304c-1-.1-2-.6-2.7-1.3-1.9-1.9-2-4.9-.1-6.8,8.8-9.1,17-17.6,25-26.3,1.8-2,4.9-2.1,6.8-.2,2,1.8,2.1,4.9.2,6.8-8.1,8.7-16.3,17.3-25.1,26.4-1.1,1.1-2.6,1.6-4.1,1.4ZM959,1241.7c-.9-.1-1.8-.5-2.5-1.1-2-1.8-2.2-4.8-.5-6.8,8-9.2,15.8-18.5,23.3-27.7,1.7-2.1,4.7-2.4,6.8-.7,2.1,1.7,2.4,4.7.7,6.8-7.6,9.2-15.5,18.6-23.5,27.9-1.1,1.3-2.7,1.8-4.3,1.6ZM1012.4,1175.8c-.8-.1-1.6-.4-2.3-.9-2.1-1.6-2.6-4.6-1-6.8,7.3-9.7,14.4-19.6,21.2-29.3,1.5-2.2,4.5-2.7,6.7-1.2,2.2,1.5,2.7,4.5,1.2,6.7-6.8,9.8-14,19.7-21.4,29.5-1.1,1.5-2.8,2.1-4.5,1.9ZM1060.4,1106c-.7,0-1.3-.3-1.9-.7-2.3-1.4-3-4.4-1.5-6.7,6.4-10.3,12.7-20.7,18.5-31,1.3-2.3,4.3-3.1,6.6-1.8,2.3,1.3,3.1,4.3,1.8,6.6-5.9,10.4-12.2,20.9-18.7,31.4-1,1.7-2.9,2.5-4.7,2.2ZM1101.6,1032.1c-.5,0-1-.2-1.5-.5-2.4-1.2-3.4-4.1-2.2-6.5,5.3-10.9,10.4-21.9,15.1-32.8,1.1-2.5,3.9-3.6,6.4-2.5,2.5,1.1,3.6,3.9,2.5,6.4-4.7,11-9.9,22.2-15.3,33.2-.9,1.9-3,2.9-5,2.7ZM1134.3,954c-.3,0-.6-.1-1-.2-2.5-.9-3.9-3.6-3-6.2,4-11.4,7.6-23,10.8-34.3.7-2.6,3.4-4.1,6-3.3,2.6.7,4.1,3.4,3.3,6-3.3,11.6-7,23.3-11,34.9-.8,2.2-3,3.5-5.2,3.2ZM1156.5,872.3c0,0-.2,0-.3,0-2.6-.5-4.3-3.1-3.8-5.7,2.1-10.6,3.8-21.4,5.2-32l.5-3.6c.3-2.7,2.8-4.5,5.4-4.2h0c2.6.4,4.5,2.8,4.2,5.4l-.5,3.6c-1.4,10.8-3.2,21.7-5.3,32.5-.5,2.5-2.9,4.2-5.4,3.9ZM1166.1,788.3c-2.4-.3-4.3-2.5-4.2-5,.4-12,.4-24.1,0-36,0-2.7,2-4.9,4.7-5,2.7-.1,4.9,2,5,4.7.4,12.1.5,24.4,0,36.6,0,2.7-2.3,4.8-5,4.7-.2,0-.3,0-.5,0ZM1162,703.8c-2.1-.3-3.9-1.9-4.2-4.2-1.6-11.7-3.5-23.3-6-35.4-.5-2.6,1.2-5.2,3.8-5.7,2.6-.5,5.2,1.2,5.7,3.8,2.5,12.3,4.5,24.1,6.1,36.1.4,2.6-1.5,5.1-4.2,5.4-.4,0-.9,0-1.3,0ZM1144.6,621c-1.9-.2-3.5-1.6-4-3.5-3.3-12-6.8-23.8-10-34.7-.8-2.6.7-5.3,3.3-6,2.6-.8,5.3.7,6,3.3,3.3,11,6.8,22.9,10.1,35,.7,2.6-.8,5.2-3.4,5.9-.6.2-1.3.2-1.9.1ZM1120.8,539.8c-1.9-.2-3.5-1.6-4-3.5-3.6-12.9-6.6-24.5-9-35.4-.6-2.6,1-5.2,3.7-5.8,2.6-.6,5.2,1,5.8,3.6,2.4,10.7,5.3,22.1,8.9,34.9.7,2.6-.8,5.2-3.4,6-.7.2-1.3.2-1.9.1ZM1103.4,457c-2.1-.3-3.9-2-4.2-4.2-1.5-12.2-2.5-24.5-2.9-36.6,0-2.7,2-4.9,4.7-5,2.7-.1,4.9,2,5,4.7.4,11.8,1.4,23.8,2.8,35.7.3,2.7-1.6,5.1-4.2,5.4-.4,0-.8,0-1.2,0ZM1101.6,372.6c-2.5-.3-4.4-2.6-4.2-5.2.7-8.7,1.6-17.6,2.8-26.4.2-1.3.4-2.6.5-3.9.3-2,.6-4,.9-6,.4-2.6,2.9-4.4,5.5-4,2.6.4,4.5,2.9,4,5.5-.3,2-.6,3.9-.9,5.9-.2,1.3-.4,2.6-.5,3.8-1.2,8.7-2.1,17.4-2.7,25.9-.2,2.7-2.5,4.7-5.2,4.5,0,0-.2,0-.3,0ZM1115.4,289.2c-.2,0-.4,0-.5-.1-2.6-.7-4.2-3.3-3.5-5.9,3-11.7,6.4-23.6,10.2-35.2.8-2.5,3.5-3.9,6.1-3.1,2.5.8,3.9,3.6,3.1,6.1-3.7,11.4-7.1,23-10,34.5-.6,2.4-2.9,3.9-5.3,3.6ZM1142.5,209c-.4,0-.8-.2-1.3-.3-2.5-1-3.6-3.9-2.5-6.4,4.7-11.1,9.9-22.2,15.4-33.2,1.2-2.4,4.1-3.3,6.5-2.1,2.4,1.2,3.3,4.1,2.1,6.5-5.4,10.8-10.5,21.8-15.2,32.6-.9,2-3,3.2-5.1,2.9ZM1181.3,133.8c-.6,0-1.3-.3-1.9-.7-2.3-1.4-3-4.4-1.6-6.6,6.2-10.3,12.9-20.6,19.8-30.7,1.5-2.2,4.5-2.8,6.7-1.3,2.2,1.5,2.8,4.5,1.3,6.7-6.8,10-13.4,20.2-19.5,30.3-1,1.7-2.9,2.5-4.8,2.3ZM1229.5,64.2c-.8-.1-1.6-.4-2.3-1-2.1-1.7-2.5-4.7-.8-6.8,7.4-9.4,15.2-18.9,23.2-28.2,1.7-2,4.8-2.2,6.8-.5,2,1.7,2.2,4.8.5,6.8-7.9,9.2-15.6,18.5-23,27.8-1.1,1.4-2.8,2-4.4,1.8Z" style="fill: #209fda;"/>
      <g>
        <path d="M70.8,1669.5c-5.3-.6-6.5-8.4-1.4-10.6,8.5-2.2,17.4-.7,26.1-.8,4.5,0,8.5-.6,13-.9,6.5.5,7.6,9.6,1.4,11.9-1.1.5-2.5.4-3.7.5-11.8,1.3-23.7,0-35.5-.2h0ZM70.8,1669.1c10.6-.6,21.3-3.2,32.1-3,1.4,0,4.7,0,5.9-.2,3.3-1,2.9-6.1-.5-6.8-12.7-1.1-25.4,2.6-38.1,1.9-4.4,1-4,7.5.6,8.1h0Z" style="fill: #233062;"/>
        <path d="M155.4,1664.1c-2.2-.3-4.2-2.1-4.6-4.4-.7-3,1.8-6.4,5.1-6.7,7.9-1.8,16-1.4,24.1-2,3.2-.3,6.4-.7,9.6-1.3,1.1-.1,2.1-.5,3.4-.4,2.6.1,5.1,2.3,5.5,5.1.5,2.8-1.3,5.8-4,6.8-2.4.7-4.5.7-6.7,1.1-10.7,1.7-21.5,1.3-32.3,1.8h0ZM155.5,1663.7c10.6-1.2,21-4.7,31.8-5.2,1.5-.2,4.8-.3,6-.6,3.2-1,2.9-6.1-.6-6.8-1.8-.2-4.3.1-6.2.2-10.6.7-21,4.3-31.7,4.2-4.4,1-4,7.5.6,8.1h0Z" style="fill: #233062;"/>
        <path d="M239.4,1653c-2.2-.3-4.2-2.1-4.6-4.4-.5-2.3.8-5.1,3.2-6.2,1.2-.5,2.1-.7,3.3-1,7.3-2,14.9-2.1,22.3-3.2,3.7-.6,7.4-1.3,11-2.3,3.3-.9,6.9,1.4,7.4,4.9.6,3.5-2.3,7-5.8,7.3,0,0-1.6.3-1.6.3-11.6,2.9-23.4,3.4-35.3,4.5h0ZM239.5,1652.6c4.3-.3,8.4-1.9,12.5-3.1,7.2-2.2,14.6-3.5,22-4.6.5,0,1.9-.3,2.4-.4,3.7-.5,3.7-6.1,0-6.9-.7-.2-2.1,0-2.9.1-11.7,1-22.9,6-34.6,6.7-4.4,1-4,7.5.6,8.1h0Z" style="fill: #233062;"/>
        <path d="M322.5,1636.4c-5.3-.6-6.5-8.3-1.4-10.6,8.3-3.4,16.7-4,25.2-5.8,4.4-.7,8.4-2.8,12.8-3.2,6.5.5,7.6,9.6,1.5,11.9-1.1.4-2.2.6-3.2.9-11.4,3.6-23.1,5.1-34.9,6.7h0ZM322.6,1636c4.2-.2,8.2-2.5,12.2-3.8,7.9-3,16.4-4.9,24.7-6.7,3.2-1,2.9-6.1-.6-6.8-.8-.2-1.7,0-2.8.2-11.6,1.8-22.5,7.6-34.2,8.9-4.4,1-3.9,7.5.6,8.1h0Z" style="fill: #233062;"/>
        <path d="M404.3,1614.3c-2.2-.3-4.2-2.1-4.6-4.4-.5-2.3.7-5.1,3.2-6.2,7.9-3.8,16.3-5.2,24.7-7.4,3.1-.9,6.1-1.9,9.1-3.2.9-.4,2.2-.9,3.5-.8,6.5.5,7.6,9.6,1.5,11.9-12.1,4.5-24.7,8.1-37.4,10h0ZM404.4,1613.9c2.1.2,4.1-1.1,6-1.8,5.9-2.6,11.8-5.4,17.9-7.3,4-1.4,8.2-2.5,12.3-3.7,1.3-.4,2.3-1.8,2.3-3.3,0-2.7-3-4.3-5.6-3.2-7.4,1.7-14.3,4.8-21.2,7.6-4,1.5-8.2,2.8-12.3,3.6-1.6.3-3.1,2-3.1,3.9,0,2,1.7,3.9,3.7,4.1h0Z" style="fill: #233062;"/>
        <path d="M484.4,1586.6c-2.2-.3-4.2-2.1-4.6-4.4-.5-2.3.8-5.1,3.2-6.2,9.4-5.4,20.2-7.1,30-11.6,2.2-.8,3.9-2.4,6.5-2.2,2.6.1,5.1,2.3,5.5,5.1.5,2.8-1.4,5.9-3.9,6.8-3.9,1.7-7.9,3.5-11.9,5-7,2.9-14.4,4.6-21.5,6.9-1,.4-2.1.7-3.2.5h0ZM484.4,1586.2c2.1.2,4-1.2,5.9-2.1,5.7-3.1,11.4-6.2,17.4-8.6,4-1.6,8-3.1,12-4.6,1.5-.5,2.4-1.8,2.4-3.3,0-2.6-3-4.4-5.5-3.1-7.2,2.2-13.9,5.8-20.6,9.1-3.9,1.8-7.9,3.3-12.1,4.5-1.7.3-3.2,2-3.1,4,0,2,1.6,3.9,3.7,4.1h0Z" style="fill: #233062;"/>
        <path d="M562.3,1553.2c-2.2-.3-4.2-2.1-4.6-4.4-.6-2.4.9-5.1,3.1-6.2,7.2-4.9,15.4-7.5,23.3-10.9,2.9-1.4,5.8-2.8,8.6-4.4,1-.6,2.3-1,3.6-.9,4.2.1,7.1,5.5,4.7,9.2-.6,1.1-2,2.2-3,2.7-3.8,2-7.6,4-11.5,5.9-5.8,2.9-11.9,5-18,7.2-2.1.6-4,2.1-6.2,1.8h0ZM562.3,1552.9c2.1.3,3.9-1.3,5.8-2.3,5.4-3.5,10.9-7,16.7-9.8,3.8-1.9,7.7-3.7,11.6-5.5,1.6-.6,2.5-1.8,2.5-3.4,0-2.5-3.1-4.4-5.5-3.1-7,2.8-13.4,6.8-19.9,10.6-3.8,2.1-7.7,3.9-11.7,5.4-1,.3-1.6.7-2.3,1.4-2.1,2.4-.4,6.4,2.8,6.8h0Z" style="fill: #233062;"/>
        <path d="M637.4,1514.2c-3.6-.3-5.9-4.7-4.1-8,.4-.9,1.1-1.6,1.9-2.2,3.6-2.8,7.5-5.2,11.5-7.3,5.8-2.9,11.7-5.5,17.1-9,2-1.2,3.8-3,6.3-2.7,2.6.1,5.1,2.3,5.5,5.1.6,2.6-1.5,5.8-3.7,6.8-3.6,2.3-7.3,4.6-11,6.8-5.5,3.3-11.5,5.9-17.4,8.6-2,.8-3.9,2.4-6.1,2h0ZM637.5,1513.9c2.2.3,3.8-1.3,5.6-2.5,5.2-3.9,10.3-7.8,15.9-11.1,3.7-2.2,7.4-4.3,11.2-6.3,1.8-.9,2.5-1.7,2.6-3.5,0-1.5-1.1-3.1-2.9-3.4-2-.5-3.7,1-5.4,1.8-5.7,3-10.9,6.9-16.2,10.6-3.8,2.5-7.8,4.7-12,6.6-.6.3-1.1.6-1.6,1.2-2.1,2.4-.3,6.4,2.8,6.8h0Z" style="fill: #233062;"/>
        <path d="M709.3,1469.5c-3.6-.3-5.9-4.7-4.1-8,7.7-9.3,19.7-13.3,29-20.7,0,0,2.6-2,2.6-2,3.4-2.4,8.6-.1,9.1,4.2.5,2.7-1.2,5.4-3.5,6.8-3.4,2.6-6.9,5.2-10.4,7.6-5.3,3.7-11,6.8-16.6,9.9-1.9,1-3.7,2.7-6,2.2h0ZM709.4,1469.2c2.3.3,3.8-1.4,5.4-2.7,4.8-4.3,9.7-8.6,15-12.3,3.9-2.8,8-5.4,11.9-8,.9-.6,1.4-1.7,1.4-2.8,0-1.5-1.1-3.1-2.9-3.4-2-.5-3.6,1-5.2,2-9.1,5.8-16.4,14-26.1,18.9-4.5,1.6-4.3,7.5.5,8.4h0Z" style="fill: #233062;"/>
        <path d="M777.5,1419.3c-3.6-.3-5.9-4.7-4.1-8,7.3-9.6,18.6-14.8,27.4-22.8.8-.6,1.6-1.6,2.5-2.2,6.4-4,12.6,4.9,7,9.9-8.4,7.6-17.2,14.7-26.8,20.7-1.7,1.2-3.6,2.9-5.9,2.4h0ZM777.5,1419c2.3.3,3.8-1.3,5.3-2.8,1.5-1.5,3-3.1,4.5-4.6,5.9-6.3,12.7-11.5,19.5-16.8,1.3-.9,2.8-2.1,2.7-3.9,0-2.5-3.1-4.4-5.4-3.1-.7.4-1.7,1.2-2.5,1.8-8.6,6.5-15.2,15.2-24.5,20.9,0,0-1.3.9-1.3.9-3.3,2-2,7.2,1.8,7.6h0Z" style="fill: #233062;"/>
        <path d="M841.5,1363.9c-4.4-.5-6.3-6.4-3.1-9.5,0,0,1-1.2,1-1.2,7.6-9.3,17.9-15.5,25.9-24.4,5.2-3.5,11.6,2.8,8.3,8.3-7.8,9.2-16.7,17-26.3,24.3-1.6,1.4-3.5,3.1-5.9,2.6h0ZM841.5,1363.5c2.3.3,3.8-1.3,5.1-2.9,1.4-1.6,2.8-3.3,4.1-5,5.9-7.4,13.4-13.7,20.1-20.3,1.4-2,.3-5-2.2-5.5-2-.5-3.5.8-4.9,2.2-4.8,4.3-8.9,9.3-13.2,14.1-3.5,3.9-7.9,7.3-11.8,10.6-2.1,2.4-.4,6.4,2.8,6.8h0Z" style="fill: #233062;"/>
        <path d="M901.6,1304.2c-3.6-.4-5.9-4.7-4.1-8,3.1-4.6,6.6-8.6,10.6-12.4,4.8-4.3,9.7-8.5,14-13.4,1.5-1.9,3.4-3.7,6-3.4,5.3.4,7.4,7.1,3.5,10.7,0,0-1.1,1.2-1.1,1.2-7,8.2-14.7,15.8-23.1,22.5-1.5,1.5-3.5,3.1-5.8,2.7h0ZM901.6,1303.8c2.3.3,3.8-1.2,5.1-3,1.3-1.7,2.6-3.4,3.9-5.2,5.2-6.9,11.3-13,17.4-19,.3-.3,1.4-1.3,1.7-1.7,2.8-2.8-.9-7.5-4.4-5.6-9.1,7.3-14.8,18.4-24.1,25.7-1.6,1.4-3.3,2.4-3.2,4.6,0,2,1.6,3.9,3.7,4.2h0Z" style="fill: #233062;"/>
        <path d="M959,1241.8c-3.6-.3-5.9-4.7-4.1-8,2.9-4.7,6.1-8.9,9.9-12.9,4.5-4.6,9.2-9,13.1-14.2,1.3-2,3.4-3.8,6-3.5,5.3.4,7.4,7,3.6,10.7,0,0-1,1.3-1,1.3-6.6,8.6-13.7,16.6-21.7,23.9-1.4,1.6-3.4,3.2-5.8,2.7h0ZM959.1,1241.5c4.4.5,6.2-5.6,8.6-8.4,4.7-7.2,10.5-13.6,16.2-20,.5-.5,1.6-1.8,2-2.3,2.5-3.7-2.8-7.7-5.9-4.4-7.9,8.1-13,18.5-21.5,26.1-1.5,1.5-3.2,2.5-3.1,4.8,0,2,1.6,3.9,3.7,4.2h0Z" style="fill: #233062;"/>
        <path d="M1012.3,1176c-3.6-.3-5.9-4.7-4.1-8,0,0,1.6-2.9,1.6-2.9,2.1-3.8,4.6-7.3,7.2-10.6,4.1-4.9,8.5-9.7,12-15.1,1-2,3.4-3.9,5.9-3.6,4.2.1,7.1,5.5,4.7,9.2-3,4.5-6,8.9-9.2,13.3-3.8,5.3-8.2,10-12.5,14.8-1.2,1.7-3.4,3.3-5.7,2.8h0ZM1012.4,1175.6c4.7.4,5.8-5.6,8.1-8.7,4.2-7.5,9.4-14.3,14.7-21.1,0,0,1.9-2.5,1.9-2.5,2.7-4.8-4.2-8-6.9-3.2-6.7,8.4-11,18.6-18.5,26.4,0,0-2.1,2.4-2.1,2.4-2.1,2.4-.4,6.4,2.8,6.8h0Z" style="fill: #233062;"/>
        <path d="M1060.4,1106.2c-3.6-.4-5.8-4.7-4.1-8,0,0,1.4-2.9,1.4-2.9,3.4-8,8.9-14.7,13.7-21.8,2.6-3.4,3.7-9.6,9.1-9.2,4.3.1,7,5.4,4.7,9.1,0,0-1.6,2.8-1.6,2.8-5.1,9.5-10.8,18.6-17.6,27.1-1.1,1.9-3.4,3.3-5.6,2.9h0ZM1060.4,1105.9c4.9.5,5.5-5.7,7.5-9,3.5-7.9,8.1-15.1,12.7-22.3.7-1.2,2.6-3.4,2.4-4.8,0-3.9-5.7-4.9-7.4-1.1-6.4,10-10.2,21.4-18,30.5-2.1,2.4-.4,6.4,2.8,6.8h0Z" style="fill: #233062;"/>
        <path d="M1101.6,1032.2c-3.6-.3-5.8-4.7-4.2-7.9,0,0,1-3.1,1-3.1,3.1-10.4,9.9-19,13.9-29,2-5.6,10.5-4.7,11.3,1.3.5,2.2-1.1,4.8-1.9,6.9-1.7,4-3.3,7.9-5.2,11.8-2.7,5.9-6.1,11.4-9.4,17-1,2.1-3.4,3.4-5.6,3h0ZM1101.7,1031.9c5.1.5,5.3-5.8,6.7-9.2,2.6-8.2,6.4-15.9,10.3-23.6.2-.4,1.6-3.2,1.8-3.6,1-2-.2-4.5-2.5-5.1-1.7-.4-3.7.5-4.5,2.3-3,5.7-5,11.9-7.3,17.9-1.9,5-4.6,9.8-7.4,14.3-2,2.5-.5,6.4,2.8,6.8h0Z" style="fill: #233062;"/>
        <path d="M1134.3,954.2c-2.2-.3-4.2-2.1-4.6-4.4-.4-2.1.6-4.6.9-6.6,1.5-8.6,5.3-16.3,8.2-24.4,1.5-4.1,1.9-10.4,7.8-10,3.4,0,6.3,3.7,5.4,7.2-.2,1.1-1,3.6-1.3,4.7-2.3,8.3-4.7,16.6-8.2,24.5,0,0-2.6,5.9-2.6,5.9-1,2.2-3.4,3.4-5.6,3h0ZM1134.4,953.8c5.3.5,5-5.7,5.9-9.4,1.8-9.5,5.1-18.6,8.3-27.7,2.7-5-3.9-8.7-6.6-3.7-3.9,11.1-5,23.2-10.5,33.8-1.8,2.8-.6,6.5,2.9,7h0Z" style="fill: #233062;"/>
        <path d="M1156.5,872.5c-2.8-.3-5.1-3.3-4.7-6.2,0,0,0-1.6,0-1.6,0-9.8,2.7-19.1,4.9-28.5.5-2.2.4-4.2,1-6.5.8-2.3,3.2-4,5.8-3.8,2.6.1,5.1,2.3,5.5,5.1.2,1.5,0,2.5-.1,3.6-.6,5.3-1.3,10.7-2.2,16-.8,4.2-1.6,8.5-2.8,12.6-1.1,4-1.9,10.1-7.5,9.3h0ZM1156.5,872.1c2,.3,4.2-1.1,4.7-3,.3-1.6.3-4.6.4-6.4.4-8.6,2-17,3.7-25.4.4-3.3,2.6-8.2-1.9-9.4-1.7-.4-3.7.5-4.4,2.3-.6,1.8-.6,4.2-1,6.2-1,8.5-1.1,17.2-3.6,25.5-.4,1.7-1.4,4.5-1.5,6.1,0,2,1.7,3.9,3.7,4.1h0Z" style="fill: #233062;"/>
        <path d="M1166.1,788.4c-2.2-.3-4.2-2.1-4.6-4.4l-.5-6.5c-.4-4.3-.5-8.6-.2-12.8.3-5.3.9-10.7.7-16.1-.3-2.2.4-5,2.5-6.3,3.4-2.3,8.6-.1,9.1,4.2,1,11.9,1.5,23.8-.5,35.6,0,0-.2,1.6-.2,1.6-.3,3-3.3,5.2-6.2,4.7h0ZM1166.1,788.1c2.6.4,5-1.9,4.8-4.4,0,0-.1-1.6-.1-1.6-1-9.6-.9-19.3-.8-28.9,0,0,0-6.3,0-6.3,0-1.5-1.1-3.1-2.8-3.4-1.7-.4-3.7.5-4.4,2.3-.7,1.5-.1,4.5-.2,6.2.3,4.3.8,8.6,1.1,12.9.2,4.3.1,8.6-.5,12.9-.3,3.9-2.5,9.5,2.9,10.5h0Z" style="fill: #233062;"/>
        <path d="M1161.9,704c-2.2-.3-4.2-2.1-4.6-4.4-3.1-10.4-4.2-21-5.4-31.7-.3-2.2-1.3-4.4-.5-6.7.8-2.3,3.2-4,5.8-3.8,5.7.4,5.9,7,7,11.2,2.2,9.4,3.8,19,3.8,28.8.6,3.5-2.6,7.2-6.2,6.5h0ZM1162,703.6c3.2.4,5.8-2.8,4.5-5.9,0,0-.8-3.1-.8-3.1-2.7-10.3-4-21.1-5.7-31.6-.1-4.1-5.7-5-7.3-1.3-.8,1.9.2,4,.5,6,2.1,8.3,4.8,16.6,4.9,25.3,0,0,.2,6.5.2,6.5,0,2,1.6,3.9,3.7,4.2h0Z" style="fill: #233062;"/>
        <path d="M1144.5,621.2c-2.2-.2-4.1-2.2-4.7-4.3-4.6-9.8-6.9-20.3-9.1-30.9-.5-2.2-1.6-4.4-.8-6.6,1.2-3.7,6.5-5.1,9.4-2.3,1,.8,1.6,2.1,1.9,3.3,3.4,10.2,6.9,20.4,8.7,31,0,0,.5,3.2.5,3.2.8,3.6-2.6,7.2-6.1,6.6h0ZM1144.6,620.8c3.2.5,5.8-2.9,4.4-5.8-5-11.3-7.8-23.3-10.8-35.2-1-3.1-5.8-3.2-7.1,0-.4.9-.4,1.9-.2,2.8,1.4,5.2,3.6,10.1,5.4,15.2,2.2,6.1,3.2,12.5,4.4,18.8.2,2.1,1.7,3.9,3.8,4.2h0Z" style="fill: #233062;"/>
        <path d="M1120.8,540c-4.9-.7-5.1-6.7-6.9-10.4-3.3-8-4.1-16.7-5.8-25.1-.4-2.2-1.5-4.4-.7-6.6.8-2.3,3.2-4,5.8-3.8,5.6.4,5.9,7,7.3,11.1,2.4,8.3,4.7,16.5,5.9,25,0,0,.4,3.2.4,3.2.8,3.6-2.6,7.2-6.1,6.6h0ZM1120.9,539.6c3.2.5,5.8-2.9,4.5-5.8-4.7-11.4-7.1-23.5-9.7-35.5-1-3.1-5.8-3.2-7.1,0-.9,1.9.2,4,.7,5.9,1.2,4.1,2.8,8.2,4.1,12.2,1.3,4.1,2.2,8.3,2.8,12.5.9,3.7-.2,9.8,4.7,10.6h0Z" style="fill: #233062;"/>
        <path d="M1103.4,457.2c-2.2-.3-4.2-2.1-4.6-4.4l-1.4-6.3c-2.1-8.5-1.5-17.2-1.4-25.7,0-2-.5-4.6.2-6.6,2-5.6,10.5-4.7,11.3,1.3.4,4.4,1.2,14.7,1.6,19.3.3,4.3.6,8.5.5,12.8-.1,2,.4,4.8-.6,6.7-1,2.1-3.4,3.4-5.6,3h0ZM1103.4,456.8c3.3.4,5.7-2.8,4.5-5.9-1.3-5.2-2.3-10.6-2.7-15.9-.6-6.3-.7-13-.7-19.3,0-1.5-1.1-3.1-2.8-3.4-3-.7-5.3,2.2-4.7,5.2.1,5.4,1.1,10.7,1.9,16,.9,6.4.8,12.8.9,19.3,0,2,1.6,3.9,3.7,4.2h0Z" style="fill: #233062;"/>
        <path d="M1101.6,372.8c-5.6-.8-4.7-6.8-4.7-11-.2-8.7,1.8-17.1,3.4-25.6.5-2.2.5-4.2,1.1-6.5.8-2.3,3.2-4,5.9-3.8,3.3,0,6.2,3.7,5.5,7.1,0,1-.4,3.8-.5,4.8-1,9.6-1.7,19.2-4.1,28.6,0,0-.4,1.6-.4,1.6-.4,2.9-3.3,5.2-6.2,4.7h0ZM1101.6,372.4c2,.3,4.1-1.1,4.7-3,.3-1.6,0-4.6.1-6.3,0-10.2,1.3-20.4,3.2-30.5,1.3-4.5-5.1-6.7-7.1-2.4-1.6,6.1-1.4,12.7-1.6,19.1-.2,5.3-1.2,10.7-2.4,15.9-.2,1-.6,2.2-.6,3.1,0,2,1.7,3.9,3.7,4.1h0Z" style="fill: #233062;"/>
        <path d="M1115.4,289.3c-2.8-.3-5.1-3.3-4.7-6.2.1-1,.6-3.8.7-4.8,1-8.6,4.7-16.6,7.7-24.6,1.5-4,1.9-10.4,7.8-10,3.4.1,6.2,3.7,5.5,7.2-.3,1.2-1,3.6-1.3,4.8-2.3,8.3-4.5,16.5-7.7,24.5,0,0-2.3,6.1-2.3,6.1-1,2.2-3.4,3.4-5.6,3h0ZM1115.4,289c5.5.4,4.9-5.6,5.6-9.4,1.2-8.6,3.9-16.8,6.7-24.9.4-1.3,1.8-4.3,1.7-5.5,0-1.5-1.1-3.1-2.9-3.4-1.7-.4-3.7.5-4.4,2.3-2.3,6-3.5,12.4-4.8,18.6-1.2,5.2-3,10.3-4.9,15.3-1.6,2.9-.6,6.5,2.9,7.1h0Z" style="fill: #233062;"/>
        <path d="M1142.5,209.2c-3.6-.3-5.8-4.7-4.2-7.9,0,0,1-3.1,1-3.1,2.6-8.3,7.4-15.6,11.4-23.2,2.2-3.7,2.8-10,8.5-9.6,4.3.2,6.9,5.3,4.8,9.1,0,0-1.3,3-1.3,3-4.1,10-8.8,19.5-14.6,28.6-1,2.1-3.4,3.4-5.6,3h0ZM1142.5,208.8c5.1.5,5.2-5.7,6.7-9.2,2.7-8.2,6.6-15.9,10.4-23.6.3-.7,1.8-3.3,2-4,.6-1.9-.6-4.1-2.7-4.5-1.7-.4-3.7.4-4.5,2.3-3,5.7-5,11.9-7.3,17.9-1.9,5-4.6,9.7-7.4,14.3-2.1,2.6-.4,6.4,2.8,6.9h0Z" style="fill: #233062;"/>
        <path d="M1181.2,133.9c-3.6-.3-5.8-4.7-4.1-8,0,0,1.5-2.9,1.5-2.9,1.9-3.9,4.2-7.5,6.7-11,3.9-5.2,8-10.2,11.2-15.8.9-2.1,3.3-3.9,5.9-3.6,4.2.1,7.1,5.5,4.7,9.2,0,0-1.7,2.8-1.7,2.8-5.4,9.3-11.4,18.2-18.4,26.4-1.1,1.9-3.4,3.3-5.7,2.9h0ZM1181.3,133.6c4.8.4,5.6-5.7,7.7-8.8,3.8-7.8,8.7-14.9,13.5-22,.7-1.2,2.6-3.2,2.4-4.7-.1-3.9-5.6-4.9-7.4-1.1-6.3,8.8-9.9,19.1-17,27.3,0,0-2,2.5-2,2.5-2.1,2.4-.4,6.4,2.8,6.8h0Z" style="fill: #233062;"/>
        <path d="M1229.5,64.4c-3.6-.4-5.9-4.7-4.1-8,2.9-4.7,6-9,9.7-13,4.5-4.7,9.1-9.1,13-14.3,1.3-2,3.4-3.8,5.9-3.5,4.8.2,7.3,6.4,4.1,10.1-.3.4-1.2,1.5-1.5,1.9-6.4,8.6-13.5,16.7-21.4,24-1.4,1.6-3.4,3.2-5.8,2.8h0ZM1229.6,64c4.5.5,6.1-5.5,8.5-8.4,4.7-7.3,10.3-13.8,16-20.2.3-.4,1.3-1.5,1.6-1.8,3.3-3.6-2.2-8.3-5.6-4.8-7.8,8.2-12.8,18.6-21.1,26.3-1.4,1.5-3.2,2.6-3.2,4.8,0,2,1.6,3.9,3.7,4.2h0Z" style="fill: #233062;"/>
      </g>
    </g>
  </g>
  <g style="opacity: .2;">
    <g>
      <path d="M606.9,1930.7c-1.1-.2-2.2-.7-3-1.6-1.7-2-1.5-5.1.5-6.8,9.2-7.9,18.4-15.9,27.4-23.7,2-1.8,5.1-1.6,6.8.4,1.8,2,1.6,5.1-.4,6.8-9,7.9-18.2,15.9-27.5,23.8-1.1.9-2.5,1.3-3.8,1.1ZM670.4,1874.7c-1.1-.1-2.1-.7-2.9-1.5-1.8-2-1.7-5,.3-6.8,9-8.2,17.9-16.4,26.7-24.5,2-1.8,5-1.7,6.8.2,1.8,2,1.7,5-.2,6.8-8.7,8.2-17.7,16.4-26.7,24.6-1.1,1-2.5,1.4-3.9,1.2ZM732.2,1816.8c-1-.1-2-.6-2.8-1.4-1.9-1.9-1.8-5,.1-6.8,8.7-8.4,17.4-16.9,25.9-25.4,1.9-1.9,5-1.9,6.8,0,1.9,1.9,1.9,5,0,6.8-8.5,8.5-17.2,17-26,25.5-1.1,1.1-2.6,1.5-4,1.3ZM792.2,1757c-1-.1-2-.6-2.7-1.3-1.9-1.9-2-4.9-.1-6.8,8.3-8.6,16.8-17.4,25-26.2,1.8-1.9,4.9-2,6.8-.2,1.9,1.8,2,4.9.2,6.8-8.3,8.8-16.8,17.6-25.1,26.3-1.1,1.1-2.6,1.6-4.1,1.4ZM850.2,1695.2c-.9-.1-1.9-.5-2.6-1.2-2-1.8-2.1-4.9-.3-6.8,8-8.9,16.2-18,24.1-27,1.8-2,4.8-2.2,6.8-.4,2,1.8,2.2,4.8.4,6.8-8,9.1-16.2,18.2-24.2,27.1-1.1,1.2-2.7,1.7-4.2,1.5ZM906,1631.6c-.9-.1-1.8-.5-2.5-1.1-2-1.7-2.3-4.8-.6-6.8,7.8-9.2,15.6-18.5,23.2-27.8,1.7-2.1,4.7-2.4,6.8-.7,2.1,1.7,2.4,4.7.7,6.8-7.6,9.3-15.5,18.7-23.3,27.9-1.1,1.3-2.8,1.9-4.3,1.7ZM959.5,1565.9c-.8-.1-1.6-.4-2.3-1-2.1-1.7-2.5-4.7-.8-6.8,7.4-9.4,14.8-19,22.2-28.7,1.6-2.1,4.7-2.5,6.8-.9,2.1,1.6,2.5,4.7.9,6.8-7.3,9.7-14.8,19.3-22.3,28.8-1.1,1.4-2.8,2-4.4,1.8ZM1010.6,1498.4c-.8-.1-1.5-.4-2.2-.9-2.2-1.6-2.6-4.6-1.1-6.8,5.2-7.1,10.2-14.1,15.1-21,2.1-3,4.1-5.8,6-8.4,1.5-2.2,4.6-2.7,6.7-1.2,2.2,1.5,2.7,4.6,1.2,6.7-1.9,2.7-3.9,5.4-6,8.4-4.9,6.9-10,14-15.2,21.1-1.1,1.5-2.9,2.2-4.6,1.9ZM1058.9,1428.9c-.7,0-1.4-.3-2-.7-2.2-1.5-2.9-4.5-1.4-6.7,6.5-10.1,13-20.4,19.2-30.7,1.4-2.3,4.3-3,6.6-1.6,2.3,1.4,3,4.4,1.6,6.6-6.3,10.4-12.8,20.8-19.4,30.9-1.1,1.6-2.9,2.4-4.7,2.2ZM1102.4,1356.1c-.6,0-1.1-.3-1.7-.6-2.3-1.3-3.2-4.2-1.9-6.6,5.8-10.5,11.4-21.3,16.9-32,1.2-2.4,4.1-3.3,6.5-2.1,2.4,1.2,3.3,4.1,2.1,6.5-5.5,10.8-11.2,21.6-17,32.3-1,1.8-3,2.7-4.9,2.5ZM1140.2,1280.4c-.5,0-.9-.2-1.4-.4-2.4-1.1-3.5-4-2.4-6.4,5-11,9.8-22.1,14.4-33.2,1-2.5,3.9-3.6,6.3-2.6,2.5,1,3.6,3.9,2.6,6.3-4.6,11.1-9.5,22.4-14.5,33.5-.9,2-3,3.1-5,2.8ZM1172.1,1201.9c-.3,0-.7-.1-1-.2-2.5-.9-3.8-3.7-2.9-6.2,4.1-11.3,8-22.8,11.6-34.2.8-2.5,3.5-3.9,6.1-3.1,2.5.8,3.9,3.5,3.1,6.1-3.7,11.5-7.6,23.1-11.7,34.5-.8,2.2-3,3.5-5.2,3.2ZM1197.4,1121.1c-.2,0-.4,0-.6-.1-2.6-.7-4.1-3.3-3.4-5.9,3.1-11.7,6-23.5,8.6-35.1.6-2.6,3.2-4.2,5.8-3.6,2.6.6,4.2,3.2,3.6,5.8-2.7,11.7-5.6,23.6-8.7,35.4-.6,2.4-2.9,3.9-5.3,3.6ZM1215.6,1038.4c0,0-.1,0-.2,0-2.6-.5-4.4-3-4-5.6,1.9-11.1,3.6-22.4,5.1-33.5l.3-2.2c.3-2.7,2.8-4.5,5.4-4.2h0c2.6.4,4.5,2.8,4.2,5.4l-.3,2.2c-1.5,11.2-3.2,22.6-5.2,33.9-.4,2.6-2.8,4.3-5.4,4ZM1225.9,954.3c-2.5-.3-4.4-2.6-4.2-5.2.9-12,1.6-24.1,1.9-36,0-2.7,2.3-4.8,5-4.7,2.7,0,4.8,2.3,4.7,5-.4,12.1-1.1,24.3-2,36.5-.2,2.7-2.5,4.7-5.2,4.5,0,0-.2,0-.3,0ZM1228.1,869.7c-2.3-.3-4.1-2.3-4.2-4.7,0-3.3-.2-6.6-.3-9.9-.3-8.7-.8-17.5-1.4-26.1-.2-2.7,1.8-5,4.5-5.2,2.7-.2,5,1.8,5.2,4.5.6,8.8,1.1,17.7,1.4,26.5.1,3.3.2,6.7.3,10,0,2.7-2,4.9-4.7,5-.3,0-.5,0-.8,0ZM1221.6,785.3c-2.1-.3-3.9-2-4.2-4.2-1.5-11.7-3.3-23.7-5.4-35.7-.5-2.6,1.3-5.1,3.9-5.6,2.6-.5,5.1,1.3,5.6,3.9,2.1,12.1,4,24.2,5.5,36.1.3,2.7-1.5,5.1-4.2,5.4-.4,0-.9,0-1.3,0ZM1206.6,702c-1.9-.3-3.6-1.7-4.1-3.7-2.4-10.5-5.1-21.7-8.4-35.2-.6-2.6.9-5.2,3.5-5.9,2.6-.6,5.2.9,5.9,3.5,3.4,13.5,6.1,24.8,8.5,35.4.6,2.6-1,5.2-3.7,5.8-.6.1-1.2.2-1.7,0ZM1186.4,619.8c-1.9-.3-3.6-1.7-4.1-3.6-3.4-13.9-6-25.2-8.2-35.5-.5-2.6,1.1-5.2,3.8-5.7,2.6-.5,5.2,1.1,5.7,3.8,2.1,10.2,4.7,21.4,8.1,35.2.6,2.6-.9,5.2-3.5,5.9-.6.1-1.2.2-1.8,0ZM1170.6,536.8c-2.2-.3-3.9-2-4.2-4.3-1.3-12.7-1.9-24.7-1.8-36.7,0-2.7,2.2-4.8,4.9-4.8,2.7,0,4.8,2.2,4.8,4.9,0,11.7.5,23.3,1.7,35.7.3,2.7-1.7,5-4.3,5.3-.4,0-.8,0-1.1,0ZM1173.1,452.4c0,0-.1,0-.2,0-2.6-.4-4.4-2.9-4-5.6,2-11.7,4.7-23.8,8.1-35.9.7-2.6,3.4-4.1,6-3.3,2.6.7,4.1,3.4,3.3,6-3.3,11.7-6,23.5-7.9,34.9-.4,2.6-2.8,4.3-5.4,4ZM1197.2,371.4c-.4,0-.8-.2-1.2-.3-2.5-1-3.6-3.9-2.6-6.3,4.7-11.2,10-22.3,15.8-33.1,1.3-2.4,4.2-3.2,6.5-2,2.4,1.3,3.3,4.2,2,6.5-5.6,10.6-10.8,21.5-15.4,32.3-.9,2.1-3,3.2-5.1,2.9ZM1238,297.4c-.7,0-1.5-.4-2.1-.8-2.2-1.5-2.8-4.5-1.2-6.7,6.8-9.9,14.2-19.8,22-29.3,1.7-2.1,4.7-2.4,6.8-.7,2.1,1.7,2.4,4.7.7,6.8-7.6,9.4-14.8,19.1-21.5,28.7-1.1,1.6-2.9,2.3-4.6,2.1ZM1291.9,232.3c-1-.1-2-.6-2.7-1.3-1.9-1.9-1.9-4.9,0-6.8,8.4-8.5,17.3-17.1,26.5-25.3,2-1.8,5-1.6,6.8.4,1.8,2,1.6,5-.4,6.8-9,8.1-17.8,16.5-26,24.9-1.1,1.1-2.6,1.6-4.1,1.4ZM1355.4,176.3c-1.2-.2-2.4-.8-3.2-1.8-1.6-2.1-1.2-5.2.9-6.8,9.4-7.3,19.4-14.5,29.5-21.6,2.2-1.5,5.2-1,6.7,1.2,1.5,2.2,1,5.2-1.2,6.7-10,6.9-19.8,14.1-29.1,21.3-1.1.8-2.4,1.1-3.6,1Z" style="fill: #76bf43;"/>
      <g>
        <path d="M606.9,1930.9c-4.4-.4-6.3-6.5-3-9.5,8.2-9.5,19.4-15.4,28.3-24.1,6.4-3.9,12.6,4.9,7,9.9-8.2,7.8-16.8,15.1-26.3,21.3-1.7,1.3-3.6,3-5.9,2.5h0ZM606.9,1930.6c2.3.3,3.8-1.3,5.2-2.9,1.5-1.5,2.9-3.2,4.4-4.7,5.8-6.4,12.4-11.8,19.1-17.2,1.3-1,2.8-2.1,2.7-3.9,0-2.5-3.1-4.4-5.4-3.1-.7.4-1.7,1.2-2.5,1.8-8.5,6.7-14.9,15.6-24,21.5,0,0-1.3.9-1.3.9-3.3,2-2,7.2,1.8,7.6h0Z" style="fill: #233062;"/>
        <path d="M670.4,1874.9c-3.6-.3-5.9-4.7-4.1-8,3.2-4.4,7.2-8.2,11.4-11.7,5-4,10.3-7.8,14.8-12.4.8-.7,1.4-1.5,2.5-2.3,3.4-2.4,8.6-.1,9.1,4.2.5,2.8-1.2,5.1-3.2,6.8-7.6,7.7-15.7,14.7-24.5,20.9-1.6,1.3-3.6,3-5.9,2.5h0ZM670.5,1874.6c2.3.3,3.8-1.3,5.2-2.9,1.5-1.6,2.8-3.3,4.3-4.9,6.1-7.3,13.7-13.3,20.6-19.7,1.4-2,.3-5-2.2-5.5-2-.5-3.5.8-5,2.2-8.3,6.9-14.4,16-23.3,22.2,0,0-1.3,1-1.3,1-3.3,2-2.1,7.2,1.8,7.7h0Z" style="fill: #233062;"/>
        <path d="M732.2,1817c-3.6-.3-5.9-4.7-4.1-8,3.2-4.6,6.9-8.3,11-12,6-4.8,11.5-9.8,16.8-15.2,5.2-3.5,11.6,2.8,8.3,8.3-7.8,9.1-16.6,17.1-26.2,24.4-1.6,1.4-3.5,3.1-5.9,2.6h0ZM732.3,1816.6c2.3.3,3.8-1.3,5.1-2.9,1.4-1.6,2.7-3.3,4.1-5,5.9-7.5,13.3-13.8,20.1-20.4,1.4-2,.3-5-2.2-5.5-2-.5-3.5.8-4.9,2.2-8,7.2-13.9,16.5-22.6,22.9-.8.7-1.8,1.3-2.3,1.9-2.1,2.4-.4,6.4,2.8,6.8h0Z" style="fill: #233062;"/>
        <path d="M792.2,1757.2c-3.6-.3-5.8-4.7-4.1-8,3.1-4.6,6.7-8.5,10.6-12.3,4.8-4.3,9.8-8.4,14-13.3,1.5-1.9,3.4-3.7,6-3.4,4.2.1,7.1,5.5,4.7,9.2-3.6,4.4-7.2,8.1-11,12.2-4.4,4.7-9.4,8.8-14.4,13-1.5,1.5-3.5,3.1-5.8,2.6h0ZM792.2,1756.8c2.3.3,3.8-1.2,5.1-3,3.9-5.1,7.8-10.3,12.3-14.9,3.5-3.8,7.6-7.6,11.1-11.2.4-.6.6-1.3.6-2.1,0-2.5-3.1-4.4-5.4-3.1-9.1,7.3-14.8,18.3-24.2,25.6-1.6,1.4-3.3,2.4-3.2,4.6,0,2,1.6,3.9,3.7,4.1h0Z" style="fill: #233062;"/>
        <path d="M850.1,1695.4c-3.6-.3-5.9-4.7-4.1-8,3-4.6,6.4-8.7,10.2-12.6,4.6-4.5,9.5-8.8,13.5-13.8,1.4-2,3.4-3.7,6-3.4,5.3.4,7.4,7,3.6,10.7,0,0-1,1.2-1,1.2-6.8,8.4-14.2,16.2-22.4,23.2-1.4,1.5-3.5,3.2-5.8,2.7h0ZM850.2,1695.1c2.3.3,3.8-1.2,5-3,1.3-1.7,2.5-3.5,3.8-5.3,5.2-7.5,11.6-14.1,17.9-20.7,4.2-3.5-1.1-9.1-5-5.4-8.1,7.9-13.5,18.1-22.2,25.5-1.5,1.4-3.2,2.5-3.2,4.7,0,2,1.6,3.9,3.7,4.2h0Z" style="fill: #233062;"/>
        <path d="M906,1631.7c-3.6-.3-5.9-4.7-4.1-8,2.9-4.7,6.1-8.9,9.8-12.9,4.5-4.6,9.2-9.1,13-14.3,1.3-2,3.4-3.8,6-3.5,5.3.4,7.4,6.9,3.6,10.7,0,0-1,1.3-1,1.3-6.5,8.6-13.6,16.7-21.5,24-1.4,1.6-3.4,3.2-5.8,2.7h0ZM906,1631.4c4.5.4,6.1-5.5,8.5-8.4,4.7-7.2,10.4-13.7,16.1-20.1.5-.5,1.6-1.8,2-2.3,2.5-3.7-2.8-7.7-5.9-4.4-7.8,8.2-12.9,18.6-21.3,26.3-1.4,1.5-3.2,2.6-3.1,4.8,0,2,1.6,3.9,3.7,4.2h0Z" style="fill: #233062;"/>
        <path d="M959.5,1566.1c-3.6-.3-5.9-4.7-4.1-8,2.8-4.7,5.7-9.1,9.3-13.2,4.3-4.8,8.8-9.4,12.5-14.7,1.1-1.9,3.4-3.9,5.9-3.5,4.2.1,7.1,5.5,4.7,9.2-.6,1-1.3,1.8-2,2.7-6.2,8.8-13,17.2-20.7,24.7-1.3,1.7-3.4,3.3-5.7,2.8h0ZM959.5,1565.8c4.6.4,6-5.6,8.3-8.6,4.4-7.4,9.9-14,15.3-20.7,0,0,1.9-2.4,1.9-2.4,2.6-4.8-4.1-8-6.9-3.2-7,8.2-11.5,18.2-19.3,25.8,0,0-2.2,2.3-2.2,2.3-2.1,2.4-.4,6.4,2.8,6.8h0Z" style="fill: #233062;"/>
        <path d="M1010.6,1498.6c-3.6-.3-5.9-4.7-4.1-8,0,0,1.6-2.9,1.6-2.9,2.1-3.8,4.5-7.3,7.2-10.7,4.1-5,8.5-9.7,11.9-15.2,1-2,3.4-3.9,5.9-3.6,4.2.1,7.1,5.5,4.7,9.2-3,4.6-5.9,9-9.1,13.4-3.7,5.3-8.1,10.1-12.4,14.8-1.2,1.8-3.4,3.3-5.7,2.8h0ZM1010.7,1498.2c4.8.4,5.8-5.6,8-8.7,4.2-7.6,9.4-14.4,14.6-21.2,0,0,1.9-2.5,1.9-2.5,2.7-4.7-4.2-8-6.9-3.2-6.6,8.5-10.8,18.6-18.3,26.5,0,0-2.1,2.4-2.1,2.4-2.1,2.4-.4,6.4,2.8,6.8h0Z" style="fill: #233062;"/>
        <path d="M1058.9,1429.1c-3.6-.3-5.9-4.7-4.1-8,0,0,1.4-2.9,1.4-2.9,3.6-7.9,9.2-14.5,14.1-21.5,2.7-3.3,3.9-9.5,9.3-9.1,4.2.1,7.1,5.5,4.7,9.2,0,0-1.6,2.8-1.6,2.8-5.3,9.4-11.2,18.4-18.1,26.7-1.1,1.9-3.4,3.3-5.7,2.9h0ZM1059,1428.7c4.9.4,5.6-5.7,7.6-8.9,3.7-7.8,8.4-14.9,13.2-22.1.7-1.2,2.6-3.3,2.4-4.8,0-3.9-5.6-4.9-7.4-1.1-6.6,9.8-10.7,21.2-18.6,30.1-2.1,2.4-.4,6.4,2.8,6.8h0Z" style="fill: #233062;"/>
        <path d="M1102.3,1356.3c-3.6-.3-5.8-4.7-4.2-7.9,0,0,1.2-3,1.2-3,3-8.2,8.1-15.1,12.5-22.5,2.4-3.6,3.3-9.9,8.8-9.4,4.2.1,7,5.4,4.8,9.1,0,0-1.4,2.9-1.4,2.9-4.6,9.8-9.8,19.2-16.1,27.9-1,2-3.4,3.3-5.6,3h0ZM1102.4,1355.9c5,.5,5.4-5.7,7.1-9.1,3.1-8.1,7.3-15.5,11.5-23,0,0,1.6-2.8,1.6-2.8,1.5-2.1.4-5-2.2-5.6-4-1-5.5,4.5-7.5,8-1.9,3.9-3.4,7.9-5.2,11.8-2.2,4.9-5.1,9.5-8.1,13.9-2.1,2.4-.4,6.5,2.8,6.8h0Z" style="fill: #233062;"/>
        <path d="M1140.2,1280.5c-3.6-.3-5.7-4.7-4.2-7.9,0,0,1-3.1,1-3.1,2.9-10.5,9.5-19.2,13.3-29.3,2-5.6,10.5-4.7,11.3,1.3.5,2.2-1.1,4.8-1.8,6.9-1.6,4-3.2,8-4.9,11.9-2.5,5.9-5.8,11.6-9,17.2-1,2.1-3.4,3.4-5.6,3h0ZM1140.2,1280.2c5.2.5,5.2-5.8,6.6-9.3,2.5-8.3,6.1-16,9.7-23.8.4-.8,1.6-3.3,1.9-4.1.6-1.9-.6-4.1-2.7-4.5-1.7-.4-3.7.5-4.4,2.3-2.9,5.8-4.7,12-6.9,18.1-1.8,5-4.3,9.9-7.1,14.5-2,2.6-.4,6.4,2.8,6.9h0Z" style="fill: #233062;"/>
        <path d="M1172.1,1202.1c-2.2-.3-4.2-2.1-4.6-4.4-.4-2.1.7-4.6,1-6.6,1.7-8.5,5.6-16.2,8.8-24.2,1.6-4,2.1-10.4,7.9-9.9,4.3.2,6.7,5,5,8.9-2.8,9.2-5.5,18.6-9.7,27.3-1.9,3.6-3.2,9.7-8.4,8.9h0ZM1172.1,1201.7c5.3.5,5.1-5.7,6.1-9.4.9-4.2,2.1-8.3,3.4-12.4,1.7-5,3.6-10.1,5.5-15.1.4-1.1.7-1.7.7-2.5,0-3.9-5.7-4.9-7.3-1.2-.8,1.9-1.5,4-2.1,6.1-2.5,9.3-4.6,18.9-9.1,27.5-1.9,2.7-.5,6.5,2.9,7h0Z" style="fill: #233062;"/>
        <path d="M1197.4,1121.3c-2.8-.3-5.1-3.3-4.7-6.2.1-1,.5-3.8.6-4.8.9-8.6,4.2-16.6,6.7-24.8,1.2-4.2,1.3-10.4,7.4-10.1,3.4,0,6.2,3.7,5.5,7.2-.2,1-.8,3.7-1,4.7-1.8,8.4-3.6,16.8-6.7,24.9,0,0-2.3,6.1-2.3,6.1-1,2.2-3.4,3.4-5.6,3h0ZM1197.4,1120.9c5.5.4,4.9-5.6,5.5-9.4,1.1-8.6,3.3-16.8,5.7-25.1.3-1.3,1.5-4.6,1.5-5.7,0-3.9-5.7-4.9-7.3-1.2-.6,1.9-1.1,4.1-1.6,6.1-1.7,9.5-2.9,19.2-6.7,28.2-1.6,2.9-.6,6.4,3,7h0Z" style="fill: #233062;"/>
        <path d="M1215.5,1038.5c-2.8-.3-5.1-3.3-4.7-6.2,0,0,0-1.6,0-1.6,0-12.3,3.9-23,5.6-35.1,1.9-5.6,10.5-4.8,11.3,1.3.2,1.5,0,2.5-.1,3.6-1.2,9.6-2.2,19.3-4.8,28.6-1.1,4-1.8,10.1-7.4,9.4h0ZM1215.6,1038.2c2,.3,4.2-1.1,4.7-3,.3-1.6.2-4.6.4-6.4.1-4.3.6-8.6,1.2-12.8.7-5.3,1.8-10.6,2.7-15.8.7-2.7.7-5.4-2.4-6.3-1.7-.4-3.7.5-4.4,2.3-.4.8-.4,2-.6,3-1.5,9.6-1,19.4-3.8,28.8-.4,1.7-1.4,4.5-1.5,6.1,0,2,1.6,3.9,3.7,4.1h0Z" style="fill: #233062;"/>
        <path d="M1225.9,954.5c-5.5-.7-4.7-6.9-5-11-.7-8.7,1.1-17.1,1.9-25.7.3-2.2,0-4.5.6-6.6.8-2.3,3.2-4,5.9-3.8,3.3,0,6,3.6,5.5,6.9,0,1,0,3.8,0,4.8-.2,9.7-.6,19.4-2.4,28.9,0,0-.3,1.6-.3,1.6-.3,2.9-3.3,5.2-6.1,4.7h0ZM1226,954.2c3.6.3,5.4-2.8,4.7-6.1-1-11.7.2-23.5,1.2-35.1,0-3.9-5.7-4.9-7.3-1.2-1.2,6.2-.3,12.8-.4,19.1,0,4.3-.3,8.6-1.1,12.9-.5,3.8-2.6,9.5,2.8,10.5h0Z" style="fill: #233062;"/>
        <path d="M1228.1,869.9c-2.2-.3-4.2-2.1-4.6-4.4l-.9-6.4c-.6-4.3-1-8.5-1-12.8,0-5.4.5-10.7.1-16.1,0-1-.2-2.3.2-3.4,1.9-5.6,10.5-4.8,11.3,1.3,1,10.8,2.2,21.5,1.3,32.3-.3,2,0,4.7-.9,6.6-1,2.1-3.4,3.4-5.6,3h0ZM1228.1,869.5c3.4.4,5.6-2.8,4.6-6-1.5-9.6-2.1-19.2-2.2-28.9-.5-3.4,1.5-8.5-2.9-9.8-3-.7-5.3,2.1-4.7,5.2.2,5.4,1.2,10.7,1.8,16,.4,4.3.6,8.6.2,12.9-.1,3.8-2,9.7,3.3,10.6h0Z" style="fill: #233062;"/>
        <path d="M1221.6,785.5c-5.1-.6-4.9-6.8-6.2-10.7-2.5-8.3-2.4-17-3.3-25.5-.1-2.2-1.1-4.4-.3-6.7.8-2.3,3.2-4,5.8-3.8,5.8.4,5.8,7,6.7,11.3,1.8,9.5,3.4,19.1,3.5,28.8.6,3.5-2.6,7.2-6.2,6.5h0ZM1221.7,785.1c3.2.4,5.8-2.8,4.5-5.9-2.8-9.3-4.1-18.9-5.2-28.5-.9-3.3.6-8.8-3.6-9.9-2.8-.7-5.5,2.2-4.6,5.1.7,5.3,2.2,10.5,3.4,15.8,1.4,6.3,1.6,12.8,1.9,19.3,0,2,1.6,3.9,3.7,4.2h0Z" style="fill: #233062;"/>
        <path d="M1206.6,702.2c-4.9-.7-5.1-6.8-6.8-10.5-3.1-8.1-3.9-16.7-5.4-25.2-.4-2.2-1.5-4.4-.6-6.7.8-2.3,3.2-4,5.8-3.8,5.6.4,5.9,6.9,7.2,11.1,2.6,9.3,4.9,18.7,5.9,28.4.8,3.5-2.6,7.2-6.1,6.6h0ZM1206.7,701.9c3.1.5,5.8-2.9,4.5-5.8-3.5-9-5.7-18.5-7.6-27.9-.8-2.8-.7-6.1-2.1-8.6-1.7-2.2-5.4-1.7-6.5,1-.9,1.9.2,4,.6,5.9,1.1,4.1,2.6,8.2,3.9,12.3,1.2,4.1,2.1,8.3,2.6,12.6.9,3.7-.3,9.8,4.6,10.6h0Z" style="fill: #233062;"/>
        <path d="M1186.3,620c-5-.7-5.1-6.8-6.7-10.5-3.1-8.1-3.7-16.8-5.2-25.2-.3-2.2-1.4-4.4-.6-6.6.8-2.3,3.2-4,5.8-3.8,5.6.4,5.9,7,7.2,11.2,2.5,9.3,4.8,18.7,5.6,28.4.8,3.6-2.6,7.2-6.1,6.6h0ZM1186.4,619.7c3.2.5,5.8-2.9,4.5-5.8-4.4-11.5-6.5-23.7-8.8-35.6-1-3.1-5.8-3.2-7.1,0-.4.9-.4,1.8-.2,2.8,1.1,5.3,3,10.3,4.5,15.5,1.2,4.1,2,8.3,2.5,12.6.8,3.7-.4,9.8,4.6,10.6h0Z" style="fill: #233062;"/>
        <path d="M1170.6,536.9c-2.2-.3-4.2-2.1-4.6-4.4l-1.3-6.4c-2.2-9.6-.6-19.4-.6-29-1.1-8,9.9-10.2,11.7-2.1.3,4.4.7,14.8.9,19.3.1,4.3.3,8.5.2,12.8-.2,2,.3,4.8-.6,6.7-1,2.1-3.4,3.4-5.6,3h0ZM1170.6,536.6c3.4.4,5.7-2.9,4.5-5.9-2.8-11.5-2.8-23.5-2.3-35.3,0-3.9-5.7-4.9-7.3-1.2-1.2,6.1.4,12.8.9,19,.7,6.4.4,12.8.4,19.3,0,2,1.6,3.9,3.7,4.1h0Z" style="fill: #233062;"/>
        <path d="M1173.1,452.6c-2.8-.3-5.1-3.3-4.7-6.2,0-1,.3-3.8.3-4.9.4-8.7,3.6-16.9,6.2-25.1,1.3-4.1,1.6-10.5,7.6-10.1,3.3,0,6.3,3.7,5.4,7.2-.2,1-.9,3.7-1.1,4.8-1.7,7.4-3.9,17.7-6.2,24.9-1.2,3.9-2,10.1-7.6,9.3h0ZM1173.1,452.3c2,.3,4.2-1.1,4.7-3,.3-1.6.3-4.6.5-6.4.2-4.3,1-8.6,1.9-12.8,1.1-5.2,2.7-10.5,4.3-15.6.2-.6.7-1.9.6-2.6,0-3.9-5.7-4.9-7.3-1.2-3.5,10.1-3.4,21.1-6.8,31.3-.4,1.7-1.5,4.5-1.6,6.1,0,2,1.6,3.9,3.7,4.1h0Z" style="fill: #233062;"/>
        <path d="M1197.2,371.6c-3.6-.3-5.7-4.7-4.2-7.9,0,0,1-3.1,1-3.1,1.3-4.1,3-8.1,5-11.9,3.2-5.6,6.7-11,9.5-16.9.8-2.1,3.2-4,5.9-3.7,4.3.1,7,5.4,4.8,9.1-3.9,7.9-8.5,18.2-13,25.8-2.3,3.3-3.7,9.4-8.8,8.6h0ZM1197.2,371.3c2.1.3,4.2-1.1,4.7-3l1.9-6.2c1.2-4.2,3-8.1,4.8-12,1.8-3.9,3.9-7.7,6-11.5.6-1.2,2.4-3.6,2.3-5,0-1.5-1.1-3.1-2.9-3.4-4-1-5.5,4.5-7.5,8-3.5,7.8-6,16.1-10.5,23.5,0,0-1.6,2.8-1.6,2.8-2,2.6-.4,6.4,2.8,6.9h0Z" style="fill: #233062;"/>
        <path d="M1238,297.6c-3.6-.3-5.9-4.7-4.1-8,0,0,1.6-2.9,1.6-2.9,2-3.8,4.5-7.4,7.2-10.7,4.2-4.9,8.7-9.5,12.5-14.8,1.3-2,3.4-3.8,5.9-3.5,4.2.1,7.1,5.5,4.7,9.2-3.2,4.4-6.4,8.7-9.7,13-3.8,5.1-8.2,9.9-12.5,14.7-1.2,1.8-3.4,3.3-5.7,2.9h0ZM1238,297.2c2.2.3,4-1.1,4.8-3.1,0,0,3.1-5.7,3.1-5.7,4.6-8.5,10.9-15.9,17.1-23.2,2.1-3-1.5-7-4.8-5.2-.4.2-.8.5-1.1.8-4.7,5.1-8.4,11.1-12.1,17-2.4,3.6-4.9,7-7.8,10.2l-2.1,2.4c-2.1,2.4-.3,6.4,2.8,6.8h0Z" style="fill: #233062;"/>
        <path d="M1291.9,232.5c-3.6-.3-5.9-4.7-4.1-8,.7-1.2,1.4-1.9,2-2.7,7.3-9.5,17.8-15.7,26.1-24.2,6.4-3.9,12.6,4.9,7,9.9-7.8,8.2-16,15.8-25.2,22.5-1.6,1.4-3.5,3.1-5.9,2.6h0ZM1292,232.1c2.3.3,3.8-1.3,5.1-2.9,4.1-5,8.3-10,13-14.4,3.5-3.4,7.1-6.6,10.7-9.8,1-.8,1.4-1.7,1.4-2.9,0-2.5-3.1-4.4-5.4-3.1-6,4.3-11,10.2-15.9,15.7-3.5,3.9-7.8,7.4-11.7,10.8-2.1,2.4-.4,6.4,2.8,6.8h0Z" style="fill: #233062;"/>
        <path d="M1355.4,176.5c-3.6-.3-5.9-4.7-4.1-8,6.1-7.7,15.5-12,23.5-17.4,1.8-1.2,3.5-2.5,5.2-3.8,1.8-1.4,3.6-3.3,6.2-3,2.6.1,5.1,2.3,5.5,5.1.5,2.8-1.3,5.4-3.5,6.8-8.4,6.8-17.2,12.8-26.7,18-1.8,1.1-3.7,2.8-6,2.3h0ZM1355.4,176.1c1,.1,2.1-.1,2.9-.7,2.5-2,4.9-4.3,7.2-6.4,6.3-5.9,13.4-10.8,20.5-15.6,1.3-.8,2.7-2,2.6-3.7,0-2.5-3.1-4.4-5.4-3.1-6.4,3.8-12,9-17.7,13.8-3.7,3.1-7.8,5.7-12,8.1-.4.2-.7.5-1,.9-2.1,2.4-.4,6.4,2.8,6.8h0Z" style="fill: #233062;"/>
      </g>
    </g>
  </g>
</svg>